<?xml version="1.0" encoding="UTF-8"?>
<svg id="Layer_1" data-name="Layer 1" xmlns="http://www.w3.org/2000/svg" xmlns:xlink="http://www.w3.org/1999/xlink" viewBox="0 0 627.51 462.38">
  <defs>
    <style>
      .cls-1, .cls-2, .cls-3, .cls-4 {
        fill: #fff;
      }

      .cls-5 {
        fill: #93d9f3;
      }

      .cls-2 {
        opacity: .3;
      }

      .cls-3 {
        opacity: .1;
      }

      .cls-6 {
        fill: #53c2ef;
      }

      .cls-7 {
        fill: url(#_Áåçûìÿííûé_ãðàäèåíò_75);
      }

      .cls-4 {
        opacity: .2;
      }

      .cls-8 {
        fill: #46a0d9;
      }

      .cls-9 {
        fill: #27719a;
      }
    </style>
    <linearGradient id="_Áåçûìÿííûé_ãðàäèåíò_75" data-name="Áåçûìÿííûé ãðàäèåíò 75" x1="313.75" y1="403.04" x2="313.75" y2="-59.34" gradientUnits="userSpaceOnUse">
      <stop offset="0" stop-color="#e0f3fd"/>
      <stop offset="1" stop-color="#90d9f8"/>
    </linearGradient>
  </defs>
  <g id="afternoon">
    <rect class="cls-7" width="627.51" height="462.38"/>
    <path class="cls-2" d="m612.67,108.12c-1.26,0-2.5.05-3.73.13-2.32-5.23-7.62-8.9-13.8-8.9-6.55,0-12.1,4.12-14.17,9.85-1.52-.88-3.29-1.39-5.19-1.39-4.97,0-9.12,3.46-10.09,8.07-.94-.44-2-.7-3.11-.7-3.67,0-6.69,2.68-7.16,6.16h20.83c-8.08,6.8-14.18,15.82-17.29,26.1-5.77-1.97-11.95-3.05-18.4-3.05-14.22,0-27.18,5.23-37.05,13.8-3.66-8.03-11.85-13.64-21.38-13.64-10.2,0-18.85,6.41-22.07,15.34-2.37-1.36-5.13-2.16-8.08-2.16-7.74,0-14.21,5.39-15.71,12.57-1.47-.69-3.11-1.09-4.84-1.09-5.71,0-10.42,4.18-11.15,9.59h34c-7.73,3.66-14.49,8.99-19.76,15.55-5.81-2-12.05-3.11-18.56-3.11-11.88,0-22.89,3.64-31.95,9.84-9.07-6.19-20.07-9.84-31.95-9.84-21.36,0-39.92,11.74-49.38,29-9.59-7.54-21.74-12.05-34.98-12.05s-26.38,4.89-36.14,12.99c-9.76-8.1-22.36-12.99-36.14-12.99-7.25,0-14.18,1.37-20.54,3.83-5.83-13.26-16.82-23.81-30.48-29.24h46.14c-.65-4.76-4.79-8.44-9.81-8.44-.61,0-1.2.06-1.77.16.04-.53.08-1.07.08-1.61,0-11.19-9.23-20.25-20.62-20.25-8.97,0-16.58,5.64-19.42,13.5-2.09-1.2-4.51-1.9-7.11-1.9-6.81,0-12.5,4.74-13.82,11.06-1.29-.61-2.73-.96-4.26-.96-4.79,0-8.74,3.36-9.66,7.8-.46.17-.92.32-1.38.5-10.28-11.92-25.62-19.49-42.77-19.49-6.24,0-12.23,1.02-17.84,2.87-1.14-8.39-4.21-16.19-8.75-22.94h33.55c-.47-3.48-3.49-6.16-7.16-6.16-.44,0-.87.05-1.29.12.03-.39.06-.78.06-1.17,0-8.16-6.74-14.78-15.05-14.78-6.55,0-12.1,4.12-14.17,9.85-1.52-.88-3.29-1.39-5.19-1.39-1.06,0-2.08.19-3.04.48-6.14-4.72-13.29-8.24-21.11-10.13v342.44h627.51V110.09c-4.73-1.27-9.7-1.97-14.84-1.97Z"/>
    <path class="cls-2" d="m139.37,65.46c-.47-3.48-3.49-6.16-7.16-6.16-.44,0-.87.05-1.29.12.03-.39.06-.78.06-1.17,0-8.16-6.74-14.78-15.05-14.78-6.55,0-12.1,4.12-14.17,9.85-1.52-.88-3.29-1.39-5.19-1.39-4.97,0-9.12,3.46-10.09,8.07-.94-.44-2-.7-3.11-.7-3.67,0-6.69,2.68-7.16,6.16h63.16Z"/>
    <path class="cls-2" d="m480.35,95.6c-.65-4.76-4.79-8.44-9.81-8.44-.61,0-1.2.06-1.77.16.04-.53.08-1.07.08-1.61,0-11.19-9.23-20.25-20.62-20.25-8.97,0-16.58,5.64-19.42,13.5-2.09-1.2-4.51-1.9-7.11-1.9-6.81,0-12.5,4.74-13.82,11.05-1.29-.61-2.73-.96-4.26-.96-5.03,0-9.17,3.68-9.81,8.44h86.53Z"/>
    <path class="cls-2" d="m627.51,140.91c-4.73-1.27-9.7-1.97-14.84-1.97-25.39,0-46.82,16.59-53.71,39.34-5.77-1.97-11.95-3.05-18.4-3.05-21.88,0-40.81,12.32-50.04,30.28-3.87-.83-7.89-1.28-12.01-1.28-17.85,0-33.73,8.2-43.99,20.97-5.81-2-12.05-3.11-18.56-3.11-11.88,0-22.89,3.64-31.95,9.84-9.07-6.19-20.07-9.84-31.95-9.84-21.36,0-39.92,11.74-49.38,29-9.59-7.54-21.74-12.05-34.98-12.05s-26.38,4.89-36.14,12.99c-9.76-8.1-22.36-12.99-36.14-12.99-7.25,0-14.18,1.37-20.54,3.83-8.6-19.56-28.4-33.25-51.47-33.25-7.29,0-14.25,1.38-20.64,3.87-10.28-11.92-25.62-19.49-42.77-19.49-6.24,0-12.23,1.02-17.84,2.87-3.07-22.56-20.03-40.79-42.15-46.12v311.62h627.51V140.91Z"/>
    <g>
      <ellipse class="cls-3" cx="281.06" cy="88.68" rx="51.87" ry="50.96"/>
      <ellipse class="cls-4" cx="281.06" cy="88.68" rx="40.89" ry="40.17"/>
      <ellipse class="cls-1" cx="281.06" cy="88.68" rx="30.68" ry="30.14"/>
    </g>
    <g>
      <polygon class="cls-5" points="620.78 285.57 620.78 278.98 608.73 278.98 603.26 272.6 574.48 272.6 574.48 278.98 565.4 278.98 565.4 285.57 558.69 285.57 558.69 329.82 546.8 329.82 546.8 225.54 498.84 240.46 498.84 277.75 484 277.75 484 305.92 468.57 305.92 468.57 314.5 456.97 314.5 456.97 246.15 447.85 246.15 447.85 201.63 414.72 201.63 414.72 246.15 405.59 246.15 405.59 287.41 396.73 278.7 371.96 278.7 371.96 306.87 366.42 306.87 366.42 281.71 366.42 276.37 357.52 276.37 357.52 271.04 345.58 271.04 345.58 276.37 332.34 276.37 332.34 273.6 325.17 273.6 325.17 276.37 318.45 276.37 318.45 281.71 310.2 281.71 310.2 290.88 306.71 290.88 306.71 216.47 300.08 216.47 300.08 205.83 291.68 205.83 291.68 193.02 272.9 193.02 272.9 205.83 264.51 205.83 264.51 216.47 257.88 216.47 257.88 292.29 228.47 292.29 228.47 232.1 219.48 232.1 219.15 223.22 207.1 223.22 207.1 219.71 196.14 219.71 196.14 223.22 188.74 223.22 188.41 232.1 179.42 232.1 179.42 270.63 175.8 270.63 171.04 265.08 145.99 265.08 145.99 270.63 141.93 270.63 141.93 230.55 90.71 230.55 90.71 314.5 58.67 314.5 58.67 305.43 52.73 305.43 52.73 298.81 48.71 298.81 44.21 241.38 30.55 241.38 26.05 298.81 16.29 298.81 16.29 295.69 3.91 288.68 0 290.89 0 343.19 .52 343.19 .52 462.38 627.51 462.38 627.51 363.62 627.51 340.23 627.51 285.57 620.78 285.57"/>
      <polygon class="cls-6" points="627.51 327.23 608.02 340.55 608.02 344.13 602.27 344.13 597.1 278.02 581.36 278.02 576.19 344.13 571.56 344.13 571.56 351.75 568.07 351.75 568.07 243.87 547.39 243.87 511.09 261.71 511.09 315.77 510.94 315.6 485.4 315.6 485.4 321.26 477.34 321.26 477.34 327.11 471.39 327.11 471.39 354.23 445.05 354.23 445.05 348.62 445.05 338.06 445.05 323.11 434.37 312.61 411.99 312.61 411.99 338.06 398.05 338.06 398.05 354.23 382.54 354.23 382.54 349.9 382.54 339.33 382.54 237.79 375.06 237.79 375.06 234.11 363.08 234.11 363.08 229.7 352 229.7 352 234.11 343.32 234.11 343.32 237.79 330.74 237.79 330.74 319.56 326.32 319.56 320.12 312.33 287.52 312.33 287.52 319.56 277.23 319.56 277.23 327.02 273.47 327.02 273.47 236.85 217.94 236.85 217.94 354.23 211 354.23 209 334.77 197.52 334.77 197.52 317.3 189.32 316.17 189.32 301.99 169.78 301.99 169.78 294.47 148.52 255.78 127.27 294.47 127.27 301.99 127.27 307.63 127.27 308.71 127.27 321.33 127.27 334.77 127.27 342.56 127.27 354.23 116.32 354.23 116.32 284.38 110.22 284.38 110.22 273.25 104.77 273.25 104.77 261.47 77.32 232.99 49.87 261.47 49.87 273.25 44.42 273.25 44.42 284.38 38.32 284.38 38.32 321.78 32.41 321.78 32.41 324.83 19.82 324.83 19.82 318.96 8.46 318.96 8.46 324.83 0 324.83 0 330.7 0 395.46 0 401.33 .52 401.33 .52 462.38 626.73 462.38 626.73 395.23 627.51 395.23 627.51 327.23"/>
      <polygon class="cls-8" points="612.48 343.24 612.48 356.29 604.94 357.33 604.94 373.38 594.57 373.38 594.57 316.64 597.68 316.64 597.68 309.9 587.4 309.9 587.4 305.61 549.86 305.61 549.86 309.9 539.58 309.9 539.58 316.64 542.69 316.64 542.69 357.14 535.35 357.14 535.35 348.99 520.46 348.99 513.69 341.11 479.58 341.11 479.58 309.95 479.58 284.9 467.82 273.34 467.82 237.89 441.94 237.89 441.94 284.9 423.12 284.9 423.12 356.92 418.21 356.92 413.78 351.77 400.85 351.77 400.85 275.56 343.97 275.56 343.97 403.04 321.49 403.04 321.49 399.67 321.49 387.28 321.49 375.64 321.49 374.65 321.49 369.45 321.49 362.51 301.89 326.83 282.29 362.51 282.29 369.45 264.27 369.45 264.27 382.53 256.71 383.57 256.71 399.67 248.76 399.67 248.76 294.84 196.09 278.46 196.09 376.87 191.66 376.87 191.66 340.26 159.46 340.26 145.36 354.12 145.36 308.63 105.51 289.05 82.81 289.05 82.81 342.55 71.3 342.55 63.5 333.46 22.5 333.46 22.5 342.55 9.56 342.55 9.56 351.94 0 351.94 0 403.04 0 422.53 0 462.38 627.51 462.38 627.51 435.17 627.51 403.04 627.51 343.24 612.48 343.24"/>
      <polygon class="cls-9" points="106.57 462.38 117.02 462.38 165.36 462.38 175.49 462.38 190.03 462.38 222.49 462.38 226.55 462.38 313.62 462.38 322.52 462.38 365.64 462.38 374.53 462.38 382.76 462.38 436.2 462.38 443.26 462.38 451.49 462.38 461.91 462.38 479.73 462.38 490.81 462.38 526.47 462.38 566.73 462.38 568.8 462.38 627.51 462.38 627.51 415.82 609.48 415.82 609.48 382.93 580.54 382.93 566.73 396.5 566.73 409.71 556.84 409.71 556.84 402.7 544.02 402.7 538.2 395.92 526.47 395.92 526.47 322.68 517.14 322.68 517.14 318.09 502.21 318.09 502.21 312.59 488.4 312.59 488.4 318.09 477.58 318.09 477.58 322.68 461.91 322.68 461.91 422.65 451.49 422.65 451.49 383.9 451.49 377.38 440.61 377.38 440.61 370.87 426.01 370.87 426.01 377.38 409.83 377.38 409.83 373.99 401.07 373.99 401.07 377.38 392.84 377.38 392.84 383.9 382.76 383.9 382.76 395.11 374.53 395.11 374.53 370.21 365.64 370.21 365.64 363.22 365.64 337.04 361.38 337.04 360.3 317.13 327.85 317.13 326.78 337.04 322.52 337.04 322.52 363.22 313.62 363.22 313.62 419.06 303.4 419.06 303.4 411.47 299.53 411.47 299.53 407.9 285.33 399.86 271.12 407.9 271.12 411.47 259.92 411.47 254.76 345.6 239.08 345.6 233.92 411.47 229.31 411.47 229.31 419.06 226.55 419.06 226.55 324.2 217.2 324.2 216.85 314.95 204.3 314.95 204.3 311.31 192.89 311.31 192.89 314.95 185.19 314.95 184.84 324.2 175.49 324.2 175.49 407 165.36 407 165.36 373.3 168.26 373.3 168.26 367.02 158.68 367.02 158.68 363.03 123.7 363.03 123.7 367.02 114.12 367.02 114.12 373.3 117.02 373.3 117.02 427.76 106.57 427.76 106.57 358.95 99.65 358.95 99.65 355.55 88.58 355.55 88.58 351.47 78.34 351.47 78.34 355.55 70.31 355.55 70.31 358.95 58.69 358.95 58.69 394.45 46.97 382.93 18.03 382.93 18.03 415.82 0 415.82 0 462.38 58.69 462.38 106.57 462.38"/>
    </g>
  </g>
</svg>