<?xml version="1.0" encoding="utf-8"?>
<!-- Generator: Adobe Illustrator 27.7.0, SVG Export Plug-In . SVG Version: 6.00 Build 0)  -->
<svg version="1.1" id="Layer_1" xmlns="http://www.w3.org/2000/svg" xmlns:xlink="http://www.w3.org/1999/xlink" x="0px" y="0px"
	 viewBox="0 0 595.28 841.89" style="enable-background:new 0 0 595.28 841.89;" xml:space="preserve">
<style type="text/css">
	.st0{fill:url(#XMLID_00000091722736758732459180000010137031069285145775_);}
	.st1{opacity:0.1;fill:#FFFFFF;}
	.st2{opacity:0.2;fill:#FFFFFF;}
	.st3{fill:#FFFFFF;}
	.st4{fill:#EF4336;}
	.st5{fill:#C9223F;}
	.st6{fill:#7F1336;}
	.st7{fill:#4E0D31;}
	.st8{opacity:0.15;fill:#FFFFFF;}
</style>
<g id="evening">
	
		<linearGradient id="XMLID_00000172412976915320187970000015787792199025514144_" gradientUnits="userSpaceOnUse" x1="282.2838" y1="608.8" x2="282.2838" y2="145.3">
		<stop  offset="0" style="stop-color:#FFE745"/>
		<stop  offset="1" style="stop-color:#F47C4A"/>
	</linearGradient>
	
		<rect id="XMLID_69_" x="-32.23" y="204.78" style="fill:url(#XMLID_00000172412976915320187970000015787792199025514144_);" width="629.04" height="463.5"/>
	<g id="XMLID_65_">
		<ellipse id="XMLID_68_" class="st1" cx="470.11" cy="429.75" rx="51.99" ry="51.08"/>
		<ellipse id="XMLID_67_" class="st2" cx="470.11" cy="429.75" rx="40.99" ry="40.27"/>
		<ellipse id="XMLID_66_" class="st3" cx="470.11" cy="429.75" rx="30.76" ry="30.22"/>
	</g>
	<g id="XMLID_59_">
		<g id="XMLID_63_">
			<polygon id="XMLID_64_" class="st4" points="590.05,491.05 590.05,484.44 577.97,484.44 572.49,478.05 543.65,478.05 
				543.65,484.44 534.54,484.44 534.54,491.05 527.82,491.05 527.82,535.41 515.9,535.41 515.9,430.87 467.82,445.82 467.82,483.21 
				452.94,483.21 452.94,511.44 437.47,511.44 437.47,520.05 425.85,520.05 425.85,451.53 416.7,451.53 416.7,406.9 383.49,406.9 
				383.49,451.53 374.34,451.53 374.34,492.89 365.46,484.16 340.63,484.16 340.63,512.39 335.08,512.39 335.08,487.17 
				335.08,481.83 326.16,481.83 326.16,476.48 314.19,476.48 314.19,481.83 300.91,481.83 300.91,479.05 293.73,479.05 
				293.73,481.83 286.99,481.83 286.99,487.17 278.72,487.17 278.72,496.37 275.22,496.37 275.22,421.78 268.58,421.78 
				268.58,411.11 260.16,411.11 260.16,398.27 241.33,398.27 241.33,411.11 232.92,411.11 232.92,421.78 226.27,421.78 
				226.27,497.78 196.79,497.78 196.79,437.45 187.78,437.45 187.45,428.54 175.37,428.54 175.37,425.03 164.38,425.03 
				164.38,428.54 156.96,428.54 156.63,437.45 147.62,437.45 147.62,476.07 144,476.07 139.22,470.5 114.11,470.5 114.11,476.07 
				110.04,476.07 110.04,435.89 58.69,435.89 58.69,520.05 26.58,520.05 26.58,510.95 20.63,510.95 20.63,504.32 16.59,504.32 
				12.09,446.75 -1.61,446.75 -6.12,504.32 -15.91,504.32 -15.91,501.19 -28.32,494.17 -32.23,496.38 -32.23,548.81 -31.71,548.81 
				-31.71,668.28 596.8,668.28 596.8,569.29 596.8,545.84 596.8,491.05 			"/>
		</g>
		<polygon id="XMLID_62_" class="st5" points="596.8,532.81 577.27,546.16 577.27,549.75 571.5,549.75 566.31,483.48 550.54,483.48 
			545.35,549.75 540.71,549.75 540.71,557.39 537.21,557.39 537.21,449.24 516.49,449.24 480.1,467.12 480.1,521.33 479.95,521.15 
			454.35,521.15 454.35,526.83 446.27,526.83 446.27,532.69 440.3,532.69 440.3,559.87 413.9,559.87 413.9,554.25 413.9,543.66 
			413.9,528.68 403.2,518.15 380.76,518.15 380.76,543.66 366.79,543.66 366.79,559.87 351.24,559.87 351.24,555.53 351.24,544.94 
			351.24,443.15 343.73,443.15 343.73,439.46 331.73,439.46 331.73,435.04 320.62,435.04 320.62,439.46 311.92,439.46 
			311.92,443.15 299.31,443.15 299.31,525.12 294.88,525.12 288.67,517.87 255.99,517.87 255.99,525.12 245.67,525.12 245.67,532.6 
			241.9,532.6 241.9,442.21 186.24,442.21 186.24,559.87 179.28,559.87 177.28,540.36 165.77,540.36 165.77,522.86 157.55,521.73 
			157.55,507.51 137.96,507.51 137.96,499.97 116.65,461.18 95.35,499.97 95.35,507.51 95.35,513.16 95.35,514.24 95.35,526.9 
			95.35,540.36 95.35,548.17 95.35,559.87 84.37,559.87 84.37,489.86 78.25,489.86 78.25,478.69 72.79,478.69 72.79,466.89 
			45.27,438.34 17.75,466.89 17.75,478.69 12.29,478.69 12.29,489.86 6.18,489.86 6.18,527.34 0.25,527.34 0.25,530.4 -12.37,530.4 
			-12.37,524.52 -23.75,524.52 -23.75,530.4 -32.23,530.4 -32.23,536.28 -32.23,601.2 -32.23,607.09 -31.71,607.09 -31.71,668.28 
			596.02,668.28 596.02,600.97 596.8,600.97 		"/>
		<polygon id="XMLID_61_" class="st6" points="581.74,548.86 581.74,561.94 574.18,562.98 574.18,579.07 563.78,579.07 
			563.78,522.19 566.9,522.19 566.9,515.44 556.6,515.44 556.6,511.14 518.96,511.14 518.96,515.44 508.66,515.44 508.66,522.19 
			511.78,522.19 511.78,562.79 504.42,562.79 504.42,554.62 489.49,554.62 482.71,546.72 448.52,546.72 448.52,515.49 
			448.52,490.38 436.73,478.79 436.73,443.25 410.78,443.25 410.78,490.38 391.92,490.38 391.92,562.57 386.99,562.57 382.55,557.4 
			369.59,557.4 369.59,481.02 312.58,481.02 312.58,608.8 290.04,608.8 290.04,605.42 290.04,593.01 290.04,581.34 290.04,580.34 
			290.04,575.13 290.04,568.17 270.39,532.41 250.75,568.17 250.75,575.13 232.68,575.13 232.68,588.24 225.1,589.28 225.1,605.42 
			217.13,605.42 217.13,500.34 164.33,483.92 164.33,582.57 159.9,582.57 159.9,545.87 127.62,545.87 113.48,559.77 113.48,514.17 
			73.53,494.54 50.78,494.54 50.78,548.16 39.24,548.16 31.42,539.05 -9.68,539.05 -9.68,548.16 -22.65,548.16 -22.65,557.58 
			-32.23,557.58 -32.23,608.8 -32.23,628.34 -32.23,668.28 596.8,668.28 596.8,641.01 596.8,608.8 596.8,548.86 		"/>
		<polygon id="XMLID_60_" class="st7" points="74.59,668.28 85.07,668.28 133.52,668.28 143.68,668.28 158.25,668.28 190.8,668.28 
			194.87,668.28 282.15,668.28 291.07,668.28 334.3,668.28 343.21,668.28 351.46,668.28 405.02,668.28 412.11,668.28 420.35,668.28 
			430.79,668.28 448.66,668.28 459.77,668.28 495.52,668.28 535.88,668.28 537.95,668.28 596.8,668.28 596.8,621.62 578.73,621.62 
			578.73,588.64 549.72,588.64 535.88,602.25 535.88,615.49 525.96,615.49 525.96,608.47 513.11,608.47 507.28,601.67 
			495.52,601.67 495.52,528.24 486.16,528.24 486.16,523.65 471.2,523.65 471.2,518.14 457.36,518.14 457.36,523.65 446.51,523.65 
			446.51,528.24 430.79,528.24 430.79,628.46 420.35,628.46 420.35,589.62 420.35,583.08 409.45,583.08 409.45,576.55 
			394.82,576.55 394.82,583.08 378.59,583.08 378.59,579.69 369.81,579.69 369.81,583.08 361.56,583.08 361.56,589.62 
			351.46,589.62 351.46,600.86 343.21,600.86 343.21,575.89 334.3,575.89 334.3,568.88 334.3,542.65 330.02,542.65 328.95,522.69 
			296.41,522.69 295.34,542.65 291.07,542.65 291.07,568.88 282.15,568.88 282.15,624.86 271.9,624.86 271.9,617.25 268.03,617.25 
			268.03,613.67 253.79,605.61 239.55,613.67 239.55,617.25 228.32,617.25 223.15,551.22 207.43,551.22 202.26,617.25 
			197.63,617.25 197.63,624.86 194.87,624.86 194.87,529.77 185.49,529.77 185.15,520.5 172.56,520.5 172.56,516.85 161.13,516.85 
			161.13,520.5 153.4,520.5 153.06,529.77 143.68,529.77 143.68,612.77 133.52,612.77 133.52,578.99 136.43,578.99 136.43,572.7 
			126.83,572.7 126.83,568.69 91.77,568.69 91.77,572.7 82.16,572.7 82.16,578.99 85.07,578.99 85.07,633.58 74.59,633.58 
			74.59,564.6 67.66,564.6 67.66,561.19 56.56,561.19 56.56,557.11 46.3,557.11 46.3,561.19 38.25,561.19 38.25,564.6 26.6,564.6 
			26.6,600.19 14.85,588.64 -14.16,588.64 -14.16,621.62 -32.23,621.62 -32.23,668.28 26.6,668.28 		"/>
	</g>
	<g id="XMLID_16_">
		<path id="XMLID_156_" class="st4" d="M495.52,413.34c-0.59,0.35-1.38,0.91-1.94,1.59c-0.56-0.69-1.35-1.24-1.94-1.59
			c-0.38-0.23-0.88-0.08-1.07,0.31l0,0c-0.18,0.34-0.06,0.76,0.27,0.97c0.63,0.38,1.3,0.9,1.66,1.39c0.25,0.34,0.65,0.53,1.08,0.49
			l0,0l0,0c0.43,0.04,0.83-0.16,1.08-0.5c0.36-0.48,1.03-1,1.66-1.38c0.33-0.2,0.45-0.62,0.28-0.97l0,0
			C496.4,413.26,495.9,413.11,495.52,413.34z"/>
		<path id="XMLID_155_" class="st4" d="M503.59,419.99c-0.59,0.35-1.38,0.91-1.94,1.59c-0.56-0.69-1.35-1.24-1.94-1.59
			c-0.38-0.23-0.87-0.08-1.07,0.31l0,0c-0.18,0.34-0.06,0.77,0.28,0.97c0.64,0.39,1.3,0.9,1.66,1.38c0.25,0.34,0.65,0.54,1.08,0.5h0
			l0,0c0.43,0.04,0.83-0.16,1.08-0.5c0.36-0.49,1.03-1,1.66-1.38c0.33-0.2,0.45-0.62,0.28-0.97l0,0
			C504.47,419.91,503.97,419.76,503.59,419.99z"/>
		<path id="XMLID_154_" class="st4" d="M510.1,410.73c-0.59,0.35-1.38,0.91-1.94,1.59c-0.56-0.69-1.35-1.24-1.94-1.59
			c-0.38-0.23-0.87-0.08-1.07,0.31l0,0c-0.18,0.34-0.06,0.77,0.28,0.97c0.64,0.39,1.3,0.9,1.66,1.38c0.25,0.34,0.65,0.54,1.08,0.5
			l0,0h0c0.43,0.04,0.83-0.16,1.08-0.5c0.36-0.49,1.03-1,1.66-1.38c0.33-0.2,0.45-0.62,0.28-0.97l0,0
			C510.97,410.65,510.48,410.51,510.1,410.73z"/>
	</g>
	<path id="XMLID_177_" class="st8" d="M166.19,367.3c-0.44,0-0.87,0.05-1.3,0.12c0.03-0.39,0.06-0.78,0.06-1.18
		c0-8.18-6.75-14.82-15.08-14.82c-6.56,0-12.13,4.13-14.21,9.88c-1.53-0.88-3.3-1.39-5.2-1.39c-3.59,0-6.73,1.82-8.58,4.55
		c-2.09-1.37-4.59-2.19-7.29-2.19c-0.8,0-1.59,0.08-2.35,0.22c0.06-0.71,0.11-1.41,0.11-2.13c0-14.84-12.24-26.87-27.35-26.87
		c-11.9,0-22,7.48-25.76,17.91c-2.77-1.59-5.99-2.52-9.43-2.52c-9.04,0-16.58,6.29-18.34,14.67c-1.71-0.81-3.63-1.27-5.65-1.27
		c-6.67,0-12.16,4.88-13.02,11.2h97.24h17.55h45.76C172.9,370,169.87,367.3,166.19,367.3z"/>
	<path id="XMLID_190_" class="st8" d="M517.34,344.27c0.01-0.21,0.03-0.41,0.03-0.62c0-8.56-7.07-15.5-15.78-15.5
		c-6.87,0-12.69,4.32-14.86,10.34c-1.6-0.92-3.45-1.45-5.44-1.45c-3.76,0-7.05,1.9-8.98,4.76c-2.18-1.44-4.8-2.29-7.63-2.29
		c-0.84,0-1.66,0.09-2.46,0.23c0.06-0.74,0.11-1.48,0.11-2.23c0-15.53-12.81-28.11-28.62-28.11c-12.45,0-23.02,7.83-26.95,18.74
		c-2.9-1.67-6.26-2.64-9.86-2.64c-9.46,0-17.35,6.59-19.19,15.35c-1.79-0.84-3.8-1.33-5.92-1.33c-4.19,0-7.94,1.85-10.46,4.76
		H517.34z"/>
	<path id="XMLID_176_" class="st8" d="M322.34,292.02c0-5.42-4.47-9.82-9.99-9.82c-2.25,0-4.32,0.74-5.99,1.97
		c-1.51-5.32-6.46-9.22-12.36-9.22c-6.62,0-12.06,4.92-12.76,11.24c-1.39-1.11-3.13-1.81-5.06-1.81c-0.15,0-0.28,0.03-0.43,0.04
		c0.28-1.31,0.43-2.67,0.43-4.07c0-10.95-9.04-19.83-20.18-19.83c-9.64,0-17.68,6.64-19.69,15.51c-1.59-0.7-3.35-1.09-5.21-1.09
		c-6.3,0-11.53,4.46-12.62,10.34c-1.11-0.56-2.34-0.91-3.67-0.91c-4.35,0-7.87,3.4-8.01,7.64H306l0,0H322.34z"/>
</g>
</svg>
