<?xml version="1.0" encoding="utf-8"?>
<!-- Generator: Adobe Illustrator 27.7.0, SVG Export Plug-In . SVG Version: 6.00 Build 0)  -->
<svg version="1.1" id="Layer_1" xmlns="http://www.w3.org/2000/svg" xmlns:xlink="http://www.w3.org/1999/xlink" x="0px" y="0px"
	 viewBox="0 0 900 376.76" style="enable-background:new 0 0 900 376.76;" xml:space="preserve">
<style type="text/css">
	.st0{fill:#00F2FF;}
	.st1{fill:#2F7999;}
	.st2{fill:#00D7EB;}
	.st3{fill:#25A5CC;}
	.st4{opacity:0.5;fill:#2CE5E8;}
	.st5{fill:#91EDFA;}
	.st6{fill:#FFFFFF;}
	.st7{fill:#2284BD;}
	.st8{fill:#9EEEFA;}
	.st9{fill:#FF8585;}
	.st10{fill:#D65454;}
	.st11{fill:#D65353;}
	.st12{fill:#CF9C65;}
	.st13{fill:#A1794E;}
	.st14{fill:#EB6565;}
</style>
<rect id="XMLID_1_" class="st0" width="900" height="343.9"/>
<rect id="XMLID_33_" y="343.9" class="st1" width="900" height="32.86"/>
<g id="XMLID_1702_">
	<polygon id="XMLID_1710_" class="st2" points="567.08,228.54 567.08,343.9 615.3,343.9 615.3,228.54 605.68,211.42 576.7,211.42 	
		"/>
	<polygon id="XMLID_1709_" class="st2" points="530.9,158.86 531.08,158.94 531.08,343.9 494.92,343.9 494.92,343.9 422.6,343.9 
		422.6,343.9 422.6,133.08 422.6,130.89 422.6,124.3 458.76,124.3 	"/>
	<polygon id="XMLID_1708_" class="st2" points="628.62,174.75 628.62,174.38 628.89,174.38 642,156.74 683.18,156.74 687.97,156.74 
		690.61,156.74 703.71,174.38 703.98,174.38 703.98,191.74 708.37,191.74 708.37,196.72 708.37,198.97 708.37,343.9 676.37,343.9 
		671.15,343.9 626.3,343.9 626.3,198.97 626.3,196.72 626.3,191.74 628.62,191.74 	"/>
	<polygon id="XMLID_1707_" class="st2" points="111.35,223.19 111.35,222.93 111.55,222.93 120.9,210.35 150.29,210.35 
		153.7,210.35 155.59,210.35 164.94,222.93 165.13,222.93 165.13,235.32 168.26,235.32 168.26,238.87 168.26,240.48 168.26,343.9 
		145.42,343.9 141.7,343.9 109.69,343.9 109.69,240.48 109.69,238.87 109.69,235.32 111.35,235.32 	"/>
	<polygon id="XMLID_1706_" class="st2" points="727.84,236.55 739.27,221.17 741.57,221.17 745.75,221.17 790.83,221.17 
		802.26,236.55 802.49,236.55 802.49,236.87 802.49,244.24 802.49,252.47 802.49,258.85 802.49,267.09 802.49,273.47 802.49,281.71 
		802.49,288.09 802.49,296.33 802.49,302.71 802.49,310.95 802.49,317.33 802.49,325.57 802.49,343.9 757.41,343.9 753.24,343.9 
		727.61,343.9 727.61,236.55 	"/>
	<polygon id="XMLID_1705_" class="st2" points="690.33,270.42 698.15,259.89 699.73,259.89 702.58,259.89 733.44,259.89 
		741.26,270.42 741.43,270.42 741.43,270.63 741.43,275.68 741.43,281.32 741.43,285.68 741.43,291.32 741.43,295.69 741.43,301.33 
		741.43,305.7 741.43,311.34 741.43,315.7 741.43,321.34 741.43,325.71 741.43,331.35 741.43,343.9 710.57,343.9 707.71,343.9 
		690.16,343.9 690.16,270.42 	"/>
	<polygon id="XMLID_1704_" class="st2" points="777.03,313.45 784.85,302.92 786.42,302.92 789.28,302.92 848.83,302.92 
		856.65,313.45 856.81,313.45 856.81,313.67 856.81,343.9 776.86,343.9 776.86,313.45 	"/>
	<polygon id="XMLID_1703_" class="st2" points="324.04,91.7 337.14,74.07 339.78,74.07 344.57,74.07 396.27,74.07 409.37,91.7 
		409.64,91.7 409.64,92.07 409.64,343.9 323.77,343.9 323.77,91.7 	"/>
</g>
<g id="XMLID_1672_">
	<rect id="XMLID_1701_" x="392.51" y="193.98" class="st3" width="97.68" height="149.92"/>
	<g id="XMLID_1698_">
		<polygon id="XMLID_1700_" class="st4" points="490.19,193.98 490.19,223.93 392.52,321.61 392.52,255.4 453.93,193.98 		"/>
		<polygon id="XMLID_1699_" class="st4" points="490.19,242.24 490.19,275.33 421.63,343.9 392.52,343.9 392.52,339.92 		"/>
	</g>
	<rect id="XMLID_1697_" x="490.12" y="193.98" class="st3" width="46.55" height="149.92"/>
	<g id="XMLID_1694_">
		<rect id="XMLID_1696_" x="392.51" y="193.98" class="st5" width="97.61" height="13.21"/>
		<rect id="XMLID_1695_" x="392.51" y="207.19" class="st3" width="97.61" height="3.49"/>
	</g>
	<g id="XMLID_1691_">
		<rect id="XMLID_1693_" x="392.51" y="224.6" class="st5" width="97.61" height="13.21"/>
		<rect id="XMLID_1692_" x="392.51" y="237.8" class="st3" width="97.61" height="3.49"/>
	</g>
	<g id="XMLID_1688_">
		<rect id="XMLID_1690_" x="392.51" y="255.21" class="st5" width="97.61" height="13.21"/>
		<rect id="XMLID_1689_" x="392.51" y="268.42" class="st3" width="97.61" height="3.49"/>
	</g>
	<g id="XMLID_1685_">
		<rect id="XMLID_1687_" x="392.51" y="285.83" class="st5" width="97.61" height="13.21"/>
		<rect id="XMLID_1686_" x="392.51" y="299.03" class="st3" width="97.61" height="3.49"/>
	</g>
	<g id="XMLID_1682_">
		<rect id="XMLID_1684_" x="392.51" y="316.44" class="st5" width="97.61" height="13.21"/>
		<rect id="XMLID_1683_" x="392.51" y="329.65" class="st3" width="97.61" height="3.49"/>
	</g>
	<rect id="XMLID_1681_" x="392.51" y="186.44" class="st5" width="144.15" height="7.54"/>
	<rect id="XMLID_1680_" x="490.12" y="186.44" class="st3" width="46.55" height="7.54"/>
	<rect id="XMLID_1679_" x="490.12" y="186.44" class="st5" width="6.55" height="157.46"/>
	<rect id="XMLID_1678_" x="392.51" y="186.44" class="st5" width="6.55" height="157.46"/>
	<rect id="XMLID_1677_" x="399.06" y="224.6" class="st6" width="91.06" height="1.53"/>
	<rect id="XMLID_1676_" x="399.06" y="255.21" class="st6" width="91.06" height="1.53"/>
	<rect id="XMLID_1675_" x="399.06" y="285.83" class="st6" width="91.06" height="1.53"/>
	<rect id="XMLID_1674_" x="399.06" y="316.44" class="st6" width="91.06" height="1.53"/>
	<rect id="XMLID_1673_" x="392.51" y="186.44" class="st6" width="104.16" height="3.77"/>
</g>
<g id="XMLID_1642_">
	
		<rect id="XMLID_1671_" x="672.07" y="245.34" transform="matrix(-1 -1.224647e-16 1.224647e-16 -1 1408.3533 589.2415)" class="st3" width="64.21" height="98.55"/>
	<g id="XMLID_1668_">
		<polygon id="XMLID_1670_" class="st4" points="672.07,245.34 672.07,265.03 736.28,329.24 736.28,285.72 695.91,245.34 		"/>
		<polygon id="XMLID_1669_" class="st4" points="672.07,277.07 672.07,298.82 717.14,343.9 736.28,343.9 736.28,341.28 		"/>
	</g>
	
		<rect id="XMLID_1667_" x="555.45" y="245.34" transform="matrix(-1 -1.224647e-16 1.224647e-16 -1 1227.5657 589.2415)" class="st7" width="116.67" height="98.55"/>
	<g id="XMLID_1664_">
		
			<rect id="XMLID_1666_" x="672.12" y="245.34" transform="matrix(-1 -1.224647e-16 1.224647e-16 -1 1408.3969 499.3709)" class="st5" width="64.17" height="8.68"/>
		
			<rect id="XMLID_1665_" x="672.12" y="254.03" transform="matrix(-1 -1.224647e-16 1.224647e-16 -1 1408.3969 510.3469)" class="st3" width="64.17" height="2.29"/>
	</g>
	<g id="XMLID_1661_">
		
			<rect id="XMLID_1663_" x="672.12" y="265.47" transform="matrix(-1 -1.224647e-16 1.224647e-16 -1 1408.3969 539.6229)" class="st5" width="64.17" height="8.68"/>
		
			<rect id="XMLID_1662_" x="672.12" y="274.15" transform="matrix(-1 -1.224647e-16 1.224647e-16 -1 1408.3969 550.5989)" class="st3" width="64.17" height="2.29"/>
	</g>
	<g id="XMLID_1658_">
		
			<rect id="XMLID_1660_" x="672.12" y="285.6" transform="matrix(-1 -1.224647e-16 1.224647e-16 -1 1408.3969 579.8751)" class="st5" width="64.17" height="8.68"/>
		
			<rect id="XMLID_1659_" x="672.12" y="294.28" transform="matrix(-1 -1.224647e-16 1.224647e-16 -1 1408.3969 590.8511)" class="st3" width="64.17" height="2.29"/>
	</g>
	<g id="XMLID_1655_">
		
			<rect id="XMLID_1657_" x="672.12" y="305.72" transform="matrix(-1 -1.224647e-16 1.224647e-16 -1 1408.3969 620.1271)" class="st5" width="64.17" height="8.68"/>
		
			<rect id="XMLID_1656_" x="672.12" y="314.4" transform="matrix(-1 -1.224647e-16 1.224647e-16 -1 1408.3969 631.1031)" class="st3" width="64.17" height="2.29"/>
	</g>
	<g id="XMLID_1652_">
		
			<rect id="XMLID_1654_" x="672.12" y="325.85" transform="matrix(-1 -1.224647e-16 1.224647e-16 -1 1408.3969 660.3793)" class="st5" width="64.17" height="8.68"/>
		
			<rect id="XMLID_1653_" x="672.12" y="334.53" transform="matrix(-1 -1.224647e-16 1.224647e-16 -1 1408.3969 671.3553)" class="st3" width="64.17" height="2.29"/>
	</g>
	
		<rect id="XMLID_1651_" x="555.45" y="240.39" transform="matrix(-1 -1.224647e-16 1.224647e-16 -1 1291.7318 485.7339)" class="st5" width="180.83" height="4.96"/>
	
		<rect id="XMLID_1650_" x="555.45" y="240.39" transform="matrix(-1 -1.224647e-16 1.224647e-16 -1 1227.5657 485.7339)" class="st3" width="116.67" height="4.96"/>
	
		<rect id="XMLID_1649_" x="667.81" y="240.39" transform="matrix(-1 -1.224647e-16 1.224647e-16 -1 1339.9271 584.2862)" class="st5" width="4.3" height="103.51"/>
	
		<rect id="XMLID_1648_" x="731.98" y="240.39" transform="matrix(-1 -1.224647e-16 1.224647e-16 -1 1468.2594 584.2862)" class="st5" width="4.3" height="103.51"/>
	
		<rect id="XMLID_1647_" x="672.12" y="265.47" transform="matrix(-1 -1.224647e-16 1.224647e-16 -1 1404.0933 531.9469)" class="st6" width="59.86" height="1.01"/>
	
		<rect id="XMLID_1646_" x="672.12" y="285.6" transform="matrix(-1 -1.224647e-16 1.224647e-16 -1 1404.0933 572.1991)" class="st6" width="59.86" height="1.01"/>
	
		<rect id="XMLID_1645_" x="672.12" y="305.72" transform="matrix(-1 -1.224647e-16 1.224647e-16 -1 1404.0933 612.4511)" class="st6" width="59.86" height="1.01"/>
	
		<rect id="XMLID_1644_" x="672.12" y="325.85" transform="matrix(-1 -1.224647e-16 1.224647e-16 -1 1404.0933 652.7033)" class="st6" width="59.86" height="1.01"/>
	
		<rect id="XMLID_1643_" x="667.81" y="240.39" transform="matrix(-1 -1.224647e-16 1.224647e-16 -1 1404.0931 483.2562)" class="st6" width="68.47" height="2.48"/>
</g>
<g id="XMLID_1622_">
	<polygon id="XMLID_1641_" class="st3" points="379.46,44.16 280.99,91.32 280.75,91.43 280.75,343.9 231.39,343.9 231.39,91.43 
		231.63,91.32 330.1,44.16 	"/>
	<polygon id="XMLID_1640_" class="st6" points="379.46,44.16 379.46,91.32 231.63,91.32 330.1,44.16 	"/>
	<polygon id="XMLID_1639_" class="st8" points="379.46,44.16 379.46,343.9 280.75,343.9 280.75,91.43 280.99,91.32 	"/>
	<polygon id="XMLID_1638_" class="st3" points="379.46,53.15 379.46,56.14 299.77,94.3 280.99,103.3 280.75,103.41 280.75,100.43 
		280.99,100.31 299.77,91.32 	"/>
	<polygon id="XMLID_1637_" class="st5" points="379.46,56.14 379.46,343.9 280.75,343.9 280.75,103.41 280.99,103.3 299.77,94.3 	
		"/>
	<polygon id="XMLID_1636_" class="st5" points="379.46,56.14 379.46,343.9 280.75,343.9 280.75,103.41 280.99,103.3 299.77,94.3 	
		"/>
	<polygon id="XMLID_1635_" class="st4" points="379.46,97.34 379.46,153.66 280.75,252.38 280.75,196.07 	"/>
	<polygon id="XMLID_1634_" class="st4" points="379.46,169.23 379.46,197.39 280.75,296.12 280.75,267.96 	"/>
	<rect id="XMLID_1633_" x="231.4" y="124.3" class="st3" width="148.06" height="3.2"/>
	<rect id="XMLID_1632_" x="231.4" y="146.98" class="st3" width="148.06" height="3.2"/>
	<rect id="XMLID_1631_" x="231.4" y="169.65" class="st3" width="148.06" height="3.2"/>
	<rect id="XMLID_1630_" x="231.4" y="192.33" class="st3" width="148.06" height="3.2"/>
	<rect id="XMLID_1629_" x="231.4" y="215" class="st3" width="148.06" height="3.2"/>
	<rect id="XMLID_1628_" x="231.4" y="237.67" class="st3" width="148.06" height="3.2"/>
	<rect id="XMLID_1627_" x="231.4" y="260.35" class="st3" width="148.06" height="3.2"/>
	<rect id="XMLID_1626_" x="231.4" y="283.02" class="st3" width="148.06" height="3.2"/>
	<rect id="XMLID_1625_" x="231.4" y="305.69" class="st3" width="148.06" height="3.2"/>
	<rect id="XMLID_1624_" x="231.4" y="328.37" class="st3" width="148.06" height="3.2"/>
	<rect id="XMLID_1623_" x="231.63" y="91.32" class="st5" width="49.11" height="9"/>
</g>
<g id="XMLID_1541_">
	
		<rect id="XMLID_1621_" x="562.32" y="136.2" transform="matrix(-1 -1.224647e-16 1.224647e-16 -1 1192.9912 480.1015)" class="st3" width="68.34" height="207.69"/>
	
		<rect id="XMLID_1620_" x="518.63" y="136.2" transform="matrix(-1 -1.224647e-16 1.224647e-16 -1 1088.0752 480.1015)" class="st5" width="50.81" height="207.69"/>
	
		<rect id="XMLID_1619_" x="564.74" y="112.51" transform="matrix(-1 -1.224647e-16 1.224647e-16 -1 1192.2317 249.5951)" class="st3" width="62.75" height="24.57"/>
	
		<rect id="XMLID_1618_" x="524.62" y="112.51" transform="matrix(-1 -1.224647e-16 1.224647e-16 -1 1095.9011 249.5951)" class="st5" width="46.65" height="24.57"/>
	<polygon id="XMLID_1617_" class="st3" points="564.74,113.01 627.49,113.01 609.24,88.44 546.48,88.44 	"/>
	<polygon id="XMLID_1616_" class="st6" points="564.74,113.01 627.49,113.01 609.24,88.44 546.48,88.44 	"/>
	<polygon id="XMLID_1615_" class="st5" points="524.62,113.01 571.28,113.01 553.02,88.44 542.88,88.44 	"/>
	<g id="XMLID_1611_">
		
			<rect id="XMLID_1614_" x="615.07" y="157.71" transform="matrix(-1 -1.224647e-16 1.224647e-16 -1 1240.7506 334.7062)" class="st3" width="10.62" height="19.28"/>
		
			<rect id="XMLID_1613_" x="596.19" y="157.71" transform="matrix(-1 -1.224647e-16 1.224647e-16 -1 1202.9974 334.7062)" class="st3" width="10.62" height="19.28"/>
		
			<rect id="XMLID_1612_" x="577.31" y="157.71" transform="matrix(-1 -1.224647e-16 1.224647e-16 -1 1165.2441 334.7062)" class="st3" width="10.62" height="19.28"/>
	</g>
	<g id="XMLID_1607_">
		
			<rect id="XMLID_1610_" x="615.07" y="194.23" transform="matrix(-1 -1.224647e-16 1.224647e-16 -1 1240.7506 407.7424)" class="st3" width="10.62" height="19.28"/>
		
			<rect id="XMLID_1609_" x="596.19" y="194.23" transform="matrix(-1 -1.224647e-16 1.224647e-16 -1 1202.9974 407.7424)" class="st3" width="10.62" height="19.28"/>
		
			<rect id="XMLID_1608_" x="577.31" y="194.23" transform="matrix(-1 -1.224647e-16 1.224647e-16 -1 1165.2441 407.7424)" class="st3" width="10.62" height="19.28"/>
	</g>
	<g id="XMLID_1603_">
		
			<rect id="XMLID_1606_" x="615.07" y="230.75" transform="matrix(-1 -1.224647e-16 1.224647e-16 -1 1240.7506 480.7786)" class="st3" width="10.62" height="19.28"/>
		
			<rect id="XMLID_1605_" x="596.19" y="230.75" transform="matrix(-1 -1.224647e-16 1.224647e-16 -1 1202.9974 480.7786)" class="st3" width="10.62" height="19.28"/>
		
			<rect id="XMLID_1604_" x="577.31" y="230.75" transform="matrix(-1 -1.224647e-16 1.224647e-16 -1 1165.2441 480.7786)" class="st3" width="10.62" height="19.28"/>
	</g>
	<g id="XMLID_1599_">
		
			<rect id="XMLID_1602_" x="615.07" y="267.27" transform="matrix(-1 -1.224647e-16 1.224647e-16 -1 1240.7506 553.8148)" class="st3" width="10.62" height="19.28"/>
		
			<rect id="XMLID_1601_" x="596.19" y="267.27" transform="matrix(-1 -1.224647e-16 1.224647e-16 -1 1202.9974 553.8148)" class="st3" width="10.62" height="19.28"/>
		
			<rect id="XMLID_1600_" x="577.31" y="267.27" transform="matrix(-1 -1.224647e-16 1.224647e-16 -1 1165.2441 553.8148)" class="st3" width="10.62" height="19.28"/>
	</g>
	<g id="XMLID_1595_">
		
			<rect id="XMLID_1598_" x="615.07" y="303.79" transform="matrix(-1 -1.224647e-16 1.224647e-16 -1 1240.7506 626.851)" class="st3" width="10.62" height="19.28"/>
		
			<rect id="XMLID_1597_" x="596.19" y="303.79" transform="matrix(-1 -1.224647e-16 1.224647e-16 -1 1202.9974 626.851)" class="st3" width="10.62" height="19.28"/>
		
			<rect id="XMLID_1596_" x="577.31" y="303.79" transform="matrix(-1 -1.224647e-16 1.224647e-16 -1 1165.2441 626.851)" class="st3" width="10.62" height="19.28"/>
	</g>
	
		<rect id="XMLID_1594_" x="518.63" y="143.01" transform="matrix(-1 -1.224647e-16 1.224647e-16 -1 1149.3005 289.0778)" class="st3" width="112.04" height="3.07"/>
	<g id="XMLID_1590_">
		<rect id="XMLID_1593_" x="534.54" y="115.37" class="st3" width="5.31" height="12.9"/>
		<rect id="XMLID_1592_" x="541.95" y="115.37" class="st3" width="9.08" height="12.9"/>
		<rect id="XMLID_1591_" x="553.12" y="115.37" class="st3" width="5.31" height="12.9"/>
	</g>
	<g id="XMLID_1588_">
		<rect id="XMLID_1589_" x="577.61" y="118.35" class="st3" width="5.01" height="12.9"/>
	</g>
	<g id="XMLID_1586_">
		<rect id="XMLID_1587_" x="591.1" y="118.35" class="st3" width="5.01" height="12.9"/>
	</g>
	<g id="XMLID_1584_">
		<rect id="XMLID_1585_" x="604.6" y="118.35" class="st3" width="5.01" height="12.9"/>
	</g>
	<g id="XMLID_1582_">
		<rect id="XMLID_1583_" x="618.09" y="118.35" class="st3" width="5.01" height="12.9"/>
	</g>
	<g id="XMLID_1574_">
		<g id="XMLID_1578_">
			<g id="XMLID_1579_">
				
					<rect id="XMLID_1581_" x="548.11" y="157.71" transform="matrix(-1 -1.224647e-16 1.224647e-16 -1 1106.8307 334.7062)" class="st3" width="10.62" height="19.28"/>
				
					<rect id="XMLID_1580_" x="529.23" y="157.71" transform="matrix(-1 -1.224647e-16 1.224647e-16 -1 1069.0773 334.7062)" class="st3" width="10.62" height="19.28"/>
			</g>
		</g>
		<g id="XMLID_1575_">
			<rect id="XMLID_1577_" x="529.29" y="174.24" class="st6" width="10.63" height="2.75"/>
			<rect id="XMLID_1576_" x="548.16" y="174.24" class="st6" width="10.63" height="2.75"/>
		</g>
	</g>
	<g id="XMLID_1566_">
		<g id="XMLID_1570_">
			<g id="XMLID_1571_">
				
					<rect id="XMLID_1573_" x="548.11" y="194.23" transform="matrix(-1 -1.224647e-16 1.224647e-16 -1 1106.8307 407.7366)" class="st3" width="10.62" height="19.28"/>
				
					<rect id="XMLID_1572_" x="529.23" y="194.23" transform="matrix(-1 -1.224647e-16 1.224647e-16 -1 1069.0773 407.7366)" class="st3" width="10.62" height="19.28"/>
			</g>
		</g>
		<g id="XMLID_1567_">
			<rect id="XMLID_1569_" x="529.29" y="210.76" class="st6" width="10.63" height="2.75"/>
			<rect id="XMLID_1568_" x="548.16" y="210.76" class="st6" width="10.63" height="2.75"/>
		</g>
	</g>
	<g id="XMLID_1558_">
		<g id="XMLID_1562_">
			<g id="XMLID_1563_">
				
					<rect id="XMLID_1565_" x="548.11" y="230.74" transform="matrix(-1 -1.224647e-16 1.224647e-16 -1 1106.8307 480.767)" class="st3" width="10.62" height="19.28"/>
				
					<rect id="XMLID_1564_" x="529.23" y="230.74" transform="matrix(-1 -1.224647e-16 1.224647e-16 -1 1069.0773 480.767)" class="st3" width="10.62" height="19.28"/>
			</g>
		</g>
		<g id="XMLID_1559_">
			<rect id="XMLID_1561_" x="529.29" y="247.27" class="st6" width="10.63" height="2.75"/>
			<rect id="XMLID_1560_" x="548.16" y="247.27" class="st6" width="10.63" height="2.75"/>
		</g>
	</g>
	<g id="XMLID_1550_">
		<g id="XMLID_1554_">
			<g id="XMLID_1555_">
				
					<rect id="XMLID_1557_" x="548.11" y="267.26" transform="matrix(-1 -1.224647e-16 1.224647e-16 -1 1106.8307 553.7974)" class="st3" width="10.62" height="19.28"/>
				
					<rect id="XMLID_1556_" x="529.23" y="267.26" transform="matrix(-1 -1.224647e-16 1.224647e-16 -1 1069.0773 553.7974)" class="st3" width="10.62" height="19.28"/>
			</g>
		</g>
		<g id="XMLID_1551_">
			<rect id="XMLID_1553_" x="529.29" y="283.79" class="st6" width="10.63" height="2.75"/>
			<rect id="XMLID_1552_" x="548.16" y="283.79" class="st6" width="10.63" height="2.75"/>
		</g>
	</g>
	<g id="XMLID_1542_">
		<g id="XMLID_1546_">
			<g id="XMLID_1547_">
				
					<rect id="XMLID_1549_" x="548.11" y="303.78" transform="matrix(-1 -1.224647e-16 1.224647e-16 -1 1106.8307 626.8277)" class="st3" width="10.62" height="19.28"/>
				
					<rect id="XMLID_1548_" x="529.23" y="303.78" transform="matrix(-1 -1.224647e-16 1.224647e-16 -1 1069.0773 626.8277)" class="st3" width="10.62" height="19.28"/>
			</g>
		</g>
		<g id="XMLID_1543_">
			<rect id="XMLID_1545_" x="529.29" y="320.3" class="st6" width="10.63" height="2.75"/>
			<rect id="XMLID_1544_" x="548.16" y="320.3" class="st6" width="10.63" height="2.75"/>
		</g>
	</g>
</g>
<g id="XMLID_1498_">
	<rect id="XMLID_1540_" x="138.98" y="175.88" class="st3" width="77.1" height="168.02"/>
	<rect id="XMLID_1539_" x="209.54" y="175.88" class="st5" width="46.65" height="168.02"/>
	<polygon id="XMLID_1538_" class="st3" points="216.08,176.38 138.98,176.38 157.23,151.81 234.33,151.81 	"/>
	<polygon id="XMLID_1537_" class="st6" points="216.08,176.38 138.98,176.38 157.23,151.81 234.33,151.81 	"/>
	<polygon id="XMLID_1536_" class="st5" points="256.19,176.38 209.54,176.38 227.79,151.81 237.94,151.81 	"/>
	<g id="XMLID_1534_">
		
			<rect id="XMLID_1535_" x="138.98" y="187.91" transform="matrix(-1 -1.224647e-16 1.224647e-16 -1 334.8694 388.7086)" class="st3" width="56.91" height="12.9"/>
	</g>
	<g id="XMLID_1532_">
		
			<rect id="XMLID_1533_" x="138.98" y="210.79" transform="matrix(-1 -1.224647e-16 1.224647e-16 -1 334.8694 434.4718)" class="st3" width="56.91" height="12.9"/>
	</g>
	<g id="XMLID_1530_">
		
			<rect id="XMLID_1531_" x="138.98" y="233.67" transform="matrix(-1 -1.224647e-16 1.224647e-16 -1 334.8694 480.2351)" class="st3" width="56.91" height="12.9"/>
	</g>
	<g id="XMLID_1528_">
		
			<rect id="XMLID_1529_" x="138.98" y="256.55" transform="matrix(-1 -1.224647e-16 1.224647e-16 -1 334.8694 525.9984)" class="st3" width="56.91" height="12.9"/>
	</g>
	<g id="XMLID_1526_">
		
			<rect id="XMLID_1527_" x="138.98" y="279.43" transform="matrix(-1 -1.224647e-16 1.224647e-16 -1 334.8694 571.7616)" class="st3" width="56.91" height="12.9"/>
	</g>
	<g id="XMLID_1524_">
		
			<rect id="XMLID_1525_" x="138.98" y="302.31" transform="matrix(-1 -1.224647e-16 1.224647e-16 -1 334.8694 617.5249)" class="st3" width="56.91" height="12.9"/>
	</g>
	<g id="XMLID_1519_">
		<g id="XMLID_1522_">
			
				<rect id="XMLID_1523_" x="229.79" y="181.46" transform="matrix(-1 -1.224647e-16 1.224647e-16 -1 468.661 375.8127)" class="st3" width="9.08" height="12.9"/>
		</g>
		<g id="XMLID_1520_">
			
				<rect id="XMLID_1521_" x="229.79" y="191.29" transform="matrix(-1 -1.224647e-16 1.224647e-16 -1 468.661 385.6488)" class="st6" width="9.08" height="3.06"/>
		</g>
	</g>
	<g id="XMLID_1514_">
		<g id="XMLID_1517_">
			
				<rect id="XMLID_1518_" x="229.79" y="213.43" transform="matrix(-1 -1.224647e-16 1.224647e-16 -1 468.661 439.7541)" class="st3" width="9.08" height="12.9"/>
		</g>
		<g id="XMLID_1515_">
			
				<rect id="XMLID_1516_" x="229.79" y="223.27" transform="matrix(-1 -1.224647e-16 1.224647e-16 -1 468.661 449.5902)" class="st6" width="9.08" height="3.06"/>
		</g>
	</g>
	<g id="XMLID_1509_">
		<g id="XMLID_1512_">
			
				<rect id="XMLID_1513_" x="229.79" y="245.4" transform="matrix(-1 -1.224647e-16 1.224647e-16 -1 468.661 503.6955)" class="st3" width="9.08" height="12.9"/>
		</g>
		<g id="XMLID_1510_">
			
				<rect id="XMLID_1511_" x="229.79" y="255.24" transform="matrix(-1 -1.224647e-16 1.224647e-16 -1 468.661 513.5316)" class="st6" width="9.08" height="3.06"/>
		</g>
	</g>
	<g id="XMLID_1504_">
		<g id="XMLID_1507_">
			
				<rect id="XMLID_1508_" x="229.79" y="277.37" transform="matrix(-1 -1.224647e-16 1.224647e-16 -1 468.661 567.6369)" class="st3" width="9.08" height="12.9"/>
		</g>
		<g id="XMLID_1505_">
			
				<rect id="XMLID_1506_" x="229.79" y="287.21" transform="matrix(-1 -1.224647e-16 1.224647e-16 -1 468.661 577.473)" class="st6" width="9.08" height="3.06"/>
		</g>
	</g>
	<g id="XMLID_1499_">
		<g id="XMLID_1502_">
			
				<rect id="XMLID_1503_" x="229.79" y="309.34" transform="matrix(-1 -1.224647e-16 1.224647e-16 -1 468.661 631.5783)" class="st3" width="9.08" height="12.9"/>
		</g>
		<g id="XMLID_1500_">
			
				<rect id="XMLID_1501_" x="229.79" y="319.18" transform="matrix(-1 -1.224647e-16 1.224647e-16 -1 468.661 641.4144)" class="st6" width="9.08" height="3.06"/>
		</g>
	</g>
</g>
<g id="XMLID_1475_">
	<rect id="XMLID_1497_" x="306.62" y="307.29" class="st3" width="133.81" height="36.6"/>
	<g id="XMLID_1494_">
		<polygon id="XMLID_1496_" class="st4" points="413.29,307.29 407.01,313.57 399.92,320.67 376.69,343.9 320.11,343.9 
			356.72,307.29 		"/>
		<polygon id="XMLID_1495_" class="st4" points="440.43,307.29 440.43,324.1 420.63,343.9 392.35,343.9 428.94,307.29 		"/>
	</g>
	<rect id="XMLID_1493_" x="306.63" y="307.29" class="st3" width="133.8" height="13.37"/>
	<rect id="XMLID_1492_" x="301.03" y="307.29" class="st9" width="144.99" height="6.28"/>
	<g id="XMLID_1487_">
		<g id="XMLID_1489_">
			<rect id="XMLID_1491_" x="306.62" y="313.57" class="st9" width="4.7" height="30.33"/>
			<rect id="XMLID_1490_" x="306.62" y="313.57" class="st10" width="4.7" height="3.88"/>
		</g>
		<rect id="XMLID_1488_" x="311.32" y="313.57" class="st11" width="3.11" height="30.32"/>
	</g>
	<g id="XMLID_1482_">
		<g id="XMLID_1484_">
			<rect id="XMLID_1486_" x="327.75" y="313.57" class="st9" width="4.7" height="30.33"/>
			<rect id="XMLID_1485_" x="327.75" y="313.57" class="st10" width="4.7" height="3.88"/>
		</g>
		<rect id="XMLID_1483_" x="332.45" y="313.57" class="st11" width="3.11" height="30.32"/>
	</g>
	<g id="XMLID_1477_">
		<g id="XMLID_1479_">
			
				<rect id="XMLID_1481_" x="435.73" y="313.57" transform="matrix(-1 -1.224647e-16 1.224647e-16 -1 876.1592 657.4712)" class="st9" width="4.7" height="30.33"/>
			
				<rect id="XMLID_1480_" x="435.73" y="313.57" transform="matrix(-1 -1.224647e-16 1.224647e-16 -1 876.1592 631.0288)" class="st10" width="4.7" height="3.88"/>
		</g>
		
			<rect id="XMLID_1478_" x="432.62" y="313.57" transform="matrix(-1 -1.224647e-16 1.224647e-16 -1 868.3525 657.4704)" class="st11" width="3.11" height="30.32"/>
	</g>
	<rect id="XMLID_1476_" x="301.03" y="305.69" class="st6" width="144.99" height="1.6"/>
</g>
<g id="XMLID_1467_">
	<rect id="XMLID_1474_" x="109.22" y="325.48" class="st12" width="4.83" height="18.41"/>
	<polygon id="XMLID_1473_" class="st13" points="114.05,334.71 109.22,332.93 109.22,323.72 114.05,323.72 	"/>
	<path id="XMLID_1472_" class="st14" d="M126.22,316.46c0,8.05-6.53,14.59-14.59,14.59c-5.81,0-10.83-3.41-13.18-8.32
		c-0.91-1.9-1.41-4.03-1.41-6.27c0-8.06,6.54-14.59,14.59-14.59c3.41,0,6.55,1.17,9.03,3.13
		C124.05,307.67,126.22,311.81,126.22,316.46z"/>
	<path id="XMLID_1471_" class="st9" d="M107.4,307.87c4.66-0.66,9.36-0.93,14.05-0.82c-0.21-0.71-0.47-1.4-0.79-2.05
		c-2.48-1.96-5.62-3.13-9.03-3.13c-5.58,0-10.44,3.14-12.89,7.76C101.58,308.84,104.49,308.29,107.4,307.87z"/>
	<path id="XMLID_1470_" class="st9" d="M107.06,313.41c4.9,0.05,9.79,0.41,14.64,1.08c0.23-1.04,0.37-2.11,0.37-3.22
		c0-0.67-0.05-1.34-0.14-1.99c-3.7-0.11-7.42,0.01-11.11,0.39c-4.28,0.44-8.57,1.18-12.69,2.44c-0.15,0.05-0.3,0.09-0.46,0.14
		c-0.15,0.49-0.26,1-0.36,1.52C100.55,313.4,103.85,313.38,107.06,313.41z"/>
	<path id="XMLID_1469_" class="st9" d="M108.3,319.29c3.79,0.16,7.59,0.12,11.38-0.05c0.54-0.82,1-1.7,1.37-2.62
		c-4.19-0.56-8.4-0.89-12.64-0.98c-3.69-0.08-7.57-0.14-11.34,0.33c-0.01,0.16-0.02,0.33-0.02,0.49c0,0.51,0.03,1.01,0.08,1.51
		C100.85,318.47,104.58,319.14,108.3,319.29z"/>
	<path id="XMLID_1468_" class="st9" d="M108.3,321.5c-3.58-0.15-7.17-0.77-10.76-1.26c0.23,0.86,0.54,1.7,0.92,2.49
		c2.48,1.96,5.62,3.12,9.03,3.12c4.06,0,7.71-1.66,10.35-4.34C114.66,321.62,111.48,321.63,108.3,321.5z"/>
</g>
<g id="XMLID_1457_">
	<rect id="XMLID_1466_" x="639.38" y="300.24" class="st12" width="6.96" height="43.66"/>
	<polygon id="XMLID_1465_" class="st13" points="646.34,313.53 639.38,310.95 639.38,297.7 646.34,297.7 	"/>
	<path id="XMLID_1464_" class="st14" d="M663.87,287.24c0,11.6-9.4,21.01-21.01,21.01c-8.37,0-15.6-4.9-18.98-11.98
		c-1.31-2.74-2.04-5.8-2.04-9.03c0-11.61,9.42-21.01,21.01-21.01c4.92,0,9.44,1.68,13.01,4.51
		C660.74,274.58,663.87,280.54,663.87,287.24z"/>
	<path id="XMLID_1463_" class="st9" d="M652.91,283.7c1.49,0.21,2.97,0.46,4.44,0.74c0.23-1,0.38-2.02,0.46-3.06
		c-3.76-1.52-7.58-2.83-11.28-4c-6.18-1.95-13.55-3.6-20.36-2.86c-2.32,3.04-3.84,6.72-4.22,10.74c2.44-0.55,4.9-0.97,7.4-1.3
		C637.18,282.92,645.07,282.61,652.91,283.7z"/>
	<path id="XMLID_1462_" class="st9" d="M642.52,293.24c2.81,0.62,5.59,1.36,8.35,2.16c2.41-2.16,4.32-4.86,5.54-7.92
		c-5.74-1.04-11.52-1.49-17.39-1.21c-5.75,0.28-11.52,0.92-17.14,2.22c0.07,1.15,0.23,2.27,0.47,3.36c0.28-0.03,0.56-0.06,0.84-0.08
		C629.69,291.35,636.16,291.85,642.52,293.24z"/>
	<path id="XMLID_1461_" class="st9" d="M641.68,296.31c-6.07-1.32-12.2-1.72-18.36-1.34c0.17,0.44,0.36,0.87,0.56,1.3
		c3.57,2.82,8.09,4.5,13,4.5c3.94,0,7.61-1.1,10.76-2.98C645.66,297.25,643.68,296.74,641.68,296.31z"/>
	<path id="XMLID_1460_" class="st9" d="M644.79,273.55c4.25,1.17,8.66,2.59,13.01,4.3c-0.23-2.52-0.89-4.93-1.93-7.11
		c-3.57-2.83-8.1-4.51-13.01-4.51c-5.21,0-9.96,1.91-13.63,5.04C634.46,271.2,639.83,272.18,644.79,273.55z"/>
	<path id="XMLID_1459_" class="st6" d="M630.11,274.36c-1.33-0.02-2.65,0.01-3.95,0.15c-2.13,2.79-3.58,6.13-4.09,9.77
		C624.01,280.21,626.8,276.89,630.11,274.36z"/>
	<path id="XMLID_1458_" class="st6" d="M646.19,268.53c1.87-0.31,3.72-0.43,5.52-0.35c-2.69-1.25-5.69-1.96-8.85-1.96
		c-5.21,0-9.96,1.91-13.63,5.04c1.79-0.02,3.6,0.08,5.4,0.28C638.21,269.76,642.16,268.74,646.19,268.53z"/>
</g>
<g id="XMLID_1445_">
	<rect id="XMLID_1456_" x="134.16" y="312.96" class="st12" width="8.12" height="30.93"/>
	<polygon id="XMLID_1455_" class="st13" points="142.28,328.47 134.16,325.47 134.16,310 142.28,310 	"/>
	
		<ellipse id="XMLID_1454_" transform="matrix(0.2322 -0.9727 0.9727 0.2322 -183.5315 363.0987)" class="st9" cx="138.22" cy="297.8" rx="24.51" ry="24.51"/>
	<path id="XMLID_1453_" class="st14" d="M162.73,297.8c0,13.53-10.97,24.51-24.51,24.51c-9.76,0-18.19-5.72-22.13-13.98
		c-1.53-3.2-2.38-6.76-2.38-10.53c0-13.54,10.98-24.51,24.51-24.51c5.73,0,11.01,1.96,15.18,5.26
		C159.08,283.04,162.73,290,162.73,297.8z"/>
	<path id="XMLID_1452_" class="st9" d="M138.7,297.07c-5.45-3-10.79-6.47-15.48-10.55c-1.36-1.18-2.85-2.51-4.41-3.64
		c-2.04,2.64-3.54,5.71-4.36,9.05c2.22,0.81,4.42,1.66,6.62,2.51c7.1,2.73,14.26,5.37,21.14,8.63c2.16,1.02,4.31,2.11,6.43,3.27
		c1.09-1.09,2.07-2.29,2.94-3.57C147.13,301.26,142.83,299.34,138.7,297.07z"/>
	<path id="XMLID_1451_" class="st9" d="M152.69,286c0.96,1.4,1.96,2.72,3.03,3.97c0.01-0.3,0.04-0.59,0.04-0.89
		c0-3.76-0.85-7.33-2.36-10.52c-2.32-1.84-4.99-3.24-7.89-4.14C147.96,279.29,151.32,284.01,152.69,286z"/>
	<path id="XMLID_1450_" class="st9" d="M124.79,282.95c6.24,5.48,13.49,10.1,21.04,13.58c2.5,1.15,5.03,2.1,7.6,2.91
		c0.69-1.47,1.24-3.02,1.62-4.64c-0.57-0.56-1.14-1.13-1.67-1.73c-2.88-3.27-5.28-7.09-7.5-10.82c-1.33-2.23-3.21-5.39-4.65-8.76
		c-0.99-0.12-2-0.21-3.03-0.21c-6.5,0-12.4,2.55-16.79,6.69C122.66,281.01,123.79,282.08,124.79,282.95z"/>
	<path id="XMLID_1449_" class="st9" d="M132.02,302.64c-5.97-2.43-12.18-4.42-18.21-6.74c-0.05,0.63-0.1,1.26-0.1,1.9
		c0,3.77,0.85,7.33,2.38,10.53c4.17,3.28,9.44,5.25,15.16,5.25c5.41,0,10.39-1.77,14.44-4.73
		C141.23,306.48,136.55,304.49,132.02,302.64z"/>
	<path id="XMLID_1448_" class="st6" d="M121.35,284.9c-0.82-0.7-1.66-1.39-2.54-2.02c-2.04,2.64-3.54,5.71-4.36,9.05
		c0.27,0.1,0.55,0.21,0.82,0.31C116.84,289.51,118.88,287.04,121.35,284.9z"/>
	<path id="XMLID_1447_" class="st6" d="M152.24,277.72c-2.04-1.42-4.3-2.55-6.73-3.31c0.39,0.77,0.8,1.53,1.22,2.28
		C148.61,276.85,150.45,277.19,152.24,277.72z"/>
	<path id="XMLID_1446_" class="st6" d="M136.71,277.42c1.99-0.44,4.01-0.7,6.02-0.79c-0.52-1.01-1.02-2.06-1.48-3.13
		c-0.99-0.12-2-0.21-3.03-0.21c-6.5,0-12.4,2.55-16.79,6.69c1.07,0.9,2.05,1.79,2.94,2.6C127.86,280.23,131.99,278.46,136.71,277.42
		z"/>
</g>
<g id="XMLID_1433_">
	<rect id="XMLID_1444_" x="663.73" y="323.1" class="st12" width="5.46" height="20.79"/>
	<polygon id="XMLID_1443_" class="st13" points="669.19,333.53 663.73,331.51 663.73,321.11 669.19,321.11 	"/>
	
		<ellipse id="XMLID_1442_" transform="matrix(0.7071 -0.7071 0.7071 0.7071 -26.0611 562.9047)" class="st9" cx="666.46" cy="312.91" rx="16.47" ry="16.47"/>
	<path id="XMLID_1441_" class="st14" d="M682.93,312.91c0,9.09-7.37,16.48-16.48,16.48c-6.56,0-12.23-3.85-14.88-9.39
		c-1.03-2.15-1.6-4.55-1.6-7.08c0-9.1,7.38-16.48,16.48-16.48c3.85,0,7.4,1.32,10.2,3.54C680.48,302.99,682.93,307.67,682.93,312.91
		z"/>
	<path id="XMLID_1440_" class="st9" d="M666.78,312.42c-3.66-2.02-7.25-4.35-10.41-7.09c-0.91-0.79-1.92-1.69-2.97-2.45
		c-1.37,1.78-2.38,3.84-2.93,6.09c1.49,0.54,2.97,1.12,4.45,1.69c4.78,1.84,9.58,3.61,14.21,5.8c1.45,0.69,2.9,1.42,4.32,2.2
		c0.73-0.74,1.39-1.54,1.97-2.4C672.44,315.24,669.55,313.95,666.78,312.42z"/>
	<path id="XMLID_1439_" class="st9" d="M676.18,304.98c0.65,0.94,1.32,1.83,2.03,2.67c0.01-0.2,0.03-0.4,0.03-0.6
		c0-2.53-0.57-4.93-1.59-7.07c-1.56-1.23-3.36-2.18-5.3-2.78C673,300.47,675.26,303.64,676.18,304.98z"/>
	<path id="XMLID_1438_" class="st9" d="M657.43,302.93c4.19,3.69,9.07,6.79,14.14,9.13c1.68,0.77,3.38,1.41,5.11,1.96
		c0.46-0.99,0.83-2.03,1.09-3.12c-0.39-0.38-0.77-0.76-1.12-1.16c-1.94-2.2-3.55-4.76-5.04-7.28c-0.89-1.5-2.16-3.62-3.12-5.89
		c-0.67-0.08-1.34-0.14-2.03-0.14c-4.37,0-8.34,1.72-11.29,4.5C655.99,301.63,656.76,302.34,657.43,302.93z"/>
	<path id="XMLID_1437_" class="st9" d="M662.28,316.17c-4.01-1.63-8.18-2.97-12.24-4.53c-0.03,0.42-0.06,0.85-0.06,1.28
		c0,2.53,0.57,4.93,1.6,7.08c2.8,2.21,6.35,3.53,10.19,3.53c3.63,0,6.98-1.19,9.71-3.18C668.48,318.74,665.33,317.41,662.28,316.17z
		"/>
	<path id="XMLID_1436_" class="st6" d="M655.06,304.19c-0.54-0.45-1.08-0.9-1.65-1.32c-1.36,1.77-2.37,3.82-2.93,6.06
		C651.92,307.19,653.43,305.59,655.06,304.19z"/>
	<path id="XMLID_1435_" class="st6" d="M676.81,300.34c-0.05-0.12-0.1-0.25-0.15-0.36c-1.56-1.23-3.36-2.18-5.3-2.78
		c0.33,0.65,0.68,1.29,1.03,1.91C673.93,299.36,675.41,299.77,676.81,300.34z"/>
	<path id="XMLID_1434_" class="st6" d="M669.56,298.83c-0.38-0.72-0.74-1.47-1.08-2.25c-0.67-0.08-1.34-0.14-2.03-0.14
		c-4.37,0-8.34,1.72-11.29,4.5c0.69,0.58,1.33,1.17,1.92,1.69C660.63,300.13,664.7,298.66,669.56,298.83z"/>
</g>
<g id="XMLID_1410_">
	<g id="XMLID_1429_">
		<rect id="XMLID_1432_" x="595.62" y="331.05" class="st6" width="4.45" height="12.85"/>
		<path id="XMLID_1431_" class="st6" d="M600.44,328.45c0,1.43-1.16,2.6-2.6,2.6c-1.43,0-2.6-1.16-2.6-2.6c0-1.43,1.16-2.6,2.6-2.6
			C599.28,325.85,600.44,327.02,600.44,328.45z"/>
		<rect id="XMLID_1430_" x="594.45" y="331.05" class="st6" width="6.79" height="2.85"/>
	</g>
	<rect id="XMLID_1428_" x="597.85" y="334.71" class="st6" width="17.3" height="2.19"/>
	<rect id="XMLID_1427_" x="597.85" y="339.54" class="st6" width="17.3" height="2.19"/>
	<g id="XMLID_1423_">
		<rect id="XMLID_1426_" x="613.06" y="331.05" class="st6" width="4.45" height="12.85"/>
		<path id="XMLID_1425_" class="st6" d="M617.88,328.45c0,1.43-1.16,2.6-2.6,2.6c-1.43,0-2.6-1.16-2.6-2.6c0-1.43,1.16-2.6,2.6-2.6
			C616.72,325.85,617.88,327.02,617.88,328.45z"/>
		<rect id="XMLID_1424_" x="611.89" y="331.05" class="st6" width="6.79" height="2.85"/>
	</g>
	<rect id="XMLID_1422_" x="615.28" y="334.71" class="st6" width="17.3" height="2.19"/>
	<rect id="XMLID_1421_" x="615.28" y="339.54" class="st6" width="17.3" height="2.19"/>
	<g id="XMLID_1417_">
		<rect id="XMLID_1420_" x="630.49" y="331.05" class="st6" width="4.45" height="12.85"/>
		<path id="XMLID_1419_" class="st6" d="M635.32,328.45c0,1.43-1.16,2.6-2.6,2.6c-1.43,0-2.6-1.16-2.6-2.6c0-1.43,1.16-2.6,2.6-2.6
			C634.16,325.85,635.32,327.02,635.32,328.45z"/>
		<rect id="XMLID_1418_" x="629.32" y="331.05" class="st6" width="6.79" height="2.85"/>
	</g>
	<rect id="XMLID_1416_" x="632.72" y="334.71" class="st6" width="17.3" height="2.19"/>
	<rect id="XMLID_1415_" x="632.72" y="339.54" class="st6" width="17.3" height="2.19"/>
	<g id="XMLID_1411_">
		<rect id="XMLID_1414_" x="647.93" y="331.05" class="st6" width="4.45" height="12.85"/>
		<path id="XMLID_1413_" class="st6" d="M652.76,328.45c0,1.43-1.16,2.6-2.6,2.6c-1.43,0-2.6-1.16-2.6-2.6c0-1.43,1.16-2.6,2.6-2.6
			C651.59,325.85,652.76,327.02,652.76,328.45z"/>
		<rect id="XMLID_1412_" x="646.76" y="331.05" class="st6" width="6.79" height="2.85"/>
	</g>
</g>
<g id="XMLID_1387_">
	<g id="XMLID_1406_">
		<rect id="XMLID_1409_" x="181.15" y="331.05" class="st6" width="4.45" height="12.85"/>
		<path id="XMLID_1408_" class="st6" d="M185.98,328.45c0,1.43-1.16,2.6-2.6,2.6c-1.43,0-2.6-1.16-2.6-2.6c0-1.43,1.16-2.6,2.6-2.6
			C184.82,325.85,185.98,327.02,185.98,328.45z"/>
		<rect id="XMLID_1407_" x="179.99" y="331.05" class="st6" width="6.79" height="2.85"/>
	</g>
	<rect id="XMLID_1405_" x="183.38" y="334.71" class="st6" width="17.3" height="2.19"/>
	<rect id="XMLID_1404_" x="183.38" y="339.54" class="st6" width="17.3" height="2.19"/>
	<g id="XMLID_1400_">
		<rect id="XMLID_1403_" x="198.59" y="331.05" class="st6" width="4.45" height="12.85"/>
		<path id="XMLID_1402_" class="st6" d="M203.42,328.45c0,1.43-1.16,2.6-2.6,2.6s-2.6-1.16-2.6-2.6c0-1.43,1.16-2.6,2.6-2.6
			S203.42,327.02,203.42,328.45z"/>
		<rect id="XMLID_1401_" x="197.42" y="331.05" class="st6" width="6.79" height="2.85"/>
	</g>
	<rect id="XMLID_1399_" x="200.82" y="334.71" class="st6" width="17.3" height="2.19"/>
	<rect id="XMLID_1398_" x="200.82" y="339.54" class="st6" width="17.3" height="2.19"/>
	<g id="XMLID_1394_">
		<rect id="XMLID_1397_" x="216.03" y="331.05" class="st6" width="4.45" height="12.85"/>
		<path id="XMLID_1396_" class="st6" d="M220.86,328.45c0,1.43-1.16,2.6-2.6,2.6c-1.43,0-2.6-1.16-2.6-2.6c0-1.43,1.16-2.6,2.6-2.6
			C219.69,325.85,220.86,327.02,220.86,328.45z"/>
		<rect id="XMLID_1395_" x="214.86" y="331.05" class="st6" width="6.79" height="2.85"/>
	</g>
	<rect id="XMLID_1393_" x="218.26" y="334.71" class="st6" width="17.3" height="2.19"/>
	<rect id="XMLID_1392_" x="218.26" y="339.54" class="st6" width="17.3" height="2.19"/>
	<g id="XMLID_1388_">
		<rect id="XMLID_1391_" x="233.47" y="331.05" class="st6" width="4.45" height="12.85"/>
		<path id="XMLID_1390_" class="st6" d="M238.29,328.45c0,1.43-1.16,2.6-2.6,2.6c-1.43,0-2.6-1.16-2.6-2.6c0-1.43,1.16-2.6,2.6-2.6
			C237.13,325.85,238.29,327.02,238.29,328.45z"/>
		<rect id="XMLID_1389_" x="232.3" y="331.05" class="st6" width="6.79" height="2.85"/>
	</g>
</g>
<g id="XMLID_1381_">
	<path id="XMLID_31_" class="st6" d="M511.17,61h-23.65c-0.46,0-0.83-0.37-0.83-0.83c0-0.46,0.37-0.83,0.83-0.83h22.63
		c-0.62-1.9-2.4-3.23-4.47-3.23c-0.14,0-0.27,0.01-0.41,0.02c-0.38,0.03-0.73-0.19-0.85-0.55c-1.05-2.94-3.86-4.92-6.99-4.92
		c-3.46,0-6.51,2.45-7.25,5.82c-0.1,0.45-0.54,0.73-0.99,0.63c-0.45-0.1-0.73-0.54-0.63-0.99c0.91-4.12,4.64-7.12,8.87-7.12
		c3.62,0,6.9,2.17,8.33,5.45c3.2,0.04,5.88,2.44,6.24,5.62c0.03,0.23-0.05,0.47-0.21,0.65C511.63,60.89,511.41,61,511.17,61z"/>
	<path id="XMLID_30_" class="st6" d="M530.31,61h-12.87c-0.46,0-0.83-0.37-0.83-0.83c0-0.46,0.37-0.83,0.83-0.83h12.87
		c0.46,0,0.83,0.37,0.83,0.83C531.14,60.62,530.77,61,530.31,61z"/>
	<path id="XMLID_29_" class="st6" d="M522.58,66.85h-14.74c-0.46,0-0.83-0.37-0.83-0.83c0-0.46,0.37-0.83,0.83-0.83h14.74
		c0.46,0,0.83,0.37,0.83,0.83C523.41,66.48,523.04,66.85,522.58,66.85z"/>
	<path id="XMLID_28_" class="st6" d="M480.95,61h-3.76c-0.46,0-0.83-0.37-0.83-0.83c0-0.46,0.37-0.83,0.83-0.83h3.76
		c0.46,0,0.83,0.37,0.83,0.83C481.78,60.62,481.41,61,480.95,61z"/>
	<path id="XMLID_27_" class="st6" d="M501.22,66.85h-3.76c-0.46,0-0.83-0.37-0.83-0.83c0-0.46,0.37-0.83,0.83-0.83h3.76
		c0.46,0,0.83,0.37,0.83,0.83C502.05,66.48,501.68,66.85,501.22,66.85z"/>
</g>
<g id="XMLID_1373_">
	<path id="XMLID_22_" class="st6" d="M503.75,102.7h-60.94c-0.24,0-0.46-0.1-0.62-0.28c-0.16-0.18-0.23-0.41-0.21-0.65
		c0.68-5.99,5.76-10.52,11.8-10.52c2.07,0,4.07,0.53,5.85,1.55c2.14-7.28,8.95-12.45,16.63-12.45c7.1,0,13.49,4.36,16.1,10.91
		c0.13,0,0.27-0.01,0.4-0.01c6.05,0,11.12,4.52,11.8,10.52c0.03,0.23-0.05,0.47-0.21,0.65C504.21,102.6,503.99,102.7,503.75,102.7z
		 M443.78,101.04h59c-0.97-4.69-5.12-8.12-10.01-8.12c-0.3,0-0.6,0.01-0.89,0.04c-0.37,0.03-0.73-0.19-0.85-0.55
		c-2.22-6.22-8.15-10.39-14.76-10.39c-7.3,0-13.74,5.17-15.31,12.28c-0.06,0.27-0.25,0.5-0.51,0.59c-0.26,0.1-0.55,0.06-0.78-0.1
		c-1.73-1.23-3.77-1.88-5.89-1.88C448.9,92.92,444.75,96.35,443.78,101.04z"/>
	<path id="XMLID_25_" class="st6" d="M450.75,107.57h-16.62c-0.46,0-0.83-0.37-0.83-0.83s0.37-0.83,0.83-0.83h16.62
		c0.46,0,0.83,0.37,0.83,0.83S451.2,107.57,450.75,107.57z"/>
	<path id="XMLID_24_" class="st6" d="M434.13,102.69h-10.75c-0.46,0-0.83-0.37-0.83-0.83c0-0.46,0.37-0.83,0.83-0.83h10.75
		c0.46,0,0.83,0.37,0.83,0.83C434.96,102.32,434.59,102.69,434.13,102.69z"/>
</g>
<g id="XMLID_1365_">
	<path id="XMLID_17_" class="st6" d="M218.12,123.22h-80.16c-0.24,0-0.46-0.1-0.62-0.28c-0.16-0.18-0.23-0.41-0.21-0.65
		c0.88-7.75,7.44-13.6,15.26-13.6c2.79,0,5.48,0.75,7.86,2.17c2.67-9.64,11.62-16.51,21.72-16.51c9.3,0,17.66,5.74,21.01,14.35
		c0.23-0.01,0.47-0.02,0.7-0.02c7.82,0,14.38,5.85,15.26,13.6c0.03,0.23-0.05,0.47-0.21,0.65
		C218.58,123.12,218.36,123.22,218.12,123.22z M138.92,121.56h78.25c-1.18-6.45-6.82-11.21-13.48-11.21c-0.4,0-0.8,0.02-1.19,0.05
		c-0.37,0.02-0.73-0.19-0.85-0.55c-2.96-8.28-10.86-13.84-19.67-13.84c-9.73,0-18.3,6.88-20.39,16.36c-0.06,0.27-0.25,0.5-0.51,0.59
		c-0.26,0.1-0.55,0.06-0.78-0.1c-2.32-1.65-5.05-2.52-7.9-2.52C145.74,110.36,140.1,115.11,138.92,121.56z"/>
	<path id="XMLID_20_" class="st6" d="M148.4,129.62h-21.86c-0.46,0-0.83-0.37-0.83-0.83c0-0.46,0.37-0.83,0.83-0.83h21.86
		c0.46,0,0.83,0.37,0.83,0.83C149.23,129.25,148.86,129.62,148.4,129.62z"/>
	<path id="XMLID_19_" class="st6" d="M126.54,123.22H112.4c-0.46,0-0.83-0.37-0.83-0.83c0-0.46,0.37-0.83,0.83-0.83h14.14
		c0.46,0,0.83,0.37,0.83,0.83C127.37,122.85,127,123.22,126.54,123.22z"/>
</g>
<g id="XMLID_1354_">
	<path id="XMLID_9_" class="st6" d="M694.74,210.82h-44.67c-0.42,0-0.78-0.32-0.82-0.74c-0.04-0.34-0.06-0.68-0.06-1.03
		c0-4.92,4.01-8.93,8.93-8.93c0.65,0,1.28,0.07,1.9,0.2c2.53-4.61,7.45-7.56,12.74-7.56c5.3,0,10.1,2.84,12.67,7.45
		c0.42-0.06,0.84-0.09,1.27-0.09c4.92,0,8.93,4.01,8.93,8.93c0,0.35-0.02,0.69-0.06,1.03C695.52,210.51,695.17,210.82,694.74,210.82
		z M650.85,209.17h43.12c0-0.04,0-0.07,0-0.11c0-4.01-3.26-7.27-7.27-7.27c-0.52,0-1.04,0.05-1.55,0.16
		c-0.37,0.07-0.74-0.1-0.91-0.44c-2.2-4.37-6.6-7.08-11.48-7.08c-4.88,0-9.42,2.84-11.56,7.23c-0.18,0.37-0.6,0.55-0.99,0.43
		c-0.67-0.2-1.37-0.31-2.09-0.31c-4.01,0-7.27,3.26-7.27,7.27C650.85,209.09,650.85,209.13,650.85,209.17z"/>
	<path id="XMLID_15_" class="st6" d="M715.54,210h-14.58c-0.46,0-0.83-0.37-0.83-0.83c0-0.46,0.37-0.83,0.83-0.83h14.58
		c0.46,0,0.83,0.37,0.83,0.83C716.37,209.63,716,210,715.54,210z"/>
	<path id="XMLID_14_" class="st6" d="M727.71,210h-5.87c-0.46,0-0.83-0.37-0.83-0.83c0-0.46,0.37-0.83,0.83-0.83h5.87
		c0.46,0,0.83,0.37,0.83,0.83C728.54,209.63,728.17,210,727.71,210z"/>
	<path id="XMLID_13_" class="st6" d="M702.83,218h-25.99c-0.46,0-0.83-0.37-0.83-0.83c0-0.46,0.37-0.83,0.83-0.83h25.99
		c0.46,0,0.83,0.37,0.83,0.83C703.66,217.63,703.29,218,702.83,218z"/>
</g>
<g id="XMLID_1287_">
	<path id="XMLID_1353_" class="st6" d="M798.63,65.98c0.2,7.93-1.3,14.58-3.7,20.34c-6.38,15.32-19.15,24.57-23.5,36.05
		c-0.94,2.49-1.48,5.09-1.48,7.88v0.76h-26.71v-0.74c0-2.8-0.54-5.4-1.46-7.89c-4.32-11.52-17.03-20.68-23.43-36.05
		c-2.31-5.49-3.79-11.79-3.79-19.27c0-8.04,2.26-15.53,6.16-21.93c7.78-12.68,22.11-20.93,38.27-20.03
		c14.03,0.79,26.34,8.67,33.36,20.03C796.16,51.24,798.43,58.39,798.63,65.98z"/>
	<path id="XMLID_1352_" class="st9" d="M783.87,65.98c0.13,7.93-0.84,14.58-2.4,20.34c-4.14,15.32-12.42,24.57-15.25,36.05
		c-0.61,2.49-0.96,5.09-0.96,7.88v0.76h-17.33v-0.74c0-2.8-0.35-5.4-0.95-7.89c-2.8-11.52-11.05-20.68-15.2-36.05
		c-1.5-5.49-2.46-11.79-2.46-19.27c0-8.04,1.46-15.53,4-21.93c5.05-12.68,14.34-20.93,24.83-20.03c9.11,0.79,17.09,8.67,21.64,20.03
		C782.26,51.24,783.74,58.39,783.87,65.98z"/>
	<path id="XMLID_1351_" class="st6" d="M769.45,65.98c0.06,7.93-0.4,14.58-1.13,20.34c-1.95,15.32-5.85,24.57-7.18,36.05
		c-0.29,2.49-0.45,5.09-0.45,7.88v0.76h-8.17v-0.74c0-2.8-0.17-5.4-0.45-7.89c-1.32-11.52-5.21-20.68-7.16-36.05
		c-0.71-5.49-1.16-11.79-1.16-19.27c0-8.04,0.69-15.53,1.88-21.93c2.38-12.68,6.76-20.93,11.7-20.03c4.29,0.79,8.05,8.67,10.2,20.03
		C768.69,51.24,769.39,58.39,769.45,65.98z"/>
	<path id="XMLID_1350_" class="st9" d="M771.43,122.37c-0.94,2.49-1.48,5.09-1.48,7.88v0.76h-26.71v-0.74c0-2.8-0.54-5.4-1.46-7.89
		H771.43z"/>
	<path id="XMLID_1349_" class="st6" d="M771.43,122.37c-0.38,1.01-0.69,2.02-0.94,3.07h-27.8c-0.23-1.05-0.54-2.06-0.92-3.07H771.43
		z"/>
	<path id="XMLID_1348_" class="st6" d="M770.04,128.19c-0.05,0.69-0.09,1.35-0.09,2.06v0.76h-26.71v-0.74c0-0.7-0.04-1.39-0.09-2.08
		H770.04z"/>
	<g id="XMLID_1308_">
		<path id="XMLID_4_" class="st3" d="M766.86,166.92c-0.09,0-0.18-0.01-0.27-0.05c-0.43-0.15-0.66-0.62-0.51-1.05l26.26-75.79
			c0.15-0.43,0.61-0.67,1.05-0.51c0.43,0.15,0.66,0.62,0.51,1.05l-26.26,75.79C767.53,166.7,767.21,166.92,766.86,166.92z"/>
		<path id="XMLID_11_" class="st3" d="M756.6,170.53c-0.46,0-0.83-0.37-0.83-0.83V90.3c0-0.46,0.37-0.83,0.83-0.83
			s0.83,0.37,0.83,0.83v79.4C757.43,170.16,757.06,170.53,756.6,170.53z"/>
		<path id="XMLID_10_" class="st3" d="M760.76,170.53c-0.05,0-0.1,0-0.15-0.01c-0.45-0.08-0.75-0.51-0.67-0.96l14.13-79.4
			c0.08-0.45,0.51-0.75,0.96-0.67c0.45,0.08,0.75,0.51,0.67,0.96l-14.14,79.4C761.5,170.25,761.15,170.53,760.76,170.53z"/>
		<path id="XMLID_5_" class="st3" d="M746.33,166.92c-0.34,0-0.66-0.21-0.78-0.56l-26.26-75.79c-0.15-0.43,0.08-0.9,0.51-1.05
			c0.44-0.15,0.9,0.08,1.05,0.51l26.26,75.79c0.15,0.43-0.08,0.9-0.51,1.05C746.51,166.9,746.42,166.92,746.33,166.92z"/>
		<path id="XMLID_6_" class="st3" d="M752.44,170.53c-0.39,0-0.74-0.28-0.81-0.68l-14.13-79.4c-0.08-0.45,0.22-0.88,0.67-0.96
			c0.45-0.08,0.88,0.22,0.96,0.67l14.13,79.4c0.08,0.45-0.22,0.88-0.67,0.96C752.54,170.52,752.49,170.53,752.44,170.53z"/>
		<path id="XMLID_7_" class="st3" d="M729.19,94.35c-3.16,0-6.31-1.12-9.58-3.37c-0.38-0.26-0.47-0.77-0.21-1.15
			c0.26-0.38,0.77-0.47,1.15-0.21c5.9,4.06,11.39,4.06,17.29,0c0.38-0.26,0.89-0.16,1.15,0.21c0.26,0.38,0.16,0.89-0.21,1.15
			C735.51,93.23,732.35,94.35,729.19,94.35z"/>
		<path id="XMLID_8_" class="st3" d="M747.42,94.35c-3.16,0-6.31-1.12-9.58-3.37c-0.38-0.26-0.47-0.77-0.21-1.15
			c0.26-0.38,0.77-0.47,1.15-0.21c5.9,4.06,11.39,4.06,17.29,0c0.38-0.26,0.89-0.16,1.15,0.21c0.26,0.38,0.16,0.89-0.21,1.15
			C753.74,93.23,750.58,94.35,747.42,94.35z"/>
		<path id="XMLID_32_" class="st3" d="M765.65,94.35c-3.16,0-6.31-1.12-9.58-3.37c-0.38-0.26-0.47-0.77-0.21-1.15
			c0.26-0.38,0.77-0.47,1.15-0.21c5.9,4.06,11.39,4.06,17.29,0c0.38-0.26,0.89-0.16,1.15,0.21c0.26,0.38,0.16,0.89-0.21,1.15
			C771.97,93.23,768.81,94.35,765.65,94.35z"/>
		<path id="XMLID_34_" class="st3" d="M783.88,94.35c-3.16,0-6.31-1.12-9.58-3.37c-0.38-0.26-0.47-0.77-0.21-1.15
			c0.26-0.38,0.77-0.47,1.15-0.21c5.9,4.06,11.39,4.06,17.29,0c0.38-0.26,0.89-0.16,1.15,0.21c0.26,0.38,0.16,0.89-0.21,1.15
			C790.2,93.23,787.04,94.35,783.88,94.35z"/>
	</g>
	<path id="XMLID_1306_" class="st9" d="M764.88,185.65h-16.55c-1.53,0-2.78-1.24-2.78-2.78v-17h22.11v17
		C767.65,184.41,766.41,185.65,764.88,185.65z"/>
	<path id="XMLID_1302_" class="st6" d="M768.51,173.54h-23.82c-0.52,0-0.95-0.42-0.95-0.95v-5.78c0-0.52,0.42-0.95,0.95-0.95h23.82
		c0.52,0,0.95,0.42,0.95,0.95v5.78C769.46,173.11,769.03,173.54,768.51,173.54z"/>
</g>
</svg>
