<?xml version="1.0" encoding="utf-8"?>
<!-- Generator: Adobe Illustrator 27.7.0, SVG Export Plug-In . SVG Version: 6.00 Build 0)  -->
<svg version="1.1" id="Layer_1" xmlns="http://www.w3.org/2000/svg" xmlns:xlink="http://www.w3.org/1999/xlink" x="0px" y="0px"
	 viewBox="0 0 900 376.76" style="enable-background:new 0 0 900 376.76;" xml:space="preserve">
<style type="text/css">
	.st0{fill:#FFAA00;}
	.st1{fill:#FFD952;}
	.st2{opacity:0.5;}
	.st3{fill:#CF6E53;}
	.st4{fill:#CC5A4B;}
	.st5{opacity:0.5;fill:#D5E82C;}
	.st6{fill:#FADC91;}
	.st7{fill:#FFFFFF;}
	.st8{fill:#FA8576;}
	.st9{fill:#FFD429;}
	.st10{fill:#E68D5A;}
	.st11{fill:#D9865D;}
	.st12{fill:#AD3636;}
	.st13{fill:#E38C00;}
	.st14{fill:#FFF6E0;}
	.st15{fill:#FFB49C;}
	.st16{fill:#734848;}
	.st17{fill:#873636;}
</style>
<rect id="XMLID_90_" class="st0" width="900" height="336.86"/>
<ellipse id="XMLID_1720_" transform="matrix(0.7071 -0.7071 0.7071 0.7071 -50.2542 164.8405)" class="st1" cx="173.85" cy="143.08" rx="114" ry="114"/>
<g id="XMLID_2103_" class="st2">
	<polygon id="XMLID_2111_" class="st3" points="554.93,223.86 554.93,336.86 602.16,336.86 602.16,223.86 592.74,207.09 
		564.35,207.09 	"/>
	<polygon id="XMLID_2110_" class="st3" points="519.49,155.6 519.67,155.69 519.67,336.86 484.25,336.86 484.25,336.86 
		413.41,336.86 413.41,336.86 413.41,130.36 413.41,128.21 413.41,121.76 448.83,121.76 	"/>
	<polygon id="XMLID_2109_" class="st3" points="615.21,171.17 615.21,170.81 615.48,170.81 628.31,153.54 668.65,153.54 
		673.34,153.54 675.93,153.54 688.76,170.81 689.03,170.81 689.03,187.81 693.33,187.81 693.33,192.69 693.33,194.9 693.33,336.86 
		661.98,336.86 656.87,336.86 612.93,336.86 612.93,194.9 612.93,192.69 612.93,187.81 615.21,187.81 	"/>
	<polygon id="XMLID_2108_" class="st3" points="108.53,218.62 108.53,218.37 108.72,218.37 117.88,206.04 146.67,206.04 
		150.01,206.04 151.86,206.04 161.02,218.37 161.21,218.37 161.21,230.5 164.28,230.5 164.28,233.98 164.28,235.55 164.28,336.86 
		141.9,336.86 138.26,336.86 106.91,336.86 106.91,235.55 106.91,233.98 106.91,230.5 108.53,230.5 	"/>
	<polygon id="XMLID_2107_" class="st3" points="712.4,231.71 723.59,216.64 725.85,216.64 729.94,216.64 774.1,216.64 
		785.29,231.71 785.52,231.71 785.52,232.02 785.52,239.24 785.52,247.31 785.52,253.56 785.52,261.63 785.52,267.88 785.52,275.95 
		785.52,282.2 785.52,290.27 785.52,296.52 785.52,304.59 785.52,310.83 785.52,318.91 785.52,336.86 741.37,336.86 737.28,336.86 
		712.17,336.86 712.17,231.71 	"/>
	<polygon id="XMLID_2106_" class="st3" points="675.65,264.88 683.31,254.57 684.86,254.57 687.66,254.57 717.89,254.57 
		725.55,264.88 725.71,264.88 725.71,265.09 725.71,270.03 725.71,275.56 725.71,279.84 725.71,285.36 725.71,289.64 725.71,295.16 
		725.71,299.44 725.71,304.96 725.71,309.24 725.71,314.77 725.71,319.04 725.71,324.57 725.71,336.86 695.48,336.86 692.68,336.86 
		675.49,336.86 675.49,264.88 	"/>
	<polygon id="XMLID_2105_" class="st3" points="760.58,307.03 768.24,296.72 769.78,296.72 772.58,296.72 830.91,296.72 
		838.57,307.03 838.73,307.03 838.73,307.25 838.73,336.86 760.42,336.86 760.42,307.03 	"/>
	<polygon id="XMLID_2104_" class="st3" points="316.86,89.83 329.7,72.55 332.29,72.55 336.98,72.55 387.61,72.55 400.44,89.83 
		400.71,89.83 400.71,90.19 400.71,336.86 316.6,336.86 316.6,89.83 	"/>
</g>
<g id="XMLID_2073_">
	<rect id="XMLID_2102_" x="383.94" y="190.01" class="st4" width="95.68" height="146.85"/>
	<g id="XMLID_2099_">
		<polygon id="XMLID_2101_" class="st5" points="479.61,190.01 479.61,219.34 383.94,315.02 383.94,250.17 444.1,190.01 		"/>
		<polygon id="XMLID_2100_" class="st5" points="479.61,237.28 479.61,269.7 412.46,336.86 383.94,336.86 383.94,332.96 		"/>
	</g>
	<rect id="XMLID_2098_" x="479.55" y="190.01" class="st4" width="45.59" height="146.85"/>
	<g id="XMLID_2095_">
		<rect id="XMLID_2097_" x="383.94" y="190.01" class="st6" width="95.61" height="12.94"/>
		<rect id="XMLID_2096_" x="383.94" y="202.95" class="st4" width="95.61" height="3.42"/>
	</g>
	<g id="XMLID_2092_">
		<rect id="XMLID_2094_" x="383.94" y="220" class="st6" width="95.61" height="12.94"/>
		<rect id="XMLID_2093_" x="383.94" y="232.93" class="st4" width="95.61" height="3.42"/>
	</g>
	<g id="XMLID_2089_">
		<rect id="XMLID_2091_" x="383.94" y="249.99" class="st6" width="95.61" height="12.94"/>
		<rect id="XMLID_2090_" x="383.94" y="262.92" class="st4" width="95.61" height="3.42"/>
	</g>
	<g id="XMLID_2086_">
		<rect id="XMLID_2088_" x="383.94" y="279.98" class="st6" width="95.61" height="12.94"/>
		<rect id="XMLID_2087_" x="383.94" y="292.91" class="st4" width="95.61" height="3.42"/>
	</g>
	<g id="XMLID_2083_">
		<rect id="XMLID_2085_" x="383.94" y="309.96" class="st6" width="95.61" height="12.94"/>
		<rect id="XMLID_2084_" x="383.94" y="322.9" class="st4" width="95.61" height="3.42"/>
	</g>
	<rect id="XMLID_2082_" x="383.94" y="182.63" class="st6" width="141.2" height="7.38"/>
	<rect id="XMLID_2081_" x="479.55" y="182.63" class="st4" width="45.59" height="7.38"/>
	<rect id="XMLID_2080_" x="479.55" y="182.63" class="st6" width="6.41" height="154.23"/>
	<rect id="XMLID_2079_" x="383.94" y="182.63" class="st6" width="6.41" height="154.23"/>
	<rect id="XMLID_2078_" x="390.35" y="220" class="st7" width="89.2" height="1.5"/>
	<rect id="XMLID_2077_" x="390.35" y="249.99" class="st7" width="89.2" height="1.5"/>
	<rect id="XMLID_2076_" x="390.35" y="279.98" class="st7" width="89.2" height="1.5"/>
	<rect id="XMLID_2075_" x="390.35" y="309.96" class="st7" width="89.2" height="1.5"/>
	<rect id="XMLID_2074_" x="383.94" y="182.63" class="st7" width="102.02" height="3.69"/>
</g>
<g id="XMLID_1732_">
	<polygon id="XMLID_2173_" class="st4" points="474.83,116.88 474.8,143.36 474.8,159.55 474.77,182.65 393.92,182.65 
		393.92,116.88 	"/>
	<g id="XMLID_2141_">
		<polygon id="XMLID_2153_" class="st5" points="474.83,116.88 474.83,143.33 474.8,143.36 474.27,143.92 473.01,145.28 
			463.33,155.6 460.44,158.68 448.9,170.99 437.97,182.65 393.92,182.65 393.92,171.15 394.07,170.99 399.34,165.37 405.61,158.68 
			408.49,155.6 418.17,145.28 419.44,143.92 433.86,128.54 444.8,116.88 		"/>
		<polygon id="XMLID_2144_" class="st5" points="474.83,159.52 474.82,165.67 474.82,166.11 474.77,182.65 453.15,182.65 
			462.81,172.34 464.08,170.99 474.77,159.58 474.8,159.55 474.82,159.53 		"/>
	</g>
	<polygon id="XMLID_2143_" class="st4" points="513.34,116.88 513.34,182.65 474.83,182.65 474.82,166.11 474.82,159.53 
		474.8,149.77 474.8,143.36 474.77,116.88 	"/>
	<g id="XMLID_2137_">
		<rect id="XMLID_2139_" x="393.91" y="116.87" class="st6" width="80.87" height="11.67"/>
		<rect id="XMLID_2138_" x="393.91" y="128.54" class="st4" width="80.87" height="3.08"/>
	</g>
	<g id="XMLID_2134_">
		<rect id="XMLID_2136_" x="393.91" y="143.93" class="st6" width="80.87" height="11.67"/>
		<rect id="XMLID_2135_" x="393.91" y="155.6" class="st4" width="80.87" height="3.08"/>
	</g>
	<g id="XMLID_2131_">
		<rect id="XMLID_2146_" x="393.92" y="170.99" class="st6" width="80.86" height="11.66"/>
	</g>
	<rect id="XMLID_2124_" x="393.91" y="110.21" class="st6" width="119.43" height="6.66"/>
	<rect id="XMLID_2123_" x="474.78" y="110.21" class="st4" width="38.56" height="6.66"/>
	<polygon id="XMLID_2140_" class="st6" points="480.21,110.21 480.21,182.65 474.83,182.65 474.82,166.11 474.82,159.53 
		474.8,149.77 474.8,143.36 474.77,116.88 474.77,110.21 	"/>
	<rect id="XMLID_2148_" x="393.92" y="110.21" class="st6" width="5.42" height="72.44"/>
	<rect id="XMLID_2120_" x="399.33" y="143.93" class="st7" width="75.45" height="1.35"/>
	<rect id="XMLID_2119_" x="399.33" y="170.99" class="st7" width="75.45" height="1.35"/>
	<rect id="XMLID_1737_" x="393.91" y="110.21" class="st7" width="86.29" height="3.33"/>
</g>
<g id="XMLID_2043_">
	
		<rect id="XMLID_2072_" x="657.77" y="240.32" transform="matrix(-1 -1.224647e-16 1.224647e-16 -1 1378.4384 577.1796)" class="st4" width="62.9" height="96.54"/>
	<g id="XMLID_2069_">
		<polygon id="XMLID_2071_" class="st5" points="657.77,240.32 657.77,259.61 720.66,322.5 720.66,279.87 681.12,240.32 		"/>
		<polygon id="XMLID_2070_" class="st5" points="657.77,271.4 657.77,292.71 701.92,336.86 720.66,336.86 720.66,334.3 		"/>
	</g>
	
		<rect id="XMLID_2068_" x="543.54" y="240.32" transform="matrix(-1 -1.224647e-16 1.224647e-16 -1 1201.3514 577.1796)" class="st4" width="114.28" height="96.54"/>
	<g id="XMLID_2065_">
		
			<rect id="XMLID_2067_" x="657.81" y="240.32" transform="matrix(-1 -1.224647e-16 1.224647e-16 -1 1378.481 489.1486)" class="st6" width="62.85" height="8.5"/>
		
			<rect id="XMLID_2066_" x="657.81" y="248.83" transform="matrix(-1 -1.224647e-16 1.224647e-16 -1 1378.481 499.9)" class="st4" width="62.85" height="2.25"/>
	</g>
	<g id="XMLID_2062_">
		
			<rect id="XMLID_2064_" x="657.81" y="260.04" transform="matrix(-1 -1.224647e-16 1.224647e-16 -1 1378.481 528.5768)" class="st6" width="62.85" height="8.5"/>
		
			<rect id="XMLID_2063_" x="657.81" y="268.54" transform="matrix(-1 -1.224647e-16 1.224647e-16 -1 1378.481 539.3281)" class="st4" width="62.85" height="2.25"/>
	</g>
	<g id="XMLID_2059_">
		
			<rect id="XMLID_2061_" x="657.81" y="279.75" transform="matrix(-1 -1.224647e-16 1.224647e-16 -1 1378.481 568.005)" class="st6" width="62.85" height="8.5"/>
		
			<rect id="XMLID_2060_" x="657.81" y="288.25" transform="matrix(-1 -1.224647e-16 1.224647e-16 -1 1378.481 578.7563)" class="st4" width="62.85" height="2.25"/>
	</g>
	<g id="XMLID_2056_">
		
			<rect id="XMLID_2058_" x="657.81" y="299.46" transform="matrix(-1 -1.224647e-16 1.224647e-16 -1 1378.481 607.433)" class="st6" width="62.85" height="8.5"/>
		
			<rect id="XMLID_2057_" x="657.81" y="307.97" transform="matrix(-1 -1.224647e-16 1.224647e-16 -1 1378.481 618.1844)" class="st4" width="62.85" height="2.25"/>
	</g>
	<g id="XMLID_2053_">
		
			<rect id="XMLID_2055_" x="657.81" y="319.18" transform="matrix(-1 -1.224647e-16 1.224647e-16 -1 1378.481 646.8612)" class="st6" width="62.85" height="8.5"/>
		
			<rect id="XMLID_2054_" x="657.81" y="327.68" transform="matrix(-1 -1.224647e-16 1.224647e-16 -1 1378.481 657.6125)" class="st4" width="62.85" height="2.25"/>
	</g>
	
		<rect id="XMLID_2052_" x="543.54" y="235.47" transform="matrix(-1 -1.224647e-16 1.224647e-16 -1 1264.204 475.7908)" class="st6" width="177.13" height="4.85"/>
	
		<rect id="XMLID_2051_" x="543.54" y="235.47" transform="matrix(-1 -1.224647e-16 1.224647e-16 -1 1201.3514 475.7908)" class="st4" width="114.28" height="4.85"/>
	
		<rect id="XMLID_2050_" x="653.6" y="235.47" transform="matrix(-1 -1.224647e-16 1.224647e-16 -1 1311.4128 572.3258)" class="st6" width="4.22" height="101.39"/>
	
		<rect id="XMLID_2049_" x="716.45" y="235.47" transform="matrix(-1 -1.224647e-16 1.224647e-16 -1 1437.118 572.3258)" class="st6" width="4.22" height="101.39"/>
	
		<rect id="XMLID_2048_" x="657.81" y="260.04" transform="matrix(-1 -1.224647e-16 1.224647e-16 -1 1374.2654 521.0579)" class="st7" width="58.64" height="0.99"/>
	
		<rect id="XMLID_2047_" x="657.81" y="279.75" transform="matrix(-1 -1.224647e-16 1.224647e-16 -1 1374.2654 560.4861)" class="st7" width="58.64" height="0.99"/>
	
		<rect id="XMLID_2046_" x="657.81" y="299.46" transform="matrix(-1 -1.224647e-16 1.224647e-16 -1 1374.2654 599.9143)" class="st7" width="58.64" height="0.99"/>
	
		<rect id="XMLID_2045_" x="657.81" y="319.18" transform="matrix(-1 -1.224647e-16 1.224647e-16 -1 1374.2654 639.3423)" class="st7" width="58.64" height="0.99"/>
	
		<rect id="XMLID_2044_" x="653.6" y="235.47" transform="matrix(-1 -1.224647e-16 1.224647e-16 -1 1374.2654 473.3639)" class="st7" width="67.07" height="2.43"/>
</g>
<g id="XMLID_2023_">
	<polygon id="XMLID_2042_" class="st4" points="371.15,43.25 274.7,89.45 274.46,89.56 274.46,336.86 226.11,336.86 226.11,89.56 
		226.35,89.45 322.8,43.25 	"/>
	<polygon id="XMLID_2041_" class="st7" points="371.15,43.25 371.15,89.45 226.35,89.45 322.8,43.25 	"/>
	<polygon id="XMLID_2040_" class="st8" points="371.15,43.25 371.15,336.86 274.46,336.86 274.46,89.56 274.7,89.45 	"/>
	<polygon id="XMLID_2039_" class="st4" points="371.15,52.06 371.15,54.99 293.09,92.37 274.7,101.18 274.46,101.29 274.46,98.37 
		274.7,98.26 293.09,89.45 	"/>
	<polygon id="XMLID_2038_" class="st6" points="371.15,54.99 371.15,336.86 274.46,336.86 274.46,101.29 274.7,101.18 293.09,92.37 
			"/>
	<polygon id="XMLID_2037_" class="st6" points="371.15,54.99 371.15,336.86 274.46,336.86 274.46,101.29 274.7,101.18 293.09,92.37 
			"/>
	<polygon id="XMLID_2036_" class="st5" points="371.15,95.35 371.15,150.51 274.46,247.22 274.46,192.06 	"/>
	<polygon id="XMLID_2035_" class="st5" points="371.15,165.77 371.15,193.35 274.46,290.05 274.46,262.47 	"/>
	<rect id="XMLID_2034_" x="226.12" y="121.76" class="st4" width="145.03" height="3.14"/>
	<rect id="XMLID_2033_" x="226.12" y="143.97" class="st4" width="145.03" height="3.14"/>
	<rect id="XMLID_2032_" x="226.12" y="166.18" class="st4" width="145.03" height="3.14"/>
	<rect id="XMLID_2031_" x="226.12" y="188.39" class="st4" width="145.03" height="3.14"/>
	<rect id="XMLID_2030_" x="226.12" y="210.6" class="st4" width="145.03" height="3.14"/>
	<rect id="XMLID_2029_" x="226.12" y="232.81" class="st4" width="145.03" height="3.14"/>
	<rect id="XMLID_2028_" x="226.12" y="255.02" class="st4" width="145.03" height="3.14"/>
	<rect id="XMLID_2027_" x="226.12" y="277.23" class="st4" width="145.03" height="3.14"/>
	<rect id="XMLID_2026_" x="226.12" y="299.43" class="st4" width="145.03" height="3.14"/>
	<rect id="XMLID_2025_" x="226.12" y="321.64" class="st4" width="145.03" height="3.14"/>
	<rect id="XMLID_2024_" x="226.35" y="89.45" class="st6" width="48.11" height="8.82"/>
</g>
<g id="XMLID_1942_">
	
		<rect id="XMLID_2022_" x="550.27" y="133.42" transform="matrix(-1 -1.224647e-16 1.224647e-16 -1 1167.4846 470.2738)" class="st4" width="66.95" height="203.44"/>
	
		<rect id="XMLID_2021_" x="507.47" y="133.42" transform="matrix(-1 -1.224647e-16 1.224647e-16 -1 1064.7163 470.2738)" class="st6" width="49.77" height="203.44"/>
	
		<rect id="XMLID_2020_" x="552.64" y="110.21" transform="matrix(-1 -1.224647e-16 1.224647e-16 -1 1166.7407 244.4858)" class="st4" width="61.47" height="24.07"/>
	
		<rect id="XMLID_2019_" x="513.34" y="110.21" transform="matrix(-1 -1.224647e-16 1.224647e-16 -1 1072.382 244.4858)" class="st6" width="45.7" height="24.07"/>
	<polygon id="XMLID_2018_" class="st4" points="552.64,110.7 614.1,110.7 596.22,86.63 534.76,86.63 	"/>
	<polygon id="XMLID_2017_" class="st7" points="552.64,110.7 614.1,110.7 596.22,86.63 534.76,86.63 	"/>
	<polygon id="XMLID_2016_" class="st6" points="513.34,110.7 559.04,110.7 541.16,86.63 531.22,86.63 	"/>
	<g id="XMLID_2121_">
		<g id="XMLID_2012_">
			<rect id="XMLID_2162_" x="601.94" y="154.48" class="st4" width="10.4" height="18.88"/>
			<rect id="XMLID_2128_" x="583.45" y="154.48" class="st4" width="10.4" height="18.88"/>
			<rect id="XMLID_2127_" x="564.96" y="154.48" class="st4" width="10.4" height="18.88"/>
		</g>
		<g id="XMLID_2008_">
			<rect id="XMLID_2006_" x="601.94" y="190.25" class="st4" width="10.4" height="18.88"/>
			<rect id="XMLID_2126_" x="583.45" y="190.25" class="st4" width="10.4" height="18.88"/>
			<rect id="XMLID_2125_" x="564.96" y="190.25" class="st4" width="10.4" height="18.88"/>
		</g>
		<g id="XMLID_2004_">
			<rect id="XMLID_2122_" x="601.94" y="226.02" class="st4" width="10.4" height="18.88"/>
			<rect id="XMLID_2156_" x="583.45" y="226.02" class="st4" width="10.4" height="18.88"/>
			<rect id="XMLID_2145_" x="564.96" y="226.02" class="st4" width="10.4" height="18.88"/>
		</g>
		<g id="XMLID_2000_">
			<rect id="XMLID_2130_" x="601.94" y="261.8" class="st4" width="10.4" height="18.88"/>
			<rect id="XMLID_2142_" x="583.45" y="261.8" class="st4" width="10.4" height="18.88"/>
			<rect id="XMLID_2133_" x="564.96" y="261.8" class="st4" width="10.4" height="18.88"/>
		</g>
		<g id="XMLID_1996_">
			<rect id="XMLID_2132_" x="601.94" y="297.57" class="st4" width="10.4" height="18.88"/>
			
				<rect id="XMLID_1998_" x="583.44" y="297.57" transform="matrix(-1 -1.224647e-16 1.224647e-16 -1 1177.286 614.0194)" class="st4" width="10.4" height="18.88"/>
			
				<rect id="XMLID_1997_" x="564.95" y="297.57" transform="matrix(-1 -1.224647e-16 1.224647e-16 -1 1140.3055 614.0194)" class="st4" width="10.4" height="18.88"/>
		</g>
	</g>
	
		<rect id="XMLID_1995_" x="507.47" y="140.08" transform="matrix(-1 -1.224647e-16 1.224647e-16 -1 1124.6884 283.1603)" class="st4" width="109.74" height="3"/>
	<g id="XMLID_1991_">
		<rect id="XMLID_1994_" x="523.05" y="113.01" class="st4" width="5.2" height="12.63"/>
		<rect id="XMLID_1993_" x="530.31" y="113.01" class="st4" width="8.89" height="12.63"/>
		<rect id="XMLID_1992_" x="541.26" y="113.01" class="st4" width="5.2" height="12.63"/>
	</g>
	<g id="XMLID_1989_">
		<rect id="XMLID_1990_" x="565.24" y="115.93" class="st4" width="4.91" height="12.63"/>
	</g>
	<g id="XMLID_1987_">
		<rect id="XMLID_1988_" x="578.46" y="115.93" class="st4" width="4.91" height="12.63"/>
	</g>
	<g id="XMLID_1985_">
		<rect id="XMLID_1986_" x="591.68" y="115.93" class="st4" width="4.91" height="12.63"/>
	</g>
	<g id="XMLID_1983_">
		<rect id="XMLID_1984_" x="604.9" y="115.93" class="st4" width="4.91" height="12.63"/>
	</g>
	<g id="XMLID_1975_">
		<g id="XMLID_1979_">
			<g id="XMLID_1980_">
				
					<rect id="XMLID_1982_" x="536.34" y="154.49" transform="matrix(-1 -1.224647e-16 1.224647e-16 -1 1083.0878 327.8548)" class="st4" width="10.4" height="18.88"/>
				
					<rect id="XMLID_1981_" x="517.85" y="154.49" transform="matrix(-1 -1.224647e-16 1.224647e-16 -1 1046.1073 327.8548)" class="st4" width="10.4" height="18.88"/>
			</g>
		</g>
		<g id="XMLID_1976_">
			<rect id="XMLID_1978_" x="517.91" y="170.68" class="st7" width="10.41" height="2.7"/>
			<rect id="XMLID_1977_" x="536.4" y="170.68" class="st7" width="10.41" height="2.7"/>
		</g>
	</g>
	<g id="XMLID_1967_">
		<g id="XMLID_1971_">
			<g id="XMLID_1972_">
				
					<rect id="XMLID_1974_" x="536.34" y="190.25" transform="matrix(-1 -1.224647e-16 1.224647e-16 -1 1083.0878 399.3902)" class="st4" width="10.4" height="18.88"/>
				
					<rect id="XMLID_1973_" x="517.85" y="190.25" transform="matrix(-1 -1.224647e-16 1.224647e-16 -1 1046.1073 399.3902)" class="st4" width="10.4" height="18.88"/>
			</g>
		</g>
		<g id="XMLID_1968_">
			<rect id="XMLID_1970_" x="517.91" y="206.44" class="st7" width="10.41" height="2.7"/>
			<rect id="XMLID_1969_" x="536.4" y="206.44" class="st7" width="10.41" height="2.7"/>
		</g>
	</g>
	<g id="XMLID_1959_">
		<g id="XMLID_1963_">
			<g id="XMLID_1964_">
				
					<rect id="XMLID_1966_" x="536.34" y="226.02" transform="matrix(-1 -1.224647e-16 1.224647e-16 -1 1083.0878 470.9256)" class="st4" width="10.4" height="18.88"/>
				
					<rect id="XMLID_1965_" x="517.85" y="226.02" transform="matrix(-1 -1.224647e-16 1.224647e-16 -1 1046.1073 470.9256)" class="st4" width="10.4" height="18.88"/>
			</g>
		</g>
		<g id="XMLID_1960_">
			<rect id="XMLID_1962_" x="517.91" y="242.21" class="st7" width="10.41" height="2.7"/>
			<rect id="XMLID_1961_" x="536.4" y="242.21" class="st7" width="10.41" height="2.7"/>
		</g>
	</g>
	<g id="XMLID_1951_">
		<g id="XMLID_1955_">
			<g id="XMLID_1956_">
				
					<rect id="XMLID_1958_" x="536.34" y="261.79" transform="matrix(-1 -1.224647e-16 1.224647e-16 -1 1083.0878 542.461)" class="st4" width="10.4" height="18.88"/>
				
					<rect id="XMLID_1957_" x="517.85" y="261.79" transform="matrix(-1 -1.224647e-16 1.224647e-16 -1 1046.1073 542.461)" class="st4" width="10.4" height="18.88"/>
			</g>
		</g>
		<g id="XMLID_1952_">
			<rect id="XMLID_1954_" x="517.91" y="277.98" class="st7" width="10.41" height="2.7"/>
			<rect id="XMLID_1953_" x="536.4" y="277.98" class="st7" width="10.41" height="2.7"/>
		</g>
	</g>
	<g id="XMLID_1943_">
		<g id="XMLID_1947_">
			<g id="XMLID_1948_">
				
					<rect id="XMLID_1950_" x="536.34" y="297.56" transform="matrix(-1 -1.224647e-16 1.224647e-16 -1 1083.0878 613.9966)" class="st4" width="10.4" height="18.88"/>
				
					<rect id="XMLID_1949_" x="517.85" y="297.56" transform="matrix(-1 -1.224647e-16 1.224647e-16 -1 1046.1073 613.9966)" class="st4" width="10.4" height="18.88"/>
			</g>
		</g>
		<g id="XMLID_1944_">
			<rect id="XMLID_1946_" x="517.91" y="313.75" class="st7" width="10.41" height="2.7"/>
			<rect id="XMLID_1945_" x="536.4" y="313.75" class="st7" width="10.41" height="2.7"/>
		</g>
	</g>
</g>
<g id="XMLID_1899_">
	<rect id="XMLID_1941_" x="135.59" y="172.28" class="st4" width="75.52" height="164.58"/>
	<rect id="XMLID_1940_" x="204.71" y="172.28" class="st6" width="45.7" height="164.58"/>
	<polygon id="XMLID_1939_" class="st4" points="211.11,172.77 135.59,172.77 153.47,148.7 228.99,148.7 	"/>
	<polygon id="XMLID_1938_" class="st7" points="211.11,172.77 135.59,172.77 153.47,148.7 228.99,148.7 	"/>
	<polygon id="XMLID_1937_" class="st6" points="250.4,172.77 204.71,172.77 222.59,148.7 232.52,148.7 	"/>
	<g id="XMLID_1935_">
		
			<rect id="XMLID_1936_" x="135.59" y="184.06" transform="matrix(-1 -1.224647e-16 1.224647e-16 -1 326.9286 380.7517)" class="st4" width="55.75" height="12.63"/>
	</g>
	<g id="XMLID_1933_">
		
			<rect id="XMLID_1934_" x="135.59" y="206.47" transform="matrix(-1 -1.224647e-16 1.224647e-16 -1 326.9286 425.5782)" class="st4" width="55.75" height="12.63"/>
	</g>
	<g id="XMLID_1931_">
		
			<rect id="XMLID_1932_" x="135.59" y="228.89" transform="matrix(-1 -1.224647e-16 1.224647e-16 -1 326.9286 470.4047)" class="st4" width="55.75" height="12.63"/>
	</g>
	<g id="XMLID_1929_">
		
			<rect id="XMLID_1930_" x="135.59" y="251.3" transform="matrix(-1 -1.224647e-16 1.224647e-16 -1 326.9286 515.2311)" class="st4" width="55.75" height="12.63"/>
	</g>
	<g id="XMLID_1927_">
		
			<rect id="XMLID_1928_" x="135.59" y="273.71" transform="matrix(-1 -1.224647e-16 1.224647e-16 -1 326.9286 560.0576)" class="st4" width="55.75" height="12.63"/>
	</g>
	<g id="XMLID_1925_">
		
			<rect id="XMLID_1926_" x="135.59" y="296.13" transform="matrix(-1 -1.224647e-16 1.224647e-16 -1 326.9286 604.8841)" class="st4" width="55.75" height="12.63"/>
	</g>
	<g id="XMLID_1920_">
		<g id="XMLID_1923_">
			
				<rect id="XMLID_1924_" x="224.54" y="177.74" transform="matrix(-1 -1.224647e-16 1.224647e-16 -1 457.9815 368.1199)" class="st4" width="8.89" height="12.63"/>
		</g>
		<g id="XMLID_1921_">
			
				<rect id="XMLID_1922_" x="224.54" y="187.38" transform="matrix(-1 -1.224647e-16 1.224647e-16 -1 457.9815 377.7546)" class="st7" width="8.89" height="3"/>
		</g>
	</g>
	<g id="XMLID_1915_">
		<g id="XMLID_1918_">
			
				<rect id="XMLID_1919_" x="224.54" y="209.06" transform="matrix(-1 -1.224647e-16 1.224647e-16 -1 457.9815 430.7523)" class="st4" width="8.89" height="12.63"/>
		</g>
		<g id="XMLID_1916_">
			
				<rect id="XMLID_1917_" x="224.54" y="218.7" transform="matrix(-1 -1.224647e-16 1.224647e-16 -1 457.9815 440.3871)" class="st7" width="8.89" height="3"/>
		</g>
	</g>
	<g id="XMLID_1910_">
		<g id="XMLID_1913_">
			
				<rect id="XMLID_1914_" x="224.54" y="240.38" transform="matrix(-1 -1.224647e-16 1.224647e-16 -1 457.9815 493.3849)" class="st4" width="8.89" height="12.63"/>
		</g>
		<g id="XMLID_1911_">
			
				<rect id="XMLID_1912_" x="224.54" y="250.01" transform="matrix(-1 -1.224647e-16 1.224647e-16 -1 457.9815 503.0196)" class="st7" width="8.89" height="3"/>
		</g>
	</g>
	<g id="XMLID_1905_">
		<g id="XMLID_1908_">
			
				<rect id="XMLID_1909_" x="224.54" y="271.69" transform="matrix(-1 -1.224647e-16 1.224647e-16 -1 457.9815 556.0173)" class="st4" width="8.89" height="12.63"/>
		</g>
		<g id="XMLID_1906_">
			
				<rect id="XMLID_1907_" x="224.54" y="281.33" transform="matrix(-1 -1.224647e-16 1.224647e-16 -1 457.9815 565.6521)" class="st7" width="8.89" height="3"/>
		</g>
	</g>
	<g id="XMLID_1900_">
		<g id="XMLID_1903_">
			
				<rect id="XMLID_1904_" x="224.54" y="303.01" transform="matrix(-1 -1.224647e-16 1.224647e-16 -1 457.9815 618.6499)" class="st4" width="8.89" height="12.63"/>
		</g>
		<g id="XMLID_1901_">
			
				<rect id="XMLID_1902_" x="224.54" y="312.64" transform="matrix(-1 -1.224647e-16 1.224647e-16 -1 457.9815 628.2846)" class="st7" width="8.89" height="3"/>
		</g>
	</g>
</g>
<g id="XMLID_1876_">
	<rect id="XMLID_1898_" x="299.8" y="301" class="st4" width="131.07" height="35.85"/>
	<g id="XMLID_1895_">
		<polygon id="XMLID_1897_" class="st5" points="404.29,301 398.14,307.16 391.19,314.1 368.44,336.86 313.02,336.86 348.87,301 		
			"/>
		<polygon id="XMLID_1896_" class="st5" points="430.87,301 430.87,317.46 411.48,336.86 383.77,336.86 419.62,301 		"/>
	</g>
	<rect id="XMLID_1894_" x="299.81" y="301" class="st4" width="131.06" height="13.1"/>
	<rect id="XMLID_1893_" x="294.32" y="301" class="st9" width="142.03" height="6.15"/>
	<g id="XMLID_1888_">
		<g id="XMLID_1890_">
			<rect id="XMLID_1892_" x="299.8" y="307.15" class="st9" width="4.6" height="29.7"/>
			<rect id="XMLID_1891_" x="299.8" y="307.15" class="st10" width="4.6" height="3.8"/>
		</g>
		<rect id="XMLID_1889_" x="304.4" y="307.15" class="st4" width="3.05" height="29.7"/>
	</g>
	<g id="XMLID_1883_">
		<g id="XMLID_1885_">
			<rect id="XMLID_1887_" x="320.5" y="307.15" class="st9" width="4.6" height="29.7"/>
			<rect id="XMLID_1886_" x="320.5" y="307.15" class="st10" width="4.6" height="3.8"/>
		</g>
		<rect id="XMLID_1884_" x="325.1" y="307.15" class="st4" width="3.05" height="29.7"/>
	</g>
	<g id="XMLID_1878_">
		<g id="XMLID_1880_">
			
				<rect id="XMLID_1882_" x="426.27" y="307.15" transform="matrix(-1 -1.224647e-16 1.224647e-16 -1 857.1382 644.0127)" class="st9" width="4.6" height="29.7"/>
			
				<rect id="XMLID_1881_" x="426.27" y="307.15" transform="matrix(-1 -1.224647e-16 1.224647e-16 -1 857.1382 618.1115)" class="st10" width="4.6" height="3.8"/>
		</g>
		
			<rect id="XMLID_1879_" x="423.22" y="307.15" transform="matrix(-1 -1.224647e-16 1.224647e-16 -1 849.4914 644.0119)" class="st4" width="3.05" height="29.7"/>
	</g>
	<rect id="XMLID_1877_" x="294.32" y="299.43" class="st7" width="142.03" height="1.57"/>
</g>
<g id="XMLID_1868_">
	<rect id="XMLID_1875_" x="106.44" y="318.82" class="st11" width="4.74" height="18.04"/>
	<polygon id="XMLID_1874_" class="st12" points="111.17,327.86 106.44,326.11 106.44,317.09 111.17,317.09 	"/>
	<path id="XMLID_1873_" class="st13" d="M123.09,309.98c0,7.89-6.4,14.29-14.29,14.29c-5.69,0-10.61-3.34-12.91-8.15
		c-0.89-1.87-1.39-3.94-1.39-6.14c0-7.89,6.4-14.29,14.29-14.29c3.34,0,6.42,1.14,8.85,3.07
		C120.97,301.37,123.09,305.43,123.09,309.98z"/>
	<path id="XMLID_1872_" class="st9" d="M104.66,301.57c4.57-0.65,9.17-0.92,13.76-0.8c-0.21-0.69-0.46-1.37-0.77-2.01
		c-2.43-1.92-5.51-3.07-8.85-3.07c-5.47,0-10.22,3.08-12.62,7.6C98.96,302.52,101.8,301.98,104.66,301.57z"/>
	<path id="XMLID_1871_" class="st9" d="M104.33,306.99c4.8,0.05,9.59,0.4,14.34,1.05c0.23-1.02,0.36-2.07,0.36-3.16
		c0-0.66-0.05-1.31-0.14-1.95c-3.63-0.11-7.26,0.01-10.89,0.38c-4.19,0.43-8.39,1.15-12.43,2.39c-0.15,0.04-0.3,0.09-0.45,0.14
		c-0.15,0.48-0.26,0.98-0.35,1.49C97.95,306.99,101.18,306.96,104.33,306.99z"/>
	<path id="XMLID_1870_" class="st9" d="M105.54,312.76c3.72,0.15,7.43,0.12,11.14-0.05c0.53-0.8,0.98-1.66,1.34-2.57
		c-4.1-0.55-8.23-0.87-12.38-0.96c-3.62-0.08-7.42-0.13-11.11,0.32c-0.01,0.16-0.02,0.32-0.02,0.48c0,0.5,0.03,0.99,0.08,1.48
		C98.24,311.95,101.89,312.6,105.54,312.76z"/>
	<path id="XMLID_1869_" class="st9" d="M105.54,314.92c-3.5-0.15-7.02-0.75-10.54-1.24c0.23,0.85,0.52,1.66,0.9,2.44
		c2.43,1.92,5.51,3.06,8.84,3.06c3.97,0,7.56-1.63,10.14-4.25C111.77,315.04,108.66,315.05,105.54,314.92z"/>
</g>
<g id="XMLID_1858_">
	<rect id="XMLID_1867_" x="625.75" y="294.09" class="st11" width="6.82" height="42.77"/>
	<polygon id="XMLID_1866_" class="st12" points="632.57,307.11 625.75,304.59 625.75,291.6 632.57,291.6 	"/>
	<path id="XMLID_1865_" class="st13" d="M649.73,281.36c0,11.36-9.21,20.58-20.58,20.58c-8.19,0-15.28-4.8-18.59-11.74
		c-1.28-2.69-2-5.68-2-8.85c0-11.37,9.22-20.58,20.58-20.58c4.81,0,9.24,1.65,12.74,4.42C646.67,268.96,649.73,274.8,649.73,281.36z
		"/>
	<path id="XMLID_1864_" class="st9" d="M639,277.89c1.46,0.2,2.91,0.45,4.35,0.72c0.22-0.98,0.37-1.98,0.45-3
		c-3.69-1.48-7.43-2.77-11.05-3.91c-6.05-1.91-13.27-3.52-19.95-2.8c-2.27,2.98-3.76,6.58-4.13,10.52c2.39-0.53,4.8-0.95,7.25-1.28
		C623.59,277.13,631.32,276.83,639,277.89z"/>
	<path id="XMLID_1863_" class="st9" d="M628.83,287.24c2.75,0.6,5.47,1.33,8.18,2.12c2.36-2.11,4.24-4.76,5.42-7.76
		c-5.63-1.02-11.29-1.46-17.03-1.18c-5.63,0.28-11.28,0.9-16.79,2.18c0.07,1.13,0.22,2.23,0.46,3.3c0.27-0.03,0.55-0.06,0.82-0.08
		C616.26,285.39,622.6,285.87,628.83,287.24z"/>
	<path id="XMLID_1862_" class="st9" d="M628,290.24c-5.94-1.29-11.95-1.69-17.98-1.31c0.17,0.43,0.35,0.86,0.55,1.27
		c3.5,2.76,7.93,4.41,12.73,4.41c3.86,0,7.45-1.08,10.54-2.92C631.9,291.16,629.96,290.67,628,290.24z"/>
	<path id="XMLID_1861_" class="st9" d="M631.05,267.95c4.16,1.15,8.49,2.54,12.74,4.21c-0.22-2.47-0.87-4.83-1.89-6.97
		c-3.5-2.77-7.93-4.42-12.74-4.42c-5.1,0-9.76,1.87-13.35,4.94C620.93,265.65,626.19,266.61,631.05,267.95z"/>
	<path id="XMLID_1860_" class="st7" d="M616.67,268.74c-1.3-0.02-2.59,0.01-3.87,0.15c-2.09,2.74-3.51,6.01-4.01,9.57
		C610.69,274.48,613.42,271.23,616.67,268.74z"/>
	<path id="XMLID_1859_" class="st7" d="M632.42,263.03c1.84-0.31,3.64-0.42,5.41-0.34c-2.64-1.23-5.57-1.92-8.67-1.92
		c-5.1,0-9.76,1.87-13.35,4.94c1.76-0.02,3.53,0.08,5.29,0.27C624.6,264.24,628.47,263.24,632.42,263.03z"/>
</g>
<g id="XMLID_1846_">
	<rect id="XMLID_1857_" x="130.87" y="306.56" class="st11" width="7.96" height="30.3"/>
	<polygon id="XMLID_1856_" class="st12" points="138.83,321.75 130.87,318.81 130.87,303.66 138.83,303.66 	"/>
	<circle id="XMLID_1855_" class="st9" cx="134.85" cy="291.7" r="24.01"/>
	<path id="XMLID_1854_" class="st13" d="M158.85,291.71c0,13.25-10.75,24.01-24.01,24.01c-9.56,0-17.82-5.6-21.68-13.69
		c-1.5-3.13-2.33-6.63-2.33-10.32c0-13.26,10.76-24.01,24.01-24.01c5.62,0,10.78,1.92,14.87,5.15
		C155.28,277.24,158.85,284.06,158.85,291.71z"/>
	<path id="XMLID_1853_" class="st9" d="M135.32,290.99c-5.33-2.94-10.57-6.33-15.17-10.33c-1.33-1.16-2.8-2.46-4.32-3.57
		c-2,2.59-3.47,5.6-4.27,8.87c2.17,0.79,4.33,1.63,6.49,2.46c6.96,2.67,13.96,5.26,20.71,8.45c2.11,1,4.23,2.06,6.3,3.2
		c1.06-1.07,2.03-2.24,2.88-3.5C143.57,295.09,139.36,293.21,135.32,290.99z"/>
	<path id="XMLID_1852_" class="st9" d="M149.02,280.14c0.94,1.37,1.92,2.66,2.96,3.89c0.01-0.29,0.04-0.58,0.04-0.87
		c0-3.68-0.83-7.18-2.32-10.31c-2.27-1.8-4.89-3.17-7.73-4.05C144.39,273.57,147.68,278.2,149.02,280.14z"/>
	<path id="XMLID_1851_" class="st9" d="M121.69,277.16c6.11,5.37,13.22,9.89,20.61,13.3c2.45,1.13,4.92,2.05,7.44,2.85
		c0.68-1.44,1.21-2.96,1.59-4.54c-0.56-0.55-1.12-1.11-1.64-1.7c-2.82-3.21-5.17-6.94-7.34-10.6c-1.3-2.19-3.14-5.28-4.55-8.58
		c-0.97-0.12-1.96-0.2-2.96-0.2c-6.37,0-12.15,2.5-16.45,6.55C119.6,275.26,120.72,276.3,121.69,277.16z"/>
	<path id="XMLID_1850_" class="st9" d="M128.77,296.45c-5.84-2.38-11.93-4.33-17.84-6.61c-0.05,0.62-0.09,1.23-0.09,1.86
		c0,3.69,0.83,7.18,2.33,10.32c4.08,3.22,9.25,5.14,14.85,5.14c5.3,0,10.17-1.73,14.14-4.64
		C137.8,300.2,133.21,298.25,128.77,296.45z"/>
	<path id="XMLID_1849_" class="st7" d="M118.32,279.06c-0.8-0.68-1.63-1.36-2.48-1.98c-2,2.59-3.47,5.6-4.27,8.87
		c0.27,0.1,0.54,0.21,0.8,0.3C113.91,283.58,115.9,281.16,118.32,279.06z"/>
	<path id="XMLID_1848_" class="st7" d="M148.58,272.04c-2-1.39-4.21-2.5-6.59-3.24c0.38,0.75,0.78,1.5,1.2,2.23
		C145.02,271.18,146.83,271.52,148.58,272.04z"/>
	<path id="XMLID_1847_" class="st7" d="M133.36,271.74c1.95-0.43,3.93-0.69,5.9-0.78c-0.51-0.99-1-2.01-1.45-3.07
		c-0.97-0.12-1.96-0.2-2.96-0.2c-6.37,0-12.15,2.5-16.45,6.55c1.05,0.88,2,1.76,2.88,2.54C124.7,274.5,128.75,272.76,133.36,271.74z
		"/>
</g>
<g id="XMLID_1834_">
	<rect id="XMLID_1845_" x="649.6" y="316.49" class="st11" width="5.35" height="20.37"/>
	<polygon id="XMLID_1844_" class="st12" points="654.94,326.7 649.6,324.72 649.6,314.54 654.94,314.54 	"/>
	<circle id="XMLID_1843_" class="st9" cx="652.27" cy="306.51" r="16.14"/>
	<path id="XMLID_1842_" class="st13" d="M668.41,306.51c0,8.91-7.22,16.14-16.14,16.14c-6.42,0-11.98-3.77-14.57-9.2
		c-1.01-2.11-1.56-4.45-1.56-6.94c0-8.92,7.23-16.14,16.14-16.14c3.78,0,7.25,1.29,9.99,3.46
		C666,296.79,668.41,301.37,668.41,306.51z"/>
	<path id="XMLID_1841_" class="st9" d="M652.59,306.02c-3.59-1.97-7.1-4.26-10.19-6.95c-0.9-0.78-1.88-1.65-2.9-2.4
		c-1.34,1.74-2.33,3.76-2.87,5.96c1.46,0.53,2.91,1.09,4.36,1.65c4.68,1.8,9.39,3.53,13.92,5.68c1.42,0.67,2.84,1.39,4.24,2.15
		c0.72-0.72,1.36-1.51,1.93-2.35C658.13,308.79,655.3,307.52,652.59,306.02z"/>
	<path id="XMLID_1840_" class="st9" d="M661.79,298.73c0.63,0.92,1.29,1.79,1.99,2.61c0.01-0.2,0.03-0.39,0.03-0.59
		c0-2.47-0.56-4.83-1.56-6.93c-1.53-1.21-3.29-2.13-5.19-2.72C658.68,294.32,660.89,297.43,661.79,298.73z"/>
	<path id="XMLID_1839_" class="st9" d="M643.43,296.73c4.11,3.61,8.89,6.65,13.85,8.94c1.64,0.76,3.31,1.38,5,1.92
		c0.45-0.97,0.81-1.99,1.07-3.05c-0.38-0.37-0.75-0.74-1.1-1.14c-1.9-2.16-3.48-4.67-4.94-7.13c-0.87-1.47-2.11-3.55-3.06-5.77
		c-0.65-0.08-1.32-0.14-1.99-0.14c-4.28,0-8.17,1.68-11.06,4.4C642.02,295.45,642.77,296.15,643.43,296.73z"/>
	<path id="XMLID_1838_" class="st9" d="M648.18,309.7c-3.93-1.6-8.02-2.91-11.99-4.44c-0.03,0.41-0.06,0.83-0.06,1.25
		c0,2.48,0.56,4.83,1.56,6.94c2.75,2.16,6.22,3.46,9.98,3.46c3.56,0,6.84-1.17,9.51-3.12C654.25,312.22,651.17,310.91,648.18,309.7z
		"/>
	<path id="XMLID_1837_" class="st7" d="M641.11,297.97c-0.52-0.44-1.06-0.88-1.62-1.29c-1.34,1.73-2.32,3.75-2.87,5.94
		C638.03,300.91,639.52,299.33,641.11,297.97z"/>
	<path id="XMLID_1836_" class="st7" d="M662.41,294.19c-0.05-0.12-0.1-0.24-0.15-0.36c-1.53-1.21-3.29-2.13-5.19-2.72
		c0.32,0.63,0.66,1.26,1.01,1.87C659.59,293.23,661.04,293.63,662.41,294.19z"/>
	<path id="XMLID_1835_" class="st7" d="M655.31,292.71c-0.37-0.71-0.73-1.44-1.05-2.2c-0.65-0.08-1.32-0.14-1.99-0.14
		c-4.28,0-8.17,1.68-11.06,4.4c0.68,0.57,1.3,1.14,1.88,1.66C646.57,293.99,650.55,292.55,655.31,292.71z"/>
</g>
<g id="XMLID_1811_">
	<g id="XMLID_1830_">
		<rect id="XMLID_1833_" x="582.88" y="324.27" class="st7" width="4.36" height="12.59"/>
		<path id="XMLID_1832_" class="st7" d="M587.61,321.73c0,1.41-1.14,2.54-2.54,2.54c-1.41,0-2.54-1.14-2.54-2.54
			s1.14-2.54,2.54-2.54C586.47,319.18,587.61,320.32,587.61,321.73z"/>
		<rect id="XMLID_1831_" x="581.74" y="324.27" class="st7" width="6.65" height="2.8"/>
	</g>
	<rect id="XMLID_1829_" x="585.06" y="327.86" class="st7" width="16.95" height="2.14"/>
	<rect id="XMLID_1828_" x="585.06" y="332.59" class="st7" width="16.95" height="2.14"/>
	<g id="XMLID_1824_">
		<rect id="XMLID_1827_" x="599.96" y="324.27" class="st7" width="4.36" height="12.59"/>
		<path id="XMLID_1826_" class="st7" d="M604.69,321.73c0,1.41-1.14,2.54-2.54,2.54s-2.54-1.14-2.54-2.54s1.14-2.54,2.54-2.54
			S604.69,320.32,604.69,321.73z"/>
		<rect id="XMLID_1825_" x="598.82" y="324.27" class="st7" width="6.65" height="2.8"/>
	</g>
	<rect id="XMLID_1823_" x="602.15" y="327.86" class="st7" width="16.95" height="2.14"/>
	<rect id="XMLID_1822_" x="602.15" y="332.59" class="st7" width="16.95" height="2.14"/>
	<g id="XMLID_1818_">
		<rect id="XMLID_1821_" x="617.04" y="324.27" class="st7" width="4.36" height="12.59"/>
		<path id="XMLID_1820_" class="st7" d="M621.77,321.73c0,1.41-1.14,2.54-2.54,2.54s-2.54-1.14-2.54-2.54s1.14-2.54,2.54-2.54
			S621.77,320.32,621.77,321.73z"/>
		<rect id="XMLID_1819_" x="615.9" y="324.27" class="st7" width="6.65" height="2.8"/>
	</g>
	<rect id="XMLID_1817_" x="619.23" y="327.86" class="st7" width="16.95" height="2.14"/>
	<rect id="XMLID_1816_" x="619.23" y="332.59" class="st7" width="16.95" height="2.14"/>
	<g id="XMLID_1812_">
		<rect id="XMLID_1815_" x="634.13" y="324.27" class="st7" width="4.36" height="12.59"/>
		<path id="XMLID_1814_" class="st7" d="M638.85,321.73c0,1.41-1.14,2.54-2.54,2.54c-1.41,0-2.54-1.14-2.54-2.54
			s1.14-2.54,2.54-2.54C637.71,319.18,638.85,320.32,638.85,321.73z"/>
		<rect id="XMLID_1813_" x="632.98" y="324.27" class="st7" width="6.65" height="2.8"/>
	</g>
</g>
<g id="XMLID_1788_">
	<g id="XMLID_1807_">
		<rect id="XMLID_1810_" x="176.9" y="324.27" class="st7" width="4.36" height="12.59"/>
		<path id="XMLID_1809_" class="st7" d="M181.63,321.73c0,1.41-1.14,2.54-2.54,2.54s-2.54-1.14-2.54-2.54s1.14-2.54,2.54-2.54
			S181.63,320.32,181.63,321.73z"/>
		<rect id="XMLID_1808_" x="175.76" y="324.27" class="st7" width="6.65" height="2.8"/>
	</g>
	<rect id="XMLID_1806_" x="179.09" y="327.86" class="st7" width="16.95" height="2.14"/>
	<rect id="XMLID_1805_" x="179.09" y="332.59" class="st7" width="16.95" height="2.14"/>
	<g id="XMLID_1801_">
		<rect id="XMLID_1804_" x="193.98" y="324.27" class="st7" width="4.36" height="12.59"/>
		<path id="XMLID_1803_" class="st7" d="M198.71,321.73c0,1.41-1.14,2.54-2.54,2.54c-1.41,0-2.54-1.14-2.54-2.54
			s1.14-2.54,2.54-2.54C197.57,319.18,198.71,320.32,198.71,321.73z"/>
		<rect id="XMLID_1802_" x="192.84" y="324.27" class="st7" width="6.65" height="2.8"/>
	</g>
	<rect id="XMLID_1800_" x="196.17" y="327.86" class="st7" width="16.95" height="2.14"/>
	<rect id="XMLID_1799_" x="196.17" y="332.59" class="st7" width="16.95" height="2.14"/>
	<g id="XMLID_1795_">
		<rect id="XMLID_1798_" x="211.07" y="324.27" class="st7" width="4.36" height="12.59"/>
		<path id="XMLID_1797_" class="st7" d="M215.79,321.73c0,1.41-1.14,2.54-2.54,2.54s-2.54-1.14-2.54-2.54s1.14-2.54,2.54-2.54
			S215.79,320.32,215.79,321.73z"/>
		<rect id="XMLID_1796_" x="209.92" y="324.27" class="st7" width="6.65" height="2.8"/>
	</g>
	<rect id="XMLID_1794_" x="213.25" y="327.86" class="st7" width="16.95" height="2.14"/>
	<rect id="XMLID_1793_" x="213.25" y="332.59" class="st7" width="16.95" height="2.14"/>
	<g id="XMLID_1789_">
		<rect id="XMLID_1792_" x="228.15" y="324.27" class="st7" width="4.36" height="12.59"/>
		<path id="XMLID_1791_" class="st7" d="M232.87,321.73c0,1.41-1.14,2.54-2.54,2.54s-2.54-1.14-2.54-2.54s1.14-2.54,2.54-2.54
			S232.87,320.32,232.87,321.73z"/>
		<rect id="XMLID_1790_" x="227" y="324.27" class="st7" width="6.65" height="2.8"/>
	</g>
</g>
<g id="XMLID_1782_">
	<path id="XMLID_89_" class="st7" d="M543.46,55.06h-23.17c-0.44,0-0.79-0.36-0.79-0.8c0-0.44,0.36-0.8,0.79-0.8h22.19
		c-0.6-1.87-2.36-3.2-4.4-3.2c-0.14,0-0.27,0.01-0.4,0.02c-0.36,0.02-0.7-0.18-0.82-0.52c-1.03-2.89-3.79-4.83-6.86-4.83
		c-3.4,0-6.39,2.4-7.12,5.71c-0.09,0.43-0.52,0.7-0.95,0.61c-0.43-0.09-0.7-0.52-0.61-0.95c0.89-4.03,4.53-6.96,8.67-6.96
		c3.55,0,6.75,2.12,8.14,5.34c3.13,0.03,5.75,2.38,6.11,5.49c0.03,0.23-0.05,0.45-0.2,0.62C543.9,54.96,543.68,55.06,543.46,55.06z"
		/>
	<path id="XMLID_88_" class="st7" d="M562.2,55.06H549.6c-0.44,0-0.79-0.36-0.79-0.8c0-0.44,0.36-0.8,0.79-0.8h12.61
		c0.44,0,0.8,0.36,0.8,0.8C563,54.7,562.64,55.06,562.2,55.06z"/>
	<path id="XMLID_87_" class="st7" d="M554.64,60.79H540.2c-0.44,0-0.79-0.36-0.79-0.8c0-0.44,0.36-0.8,0.79-0.8h14.44
		c0.44,0,0.8,0.36,0.8,0.8C555.43,60.43,555.08,60.79,554.64,60.79z"/>
	<path id="XMLID_86_" class="st7" d="M513.86,55.06h-3.68c-0.44,0-0.79-0.36-0.79-0.8c0-0.44,0.36-0.8,0.79-0.8h3.68
		c0.44,0,0.79,0.36,0.79,0.8C514.65,54.7,514.3,55.06,513.86,55.06z"/>
	<path id="XMLID_85_" class="st7" d="M533.71,60.79h-3.68c-0.44,0-0.8-0.36-0.8-0.8c0-0.44,0.36-0.8,0.8-0.8h3.68
		c0.44,0,0.79,0.36,0.79,0.8C534.51,60.43,534.15,60.79,533.71,60.79z"/>
</g>
<g id="XMLID_1774_">
	<path id="XMLID_80_" class="st7" d="M503.35,85.22h-59.7c-0.23,0-0.44-0.1-0.59-0.27c-0.15-0.17-0.22-0.39-0.2-0.62
		c0.67-5.86,5.63-10.29,11.54-10.29c2.03,0,4,0.52,5.74,1.52c2.08-7.13,8.76-12.2,16.28-12.2c6.95,0,13.21,4.27,15.76,10.69
		c0.13,0,0.27-0.01,0.4-0.01c5.91,0,10.88,4.42,11.54,10.29c0.03,0.23-0.05,0.45-0.2,0.62C503.8,85.12,503.58,85.22,503.35,85.22z
		 M444.59,83.63h57.83c-0.94-4.61-5.02-7.99-9.82-7.99c-0.3,0-0.59,0.01-0.87,0.04c-0.38,0.03-0.7-0.18-0.82-0.53
		c-2.17-6.1-7.99-10.19-14.48-10.19c-7.16,0-13.47,5.06-15.01,12.04c-0.06,0.26-0.24,0.47-0.49,0.57c-0.25,0.1-0.53,0.06-0.75-0.09
		c-1.7-1.21-3.7-1.84-5.78-1.84C449.61,75.64,445.53,79.02,444.59,83.63z"/>
	<path id="XMLID_83_" class="st7" d="M451.43,89.99h-16.28c-0.44,0-0.79-0.36-0.79-0.8c0-0.44,0.36-0.8,0.79-0.8h16.28
		c0.44,0,0.8,0.36,0.8,0.8C452.23,89.63,451.87,89.99,451.43,89.99z"/>
	<path id="XMLID_82_" class="st7" d="M435.16,85.22h-10.53c-0.44,0-0.79-0.36-0.79-0.8s0.36-0.8,0.79-0.8h10.53
		c0.44,0,0.79,0.36,0.79,0.8S435.6,85.22,435.16,85.22z"/>
</g>
<g id="XMLID_1766_">
	<path id="XMLID_75_" class="st7" d="M213.11,120.68h-78.52c-0.23,0-0.44-0.1-0.59-0.27c-0.15-0.17-0.22-0.39-0.2-0.62
		c0.86-7.59,7.28-13.31,14.93-13.31c2.74,0,5.38,0.74,7.7,2.14c2.61-9.44,11.37-16.18,21.26-16.18c9.1,0,17.29,5.63,20.57,14.06
		c0.23-0.01,0.46-0.02,0.7-0.02c7.65,0,14.07,5.72,14.93,13.31c0.03,0.23-0.05,0.45-0.2,0.62
		C213.56,120.59,213.34,120.68,213.11,120.68z M135.51,119.09h76.68c-1.15-6.34-6.68-11.01-13.22-11.01c-0.4,0-0.79,0.02-1.17,0.05
		c-0.37,0.03-0.7-0.18-0.82-0.52c-2.9-8.12-10.65-13.57-19.28-13.57c-9.53,0-17.94,6.75-19.99,16.04c-0.06,0.26-0.24,0.48-0.49,0.57
		c-0.25,0.1-0.53,0.06-0.75-0.09c-2.28-1.62-4.96-2.47-7.75-2.47C142.2,108.08,136.66,112.75,135.51,119.09z"/>
	<path id="XMLID_78_" class="st7" d="M144.82,126.96h-21.41c-0.44,0-0.8-0.36-0.8-0.8s0.36-0.8,0.8-0.8h21.41
		c0.44,0,0.79,0.36,0.79,0.8S145.26,126.96,144.82,126.96z"/>
	<path id="XMLID_77_" class="st7" d="M123.41,120.68h-13.85c-0.44,0-0.79-0.36-0.79-0.8s0.36-0.8,0.79-0.8h13.85
		c0.44,0,0.79,0.36,0.79,0.8S123.85,120.68,123.41,120.68z"/>
</g>
<g id="XMLID_1755_">
	<path id="XMLID_65_" class="st7" d="M679.98,206.49h-43.75c-0.4,0-0.74-0.3-0.79-0.7c-0.04-0.33-0.06-0.67-0.06-1.01
		c0-4.81,3.92-8.73,8.73-8.73c0.63,0,1.26,0.07,1.87,0.2c2.47-4.52,7.29-7.41,12.47-7.41c5.19,0,9.89,2.78,12.4,7.29
		c0.41-0.06,0.83-0.09,1.25-0.09c4.82,0,8.73,3.92,8.73,8.73c0,0.34-0.02,0.68-0.06,1.01C680.72,206.19,680.38,206.49,679.98,206.49
		z M636.97,204.9h42.27c0-0.04,0-0.08,0-0.12c0-3.94-3.2-7.14-7.14-7.14c-0.51,0-1.02,0.05-1.52,0.16c-0.36,0.08-0.71-0.1-0.87-0.42
		c-2.16-4.28-6.47-6.94-11.26-6.94c-4.79,0-9.24,2.78-11.34,7.09c-0.17,0.35-0.57,0.52-0.95,0.41c-0.66-0.2-1.35-0.3-2.05-0.3
		c-3.94,0-7.14,3.2-7.14,7.14C636.97,204.82,636.97,204.86,636.97,204.9z"/>
	<path id="XMLID_73_" class="st7" d="M700.35,205.69h-14.28c-0.44,0-0.79-0.36-0.79-0.8c0-0.44,0.36-0.8,0.79-0.8h14.28
		c0.44,0,0.79,0.36,0.79,0.8C701.15,205.33,700.79,205.69,700.35,205.69z"/>
	<path id="XMLID_72_" class="st7" d="M712.27,205.69h-5.75c-0.44,0-0.79-0.36-0.79-0.8c0-0.44,0.36-0.8,0.79-0.8h5.75
		c0.44,0,0.79,0.36,0.79,0.8C713.07,205.33,712.71,205.69,712.27,205.69z"/>
	<path id="XMLID_71_" class="st7" d="M687.9,213.52h-25.45c-0.44,0-0.79-0.36-0.79-0.8c0-0.44,0.36-0.8,0.79-0.8h25.45
		c0.44,0,0.79,0.36,0.79,0.8C688.7,213.16,688.34,213.52,687.9,213.52z"/>
</g>
<g id="XMLID_1329_">
	<path id="XMLID_1754_" class="st14" d="M781.74,64.63c0.19,7.77-1.27,14.28-3.63,19.92c-6.25,15-18.75,24.06-23.02,35.31
		c-0.92,2.44-1.45,4.99-1.45,7.71v0.74h-26.17v-0.73c0-2.74-0.53-5.29-1.43-7.73c-4.23-11.29-16.68-20.26-22.95-35.31
		c-2.26-5.38-3.72-11.55-3.72-18.88c0-7.87,2.21-15.22,6.03-21.48c7.63-12.42,21.66-20.51,37.49-19.62
		c13.75,0.78,25.8,8.49,32.68,19.62C779.32,50.19,781.55,57.2,781.74,64.63z"/>
	<path id="XMLID_1753_" class="st15" d="M772.27,64.63c0.15,7.77-0.98,14.28-2.79,19.92c-4.81,15-14.44,24.06-17.72,35.31
		c-0.71,2.44-1.12,4.99-1.12,7.71v0.74h-20.15v-0.73c0-2.74-0.41-5.29-1.1-7.73c-3.26-11.29-12.84-20.26-17.67-35.31
		c-1.74-5.38-2.86-11.55-2.86-18.88c0-7.87,1.7-15.22,4.65-21.48c5.87-12.42,16.67-20.51,28.86-19.62
		c10.58,0.78,19.86,8.49,25.16,19.62C770.4,50.19,772.12,57.2,772.27,64.63z"/>
	<path id="XMLID_1312_" class="st14" d="M760.92,64.63c0.1,7.77-0.63,14.28-1.79,19.92c-3.09,15-9.27,24.06-11.38,35.31
		c-0.45,2.44-0.72,4.99-0.72,7.71v0.74H734.1v-0.73c0-2.74-0.26-5.29-0.71-7.73c-2.09-11.29-8.25-20.26-11.34-35.31
		c-1.12-5.38-1.84-11.55-1.84-18.88c0-7.87,1.09-15.22,2.98-21.48c3.77-12.42,10.7-20.51,18.53-19.62
		c6.79,0.78,12.75,8.49,16.15,19.62C759.72,50.19,760.82,57.2,760.92,64.63z"/>
	<path id="XMLID_1752_" class="st15" d="M748.86,64.63c0.04,7.77-0.26,14.28-0.73,19.92c-1.26,15-3.78,24.06-4.64,35.31
		c-0.19,2.44-0.29,4.99-0.29,7.71v0.74h-5.27v-0.73c0-2.74-0.11-5.29-0.29-7.73c-0.85-11.29-3.36-20.26-4.62-35.31
		c-0.46-5.38-0.75-11.55-0.75-18.88c0-7.87,0.45-15.22,1.22-21.48c1.54-12.42,4.36-20.51,7.55-19.62c2.77,0.78,5.19,8.49,6.58,19.62
		C748.37,50.19,748.82,57.2,748.86,64.63z"/>
	<path id="XMLID_1751_" class="st15" d="M755.09,119.87c-0.92,2.44-1.45,4.99-1.45,7.71v0.74h-26.17v-0.73
		c0-2.74-0.53-5.29-1.43-7.73H755.09z"/>
	<path id="XMLID_1750_" class="st14" d="M755.09,119.87c-0.37,0.99-0.67,1.98-0.92,3.01h-27.23c-0.23-1.03-0.53-2.02-0.9-3.01
		H755.09z"/>
	<path id="XMLID_1749_" class="st14" d="M753.73,125.56c-0.05,0.67-0.09,1.33-0.09,2.02v0.74h-26.17v-0.73
		c0-0.69-0.04-1.36-0.09-2.03H753.73z"/>
	<g id="XMLID_1334_">
		<path id="XMLID_61_" class="st16" d="M750.62,163.48c-0.09,0-0.17-0.01-0.26-0.04c-0.41-0.14-0.63-0.6-0.49-1.01l25.72-74.24
			c0.14-0.42,0.59-0.64,1.01-0.49c0.41,0.14,0.63,0.6,0.49,1.01l-25.72,74.24C751.26,163.28,750.95,163.48,750.62,163.48z"/>
		<path id="XMLID_67_" class="st16" d="M740.57,167.02c-0.44,0-0.79-0.36-0.79-0.8V88.45c0-0.44,0.36-0.8,0.79-0.8
			c0.44,0,0.8,0.36,0.8,0.8v77.78C741.36,166.67,741.01,167.02,740.57,167.02z"/>
		<path id="XMLID_66_" class="st16" d="M744.64,167.02c-0.05,0-0.09,0-0.14-0.01c-0.43-0.08-0.72-0.49-0.64-0.92l13.85-77.78
			c0.08-0.43,0.49-0.72,0.92-0.64c0.43,0.08,0.72,0.49,0.64,0.92l-13.85,77.78C745.35,166.75,745.02,167.02,744.64,167.02z"/>
		<path id="XMLID_60_" class="st16" d="M730.51,163.48c-0.33,0-0.64-0.21-0.75-0.54l-25.72-74.24c-0.14-0.41,0.08-0.87,0.49-1.01
			c0.42-0.15,0.87,0.08,1.01,0.49l25.72,74.24c0.14,0.42-0.08,0.87-0.49,1.01C730.69,163.47,730.6,163.48,730.51,163.48z"/>
		<path id="XMLID_64_" class="st16" d="M736.49,167.02c-0.38,0-0.71-0.27-0.78-0.66l-13.85-77.78c-0.08-0.43,0.21-0.85,0.64-0.92
			c0.42-0.08,0.85,0.21,0.92,0.64l13.85,77.78c0.08,0.43-0.21,0.85-0.64,0.92C736.59,167.02,736.54,167.02,736.49,167.02z"/>
		<path id="XMLID_63_" class="st16" d="M713.72,92.41c-3.09,0-6.18-1.1-9.38-3.3c-0.36-0.25-0.45-0.74-0.2-1.11
			c0.25-0.36,0.74-0.46,1.11-0.2c5.78,3.98,11.17,3.98,16.96,0c0.36-0.25,0.86-0.16,1.11,0.2c0.25,0.36,0.16,0.86-0.2,1.11
			C719.9,91.31,716.81,92.41,713.72,92.41z"/>
		<path id="XMLID_62_" class="st16" d="M731.58,92.41c-3.09,0-6.18-1.1-9.38-3.3c-0.36-0.25-0.45-0.74-0.2-1.11
			c0.25-0.36,0.74-0.46,1.11-0.2c5.78,3.98,11.17,3.98,16.96,0c0.36-0.25,0.86-0.16,1.11,0.2c0.25,0.36,0.16,0.86-0.2,1.11
			C737.76,91.31,734.67,92.41,731.58,92.41z"/>
		<path id="XMLID_68_" class="st16" d="M749.43,92.41c-3.09,0-6.18-1.1-9.38-3.3c-0.36-0.25-0.45-0.74-0.2-1.11
			c0.25-0.36,0.74-0.46,1.11-0.2c5.79,3.98,11.17,3.98,16.95,0c0.36-0.25,0.86-0.16,1.11,0.2c0.25,0.36,0.16,0.86-0.2,1.11
			C755.62,91.31,752.53,92.41,749.43,92.41z"/>
		<path id="XMLID_70_" class="st16" d="M767.29,92.41c-3.09,0-6.18-1.1-9.38-3.3c-0.36-0.25-0.45-0.74-0.2-1.11
			c0.25-0.36,0.74-0.46,1.11-0.2c5.78,3.98,11.17,3.98,16.95,0c0.36-0.25,0.86-0.16,1.11,0.2c0.25,0.36,0.16,0.86-0.2,1.11
			C773.47,91.31,770.38,92.41,767.29,92.41z"/>
	</g>
	<path id="XMLID_1331_" class="st17" d="M748.62,181.85h-16.1c-1.53,0-2.78-1.24-2.78-2.78v-16.6h21.66v16.6
		C751.4,180.61,750.15,181.85,748.62,181.85z"/>
	<path id="XMLID_1330_" class="st14" d="M752.22,169.98h-23.3c-0.52,0-0.95-0.42-0.95-0.95v-5.62c0-0.52,0.42-0.95,0.95-0.95h23.3
		c0.52,0,0.95,0.42,0.95,0.95v5.62C753.16,169.56,752.74,169.98,752.22,169.98z"/>
</g>
<rect id="XMLID_59_" y="336.86" class="st17" width="900" height="39.9"/>
</svg>
