<?xml version="1.0" encoding="utf-8"?>
<!-- Generator: Adobe Illustrator 27.7.0, SVG Export Plug-In . SVG Version: 6.00 Build 0)  -->
<svg version="1.1" id="Layer_1" xmlns="http://www.w3.org/2000/svg" xmlns:xlink="http://www.w3.org/1999/xlink" x="0px" y="0px"
	 viewBox="0 0 900 376.76" style="enable-background:new 0 0 900 376.76;" xml:space="preserve">
<style type="text/css">
	.st0{fill:url(#XMLID_00000110440903358119071050000000214722590275499198_);}
	.st1{opacity:0.2;}
	.st2{fill:#450F70;}
	.st3{fill:#6F3DB2;}
	.st4{fill:#FFBBB6;}
	.st5{fill:#FFFFFF;}
	.st6{opacity:0.5;fill:#785EED;}
	.st7{fill:#FFA0B6;}
	.st8{fill:#9D48C7;}
	.st9{fill:#DE58BB;}
	.st10{fill:#6633B2;}
	.st11{fill:#E860A9;}
	.st12{fill:#FFD1D7;}
	.st13{fill:#FF5C82;}
	.st14{fill:#683AC4;}
	.st15{fill:#411D73;}
	.st16{fill:#AFD4FF;}
</style>
<linearGradient id="XMLID_00000018208721963937930070000000168862246947501980_" gradientUnits="userSpaceOnUse" x1="450" y1="135.0954" x2="450" y2="535.0189">
	<stop  offset="0" style="stop-color:#764CFF"/>
	<stop  offset="1" style="stop-color:#FFBBB6"/>
</linearGradient>
<rect id="XMLID_678_" style="fill:url(#XMLID_00000018208721963937930070000000168862246947501980_);" width="900" height="336.86"/>
<g id="XMLID_389_" class="st1">
	<polygon id="XMLID_397_" class="st2" points="554.93,223.86 554.93,336.86 602.16,336.86 602.16,223.86 592.74,207.09 
		564.35,207.09 	"/>
	<polygon id="XMLID_396_" class="st2" points="519.49,155.6 519.67,155.69 519.67,336.86 484.25,336.86 484.25,336.86 
		413.41,336.86 413.41,336.86 413.41,130.36 413.41,128.21 413.41,121.76 448.83,121.76 	"/>
	<polygon id="XMLID_395_" class="st2" points="615.21,171.17 615.21,170.81 615.48,170.81 628.31,153.54 668.65,153.54 
		673.34,153.54 675.93,153.54 688.76,170.81 689.03,170.81 689.03,187.81 693.33,187.81 693.33,192.69 693.33,194.9 693.33,336.86 
		661.98,336.86 656.87,336.86 612.93,336.86 612.93,194.9 612.93,192.69 612.93,187.81 615.21,187.81 	"/>
	<polygon id="XMLID_394_" class="st2" points="196.25,218.62 196.25,218.37 196.44,218.37 205.6,206.04 234.39,206.04 
		237.74,206.04 239.58,206.04 248.74,218.37 248.93,218.37 248.93,230.5 252,230.5 252,233.98 252,235.55 252,336.86 229.62,336.86 
		225.98,336.86 194.63,336.86 194.63,235.55 194.63,233.98 194.63,230.5 196.25,230.5 	"/>
	<polygon id="XMLID_393_" class="st2" points="669.23,231.71 680.42,216.64 682.67,216.64 686.77,216.64 730.92,216.64 
		742.11,231.71 742.35,231.71 742.35,232.02 742.35,239.24 742.35,247.31 742.35,253.56 742.35,261.63 742.35,267.88 742.35,275.95 
		742.35,282.2 742.35,290.27 742.35,296.52 742.35,304.59 742.35,310.83 742.35,318.91 742.35,336.86 698.19,336.86 694.1,336.86 
		668.99,336.86 668.99,231.71 	"/>
	<polygon id="XMLID_392_" class="st2" points="675.65,264.88 683.31,254.57 684.86,254.57 687.66,254.57 717.89,254.57 
		725.55,264.88 725.71,264.88 725.71,265.09 725.71,270.03 725.71,275.56 725.71,279.84 725.71,285.36 725.71,289.64 725.71,295.16 
		725.71,299.44 725.71,304.96 725.71,309.24 725.71,314.77 725.71,319.04 725.71,324.57 725.71,336.86 695.48,336.86 692.68,336.86 
		675.49,336.86 675.49,264.88 	"/>
	<polygon id="XMLID_391_" class="st2" points="717.4,307.03 725.06,296.72 726.61,296.72 729.41,296.72 787.73,296.72 795.4,307.03 
		795.56,307.03 795.56,307.25 795.56,336.86 717.24,336.86 717.24,307.03 	"/>
	<polygon id="XMLID_700_" class="st2" points="147.75,307.03 155.41,296.72 156.96,296.72 159.76,296.72 218.09,296.72 
		225.75,307.03 225.91,307.03 225.91,307.25 225.91,336.86 147.59,336.86 147.59,307.03 	"/>
	<polygon id="XMLID_390_" class="st2" points="223.51,152.94 233.07,140.08 234.99,140.08 238.48,140.08 276.18,140.08 
		285.74,152.94 285.94,152.94 285.94,153.21 285.94,336.86 223.31,336.86 223.31,152.94 	"/>
</g>
<g id="XMLID_536_">
	
		<rect id="XMLID_578_" x="287.88" y="133.11" transform="matrix(-1 -1.224647e-16 1.224647e-16 -1 622.5857 368.2602)" class="st3" width="46.82" height="102.04"/>
	
		<rect id="XMLID_577_" x="263.52" y="133.11" transform="matrix(-1 -1.224647e-16 1.224647e-16 -1 555.3686 368.2602)" class="st4" width="28.33" height="102.04"/>
	<polygon id="XMLID_576_" class="st3" points="287.88,133.41 334.7,133.41 323.62,118.49 276.79,118.49 	"/>
	<polygon id="XMLID_575_" class="st5" points="287.88,133.41 334.7,133.41 323.62,118.49 276.79,118.49 	"/>
	<polygon id="XMLID_574_" class="st4" points="263.52,133.41 291.85,133.41 280.76,118.49 274.6,118.49 	"/>
	<g id="XMLID_572_">
		<rect id="XMLID_573_" x="300.14" y="140.41" class="st3" width="34.56" height="7.83"/>
	</g>
	<g id="XMLID_570_">
		<rect id="XMLID_571_" x="300.14" y="154.31" class="st3" width="34.56" height="7.83"/>
	</g>
	<g id="XMLID_568_">
		<rect id="XMLID_569_" x="300.14" y="168.21" class="st3" width="34.56" height="7.83"/>
	</g>
	<g id="XMLID_566_">
		<rect id="XMLID_567_" x="300.14" y="182.1" class="st3" width="34.56" height="7.83"/>
	</g>
	<g id="XMLID_564_">
		<rect id="XMLID_565_" x="300.14" y="196" class="st3" width="34.56" height="7.83"/>
	</g>
	<g id="XMLID_562_">
		<rect id="XMLID_563_" x="300.14" y="209.9" class="st3" width="34.56" height="7.83"/>
	</g>
	<g id="XMLID_557_">
		<g id="XMLID_560_">
			<rect id="XMLID_561_" x="274.04" y="136.5" class="st3" width="5.51" height="7.83"/>
		</g>
		<g id="XMLID_558_">
			<rect id="XMLID_559_" x="274.04" y="142.47" class="st5" width="5.51" height="1.86"/>
		</g>
	</g>
	<g id="XMLID_552_">
		<g id="XMLID_555_">
			<rect id="XMLID_556_" x="274.04" y="155.91" class="st3" width="5.51" height="7.83"/>
		</g>
		<g id="XMLID_553_">
			<rect id="XMLID_554_" x="274.04" y="161.89" class="st5" width="5.51" height="1.86"/>
		</g>
	</g>
	<g id="XMLID_547_">
		<g id="XMLID_550_">
			<rect id="XMLID_551_" x="274.04" y="175.33" class="st3" width="5.51" height="7.83"/>
		</g>
		<g id="XMLID_548_">
			<rect id="XMLID_549_" x="274.04" y="181.3" class="st5" width="5.51" height="1.86"/>
		</g>
	</g>
	<g id="XMLID_542_">
		<g id="XMLID_545_">
			<rect id="XMLID_546_" x="274.04" y="194.75" class="st3" width="5.51" height="7.83"/>
		</g>
		<g id="XMLID_543_">
			<rect id="XMLID_544_" x="274.04" y="200.72" class="st5" width="5.51" height="1.86"/>
		</g>
	</g>
	<g id="XMLID_537_">
		<g id="XMLID_540_">
			<rect id="XMLID_541_" x="274.04" y="214.16" class="st3" width="5.51" height="7.83"/>
		</g>
		<g id="XMLID_538_">
			<rect id="XMLID_539_" x="274.04" y="220.14" class="st5" width="5.51" height="1.86"/>
		</g>
	</g>
</g>
<g id="XMLID_494_">
	<rect id="XMLID_523_" x="234.24" y="240.32" class="st3" width="62.9" height="96.54"/>
	<g id="XMLID_520_">
		<polygon id="XMLID_522_" class="st6" points="297.13,240.32 297.13,259.61 234.24,322.5 234.24,279.87 273.79,240.32 		"/>
		<polygon id="XMLID_521_" class="st6" points="297.13,271.4 297.13,292.71 252.99,336.86 234.24,336.86 234.24,334.3 		"/>
	</g>
	<rect id="XMLID_519_" x="297.09" y="240.32" class="st3" width="114.28" height="96.54"/>
	<g id="XMLID_516_">
		<rect id="XMLID_518_" x="234.24" y="240.32" class="st4" width="62.85" height="8.5"/>
		<rect id="XMLID_517_" x="234.24" y="248.83" class="st3" width="62.85" height="2.25"/>
	</g>
	<g id="XMLID_513_">
		<rect id="XMLID_515_" x="234.24" y="260.04" class="st4" width="62.85" height="8.5"/>
		<rect id="XMLID_514_" x="234.24" y="268.54" class="st3" width="62.85" height="2.25"/>
	</g>
	<g id="XMLID_510_">
		<rect id="XMLID_512_" x="234.24" y="279.75" class="st4" width="62.85" height="8.5"/>
		<rect id="XMLID_511_" x="234.24" y="288.25" class="st3" width="62.85" height="2.25"/>
	</g>
	<g id="XMLID_507_">
		<rect id="XMLID_509_" x="234.24" y="299.46" class="st4" width="62.85" height="8.5"/>
		<rect id="XMLID_508_" x="234.24" y="307.97" class="st3" width="62.85" height="2.25"/>
	</g>
	<g id="XMLID_504_">
		<rect id="XMLID_506_" x="234.24" y="319.18" class="st4" width="62.85" height="8.5"/>
		<rect id="XMLID_505_" x="234.24" y="327.68" class="st3" width="62.85" height="2.25"/>
	</g>
	<rect id="XMLID_503_" x="234.24" y="235.47" class="st4" width="177.13" height="4.85"/>
	<rect id="XMLID_502_" x="297.09" y="235.47" class="st3" width="114.28" height="4.85"/>
	<rect id="XMLID_501_" x="297.09" y="235.47" class="st4" width="4.22" height="101.39"/>
	<rect id="XMLID_500_" x="234.24" y="235.47" class="st4" width="4.22" height="101.39"/>
	<rect id="XMLID_499_" x="238.45" y="260.04" class="st5" width="58.64" height="0.99"/>
	<rect id="XMLID_498_" x="238.45" y="279.75" class="st5" width="58.64" height="0.99"/>
	<rect id="XMLID_497_" x="238.45" y="299.46" class="st5" width="58.64" height="0.99"/>
	<rect id="XMLID_496_" x="238.45" y="319.18" class="st5" width="58.64" height="0.99"/>
	<rect id="XMLID_495_" x="234.24" y="235.47" class="st5" width="67.07" height="2.43"/>
</g>
<g id="XMLID_412_">
	
		<rect id="XMLID_493_" x="349.22" y="177.95" transform="matrix(-1 -1.224647e-16 1.224647e-16 -1 750.7364 514.808)" class="st3" width="52.29" height="158.91"/>
	
		<rect id="XMLID_492_" x="315.79" y="177.95" transform="matrix(-1 -1.224647e-16 1.224647e-16 -1 670.4644 514.808)" class="st4" width="38.88" height="158.91"/>
	
		<rect id="XMLID_491_" x="351.07" y="159.82" transform="matrix(-1 -1.224647e-16 1.224647e-16 -1 750.1554 338.4455)" class="st3" width="48.01" height="18.8"/>
	
		<rect id="XMLID_490_" x="320.38" y="159.82" transform="matrix(-1 -1.224647e-16 1.224647e-16 -1 676.452 338.4455)" class="st4" width="35.69" height="18.8"/>
	<polygon id="XMLID_489_" class="st3" points="351.07,160.2 399.08,160.2 385.12,141.4 337.1,141.4 	"/>
	<polygon id="XMLID_488_" class="st5" points="351.07,160.2 399.08,160.2 385.12,141.4 337.1,141.4 	"/>
	<polygon id="XMLID_487_" class="st4" points="320.38,160.2 356.07,160.2 342.11,141.4 334.35,141.4 	"/>
	<g id="XMLID_466_">
		<g id="XMLID_483_">
			<rect id="XMLID_486_" x="389.58" y="194.4" class="st3" width="8.12" height="14.75"/>
			<rect id="XMLID_485_" x="375.14" y="194.4" class="st3" width="8.12" height="14.75"/>
			<rect id="XMLID_484_" x="360.69" y="194.4" class="st3" width="8.12" height="14.75"/>
		</g>
		<g id="XMLID_479_">
			<rect id="XMLID_482_" x="389.58" y="222.35" class="st3" width="8.12" height="14.75"/>
			<rect id="XMLID_481_" x="375.14" y="222.35" class="st3" width="8.12" height="14.75"/>
			<rect id="XMLID_480_" x="360.69" y="222.35" class="st3" width="8.12" height="14.75"/>
		</g>
		<g id="XMLID_475_">
			<rect id="XMLID_478_" x="389.58" y="250.29" class="st3" width="8.12" height="14.75"/>
			<rect id="XMLID_477_" x="375.14" y="250.29" class="st3" width="8.12" height="14.75"/>
			<rect id="XMLID_476_" x="360.69" y="250.29" class="st3" width="8.12" height="14.75"/>
		</g>
		<g id="XMLID_471_">
			<rect id="XMLID_474_" x="389.58" y="278.23" class="st3" width="8.12" height="14.75"/>
			<rect id="XMLID_473_" x="375.14" y="278.23" class="st3" width="8.12" height="14.75"/>
			<rect id="XMLID_472_" x="360.69" y="278.23" class="st3" width="8.12" height="14.75"/>
		</g>
		<g id="XMLID_467_">
			<rect id="XMLID_470_" x="389.58" y="306.17" class="st3" width="8.12" height="14.75"/>
			
				<rect id="XMLID_469_" x="375.13" y="306.17" transform="matrix(-1 -1.224647e-16 1.224647e-16 -1 758.3924 627.0873)" class="st3" width="8.12" height="14.75"/>
			
				<rect id="XMLID_468_" x="360.69" y="306.17" transform="matrix(-1 -1.224647e-16 1.224647e-16 -1 729.507 627.0873)" class="st3" width="8.12" height="14.75"/>
		</g>
	</g>
	
		<rect id="XMLID_465_" x="315.79" y="183.15" transform="matrix(-1 -1.224647e-16 1.224647e-16 -1 717.3084 368.6541)" class="st3" width="85.72" height="2.35"/>
	<g id="XMLID_461_">
		<rect id="XMLID_464_" x="327.96" y="162.01" class="st3" width="4.06" height="9.87"/>
		<rect id="XMLID_463_" x="333.63" y="162.01" class="st3" width="6.95" height="9.87"/>
		<rect id="XMLID_462_" x="342.18" y="162.01" class="st3" width="4.06" height="9.87"/>
	</g>
	<g id="XMLID_459_">
		<rect id="XMLID_460_" x="360.92" y="164.29" class="st3" width="3.84" height="9.87"/>
	</g>
	<g id="XMLID_457_">
		<rect id="XMLID_458_" x="371.24" y="164.29" class="st3" width="3.84" height="9.87"/>
	</g>
	<g id="XMLID_455_">
		<rect id="XMLID_456_" x="381.57" y="164.29" class="st3" width="3.84" height="9.87"/>
	</g>
	<g id="XMLID_453_">
		<rect id="XMLID_454_" x="391.89" y="164.29" class="st3" width="3.84" height="9.87"/>
	</g>
	<g id="XMLID_445_">
		<g id="XMLID_449_">
			<g id="XMLID_450_">
				
					<rect id="XMLID_452_" x="338.35" y="194.41" transform="matrix(-1 -1.224647e-16 1.224647e-16 -1 684.8142 403.5647)" class="st3" width="8.12" height="14.75"/>
				
					<rect id="XMLID_451_" x="323.9" y="194.41" transform="matrix(-1 -1.224647e-16 1.224647e-16 -1 655.929 403.5647)" class="st3" width="8.12" height="14.75"/>
			</g>
		</g>
		<g id="XMLID_446_">
			<rect id="XMLID_448_" x="323.95" y="207.05" class="st5" width="8.13" height="2.11"/>
			<rect id="XMLID_447_" x="338.39" y="207.05" class="st5" width="8.13" height="2.11"/>
		</g>
	</g>
	<g id="XMLID_437_">
		<g id="XMLID_441_">
			<g id="XMLID_442_">
				
					<rect id="XMLID_444_" x="338.35" y="222.35" transform="matrix(-1 -1.224647e-16 1.224647e-16 -1 684.8142 459.4409)" class="st3" width="8.12" height="14.75"/>
				
					<rect id="XMLID_443_" x="323.9" y="222.35" transform="matrix(-1 -1.224647e-16 1.224647e-16 -1 655.929 459.4409)" class="st3" width="8.12" height="14.75"/>
			</g>
		</g>
		<g id="XMLID_438_">
			<rect id="XMLID_440_" x="323.95" y="234.99" class="st5" width="8.13" height="2.11"/>
			<rect id="XMLID_439_" x="338.39" y="234.99" class="st5" width="8.13" height="2.11"/>
		</g>
	</g>
	<g id="XMLID_429_">
		<g id="XMLID_433_">
			<g id="XMLID_434_">
				
					<rect id="XMLID_436_" x="338.35" y="250.28" transform="matrix(-1 -1.224647e-16 1.224647e-16 -1 684.8142 515.3171)" class="st3" width="8.12" height="14.75"/>
				
					<rect id="XMLID_435_" x="323.9" y="250.28" transform="matrix(-1 -1.224647e-16 1.224647e-16 -1 655.929 515.3171)" class="st3" width="8.12" height="14.75"/>
			</g>
		</g>
		<g id="XMLID_430_">
			<rect id="XMLID_432_" x="323.95" y="262.93" class="st5" width="8.13" height="2.11"/>
			<rect id="XMLID_431_" x="338.39" y="262.93" class="st5" width="8.13" height="2.11"/>
		</g>
	</g>
	<g id="XMLID_421_">
		<g id="XMLID_425_">
			<g id="XMLID_426_">
				
					<rect id="XMLID_428_" x="338.35" y="278.22" transform="matrix(-1 -1.224647e-16 1.224647e-16 -1 684.8142 571.1933)" class="st3" width="8.12" height="14.75"/>
				
					<rect id="XMLID_427_" x="323.9" y="278.22" transform="matrix(-1 -1.224647e-16 1.224647e-16 -1 655.929 571.1933)" class="st3" width="8.12" height="14.75"/>
			</g>
		</g>
		<g id="XMLID_422_">
			<rect id="XMLID_424_" x="323.95" y="290.87" class="st5" width="8.13" height="2.11"/>
			<rect id="XMLID_423_" x="338.39" y="290.87" class="st5" width="8.13" height="2.11"/>
		</g>
	</g>
	<g id="XMLID_413_">
		<g id="XMLID_417_">
			<g id="XMLID_418_">
				
					<rect id="XMLID_420_" x="338.35" y="306.16" transform="matrix(-1 -1.224647e-16 1.224647e-16 -1 684.8142 627.0694)" class="st3" width="8.12" height="14.75"/>
				
					<rect id="XMLID_419_" x="323.9" y="306.16" transform="matrix(-1 -1.224647e-16 1.224647e-16 -1 655.929 627.0694)" class="st3" width="8.12" height="14.75"/>
			</g>
		</g>
		<g id="XMLID_414_">
			<rect id="XMLID_416_" x="323.95" y="318.81" class="st5" width="8.13" height="2.11"/>
			<rect id="XMLID_415_" x="338.39" y="318.81" class="st5" width="8.13" height="2.11"/>
		</g>
	</g>
</g>
<g id="XMLID_359_">
	<rect id="XMLID_388_" x="383.94" y="190.01" class="st3" width="95.68" height="146.85"/>
	<g id="XMLID_385_">
		<polygon id="XMLID_387_" class="st6" points="479.61,190.01 479.61,219.34 383.94,315.02 383.94,250.17 444.1,190.01 		"/>
		<polygon id="XMLID_386_" class="st6" points="479.61,237.28 479.61,269.7 412.46,336.86 383.94,336.86 383.94,332.96 		"/>
	</g>
	<rect id="XMLID_384_" x="479.55" y="190.01" class="st3" width="45.59" height="146.85"/>
	<g id="XMLID_381_">
		<rect id="XMLID_383_" x="383.94" y="190.01" class="st4" width="95.61" height="12.94"/>
		<rect id="XMLID_382_" x="383.94" y="202.95" class="st3" width="95.61" height="3.42"/>
	</g>
	<g id="XMLID_378_">
		<rect id="XMLID_380_" x="383.94" y="220" class="st4" width="95.61" height="12.94"/>
		<rect id="XMLID_379_" x="383.94" y="232.93" class="st3" width="95.61" height="3.42"/>
	</g>
	<g id="XMLID_375_">
		<rect id="XMLID_377_" x="383.94" y="249.99" class="st4" width="95.61" height="12.94"/>
		<rect id="XMLID_376_" x="383.94" y="262.92" class="st3" width="95.61" height="3.42"/>
	</g>
	<g id="XMLID_372_">
		<rect id="XMLID_374_" x="383.94" y="279.98" class="st4" width="95.61" height="12.94"/>
		<rect id="XMLID_373_" x="383.94" y="292.91" class="st3" width="95.61" height="3.42"/>
	</g>
	<g id="XMLID_369_">
		<rect id="XMLID_371_" x="383.94" y="309.96" class="st4" width="95.61" height="12.94"/>
		<rect id="XMLID_370_" x="383.94" y="322.9" class="st3" width="95.61" height="3.42"/>
	</g>
	<rect id="XMLID_368_" x="383.94" y="182.63" class="st4" width="141.2" height="7.38"/>
	<rect id="XMLID_367_" x="479.55" y="182.63" class="st3" width="45.59" height="7.38"/>
	<rect id="XMLID_366_" x="479.55" y="182.63" class="st4" width="6.41" height="154.23"/>
	<rect id="XMLID_365_" x="383.94" y="182.63" class="st4" width="6.41" height="154.23"/>
	<rect id="XMLID_364_" x="390.35" y="220" class="st5" width="89.2" height="1.5"/>
	<rect id="XMLID_363_" x="390.35" y="249.99" class="st5" width="89.2" height="1.5"/>
	<rect id="XMLID_362_" x="390.35" y="279.98" class="st5" width="89.2" height="1.5"/>
	<rect id="XMLID_361_" x="390.35" y="309.96" class="st5" width="89.2" height="1.5"/>
	<rect id="XMLID_360_" x="383.94" y="182.63" class="st5" width="102.02" height="3.69"/>
</g>
<g id="XMLID_338_">
	<polygon id="XMLID_358_" class="st3" points="474.83,116.88 474.8,143.36 474.8,159.55 474.77,182.65 393.92,182.65 393.92,116.88 
			"/>
	<g id="XMLID_355_">
		<polygon id="XMLID_357_" class="st6" points="474.83,116.88 474.83,143.33 474.8,143.36 474.27,143.92 473.01,145.28 
			463.33,155.6 460.44,158.68 448.9,170.99 437.97,182.65 393.92,182.65 393.92,171.15 394.07,170.99 399.34,165.37 405.61,158.68 
			408.49,155.6 418.17,145.28 419.44,143.92 433.86,128.54 444.8,116.88 		"/>
		<polygon id="XMLID_356_" class="st6" points="474.83,159.52 474.82,165.67 474.82,166.11 474.77,182.65 453.15,182.65 
			462.81,172.34 464.08,170.99 474.77,159.58 474.8,159.55 474.82,159.53 		"/>
	</g>
	<polygon id="XMLID_354_" class="st3" points="513.34,116.88 513.34,182.65 474.83,182.65 474.82,166.11 474.82,159.53 
		474.8,149.77 474.8,143.36 474.77,116.88 	"/>
	<g id="XMLID_351_">
		<rect id="XMLID_353_" x="393.91" y="116.87" class="st4" width="80.87" height="11.67"/>
		<rect id="XMLID_352_" x="393.91" y="128.54" class="st3" width="80.87" height="3.08"/>
	</g>
	<g id="XMLID_348_">
		<rect id="XMLID_350_" x="393.91" y="143.93" class="st4" width="80.87" height="11.67"/>
		<rect id="XMLID_349_" x="393.91" y="155.6" class="st3" width="80.87" height="3.08"/>
	</g>
	<g id="XMLID_346_">
		<rect id="XMLID_347_" x="393.92" y="170.99" class="st4" width="80.86" height="11.66"/>
	</g>
	<rect id="XMLID_345_" x="393.91" y="110.21" class="st4" width="119.43" height="6.66"/>
	<rect id="XMLID_344_" x="474.78" y="110.21" class="st3" width="38.56" height="6.66"/>
	<polygon id="XMLID_343_" class="st4" points="480.21,110.21 480.21,182.65 474.83,182.65 474.82,166.11 474.82,159.53 
		474.8,149.77 474.8,143.36 474.77,116.88 474.77,110.21 	"/>
	<rect id="XMLID_342_" x="393.92" y="110.21" class="st4" width="5.42" height="72.44"/>
	<rect id="XMLID_341_" x="399.33" y="143.93" class="st5" width="75.45" height="1.35"/>
	<rect id="XMLID_340_" x="399.33" y="170.99" class="st5" width="75.45" height="1.35"/>
	<rect id="XMLID_339_" x="393.91" y="110.21" class="st5" width="86.29" height="3.33"/>
</g>
<g id="XMLID_308_">
	
		<rect id="XMLID_337_" x="657.77" y="240.32" transform="matrix(-1 -1.224647e-16 1.224647e-16 -1 1378.4384 577.1796)" class="st3" width="62.9" height="96.54"/>
	<g id="XMLID_334_">
		<polygon id="XMLID_336_" class="st6" points="657.77,240.32 657.77,259.61 720.66,322.5 720.66,279.87 681.12,240.32 		"/>
		<polygon id="XMLID_335_" class="st6" points="657.77,271.4 657.77,292.71 701.92,336.86 720.66,336.86 720.66,334.3 		"/>
	</g>
	
		<rect id="XMLID_333_" x="543.54" y="240.32" transform="matrix(-1 -1.224647e-16 1.224647e-16 -1 1201.3514 577.1796)" class="st3" width="114.28" height="96.54"/>
	<g id="XMLID_330_">
		
			<rect id="XMLID_332_" x="657.81" y="240.32" transform="matrix(-1 -1.224647e-16 1.224647e-16 -1 1378.481 489.1486)" class="st4" width="62.85" height="8.5"/>
		
			<rect id="XMLID_331_" x="657.81" y="248.83" transform="matrix(-1 -1.224647e-16 1.224647e-16 -1 1378.481 499.9)" class="st3" width="62.85" height="2.25"/>
	</g>
	<g id="XMLID_327_">
		
			<rect id="XMLID_329_" x="657.81" y="260.04" transform="matrix(-1 -1.224647e-16 1.224647e-16 -1 1378.481 528.5768)" class="st4" width="62.85" height="8.5"/>
		
			<rect id="XMLID_328_" x="657.81" y="268.54" transform="matrix(-1 -1.224647e-16 1.224647e-16 -1 1378.481 539.3281)" class="st3" width="62.85" height="2.25"/>
	</g>
	<g id="XMLID_324_">
		
			<rect id="XMLID_326_" x="657.81" y="279.75" transform="matrix(-1 -1.224647e-16 1.224647e-16 -1 1378.481 568.005)" class="st4" width="62.85" height="8.5"/>
		
			<rect id="XMLID_325_" x="657.81" y="288.25" transform="matrix(-1 -1.224647e-16 1.224647e-16 -1 1378.481 578.7563)" class="st3" width="62.85" height="2.25"/>
	</g>
	<g id="XMLID_321_">
		
			<rect id="XMLID_323_" x="657.81" y="299.46" transform="matrix(-1 -1.224647e-16 1.224647e-16 -1 1378.481 607.433)" class="st4" width="62.85" height="8.5"/>
		
			<rect id="XMLID_322_" x="657.81" y="307.97" transform="matrix(-1 -1.224647e-16 1.224647e-16 -1 1378.481 618.1844)" class="st3" width="62.85" height="2.25"/>
	</g>
	<g id="XMLID_318_">
		
			<rect id="XMLID_320_" x="657.81" y="319.18" transform="matrix(-1 -1.224647e-16 1.224647e-16 -1 1378.481 646.8612)" class="st4" width="62.85" height="8.5"/>
		
			<rect id="XMLID_319_" x="657.81" y="327.68" transform="matrix(-1 -1.224647e-16 1.224647e-16 -1 1378.481 657.6125)" class="st3" width="62.85" height="2.25"/>
	</g>
	
		<rect id="XMLID_317_" x="543.54" y="235.47" transform="matrix(-1 -1.224647e-16 1.224647e-16 -1 1264.204 475.7908)" class="st4" width="177.13" height="4.85"/>
	
		<rect id="XMLID_316_" x="543.54" y="235.47" transform="matrix(-1 -1.224647e-16 1.224647e-16 -1 1201.3514 475.7908)" class="st3" width="114.28" height="4.85"/>
	
		<rect id="XMLID_315_" x="653.6" y="235.47" transform="matrix(-1 -1.224647e-16 1.224647e-16 -1 1311.4128 572.3258)" class="st4" width="4.22" height="101.39"/>
	
		<rect id="XMLID_314_" x="716.45" y="235.47" transform="matrix(-1 -1.224647e-16 1.224647e-16 -1 1437.118 572.3258)" class="st4" width="4.22" height="101.39"/>
	
		<rect id="XMLID_313_" x="657.81" y="260.04" transform="matrix(-1 -1.224647e-16 1.224647e-16 -1 1374.2654 521.0579)" class="st5" width="58.64" height="0.99"/>
	
		<rect id="XMLID_312_" x="657.81" y="279.75" transform="matrix(-1 -1.224647e-16 1.224647e-16 -1 1374.2654 560.4861)" class="st5" width="58.64" height="0.99"/>
	
		<rect id="XMLID_311_" x="657.81" y="299.46" transform="matrix(-1 -1.224647e-16 1.224647e-16 -1 1374.2654 599.9143)" class="st5" width="58.64" height="0.99"/>
	
		<rect id="XMLID_310_" x="657.81" y="319.18" transform="matrix(-1 -1.224647e-16 1.224647e-16 -1 1374.2654 639.3423)" class="st5" width="58.64" height="0.99"/>
	
		<rect id="XMLID_309_" x="653.6" y="235.47" transform="matrix(-1 -1.224647e-16 1.224647e-16 -1 1374.2654 473.3639)" class="st5" width="67.07" height="2.43"/>
</g>
<g id="XMLID_226_">
	
		<rect id="XMLID_307_" x="550.27" y="133.42" transform="matrix(-1 -1.224647e-16 1.224647e-16 -1 1167.4846 470.2738)" class="st3" width="66.95" height="203.44"/>
	
		<rect id="XMLID_306_" x="507.47" y="133.42" transform="matrix(-1 -1.224647e-16 1.224647e-16 -1 1064.7163 470.2738)" class="st4" width="49.77" height="203.44"/>
	
		<rect id="XMLID_305_" x="552.64" y="110.21" transform="matrix(-1 -1.224647e-16 1.224647e-16 -1 1166.7407 244.4858)" class="st3" width="61.47" height="24.07"/>
	
		<rect id="XMLID_304_" x="513.34" y="110.21" transform="matrix(-1 -1.224647e-16 1.224647e-16 -1 1072.382 244.4858)" class="st4" width="45.7" height="24.07"/>
	<polygon id="XMLID_303_" class="st3" points="552.64,110.7 614.1,110.7 596.22,86.63 534.76,86.63 	"/>
	<polygon id="XMLID_302_" class="st5" points="552.64,110.7 614.1,110.7 596.22,86.63 534.76,86.63 	"/>
	<polygon id="XMLID_301_" class="st4" points="513.34,110.7 559.04,110.7 541.16,86.63 531.22,86.63 	"/>
	<g id="XMLID_280_">
		<g id="XMLID_297_">
			<rect id="XMLID_300_" x="601.94" y="154.48" class="st3" width="10.4" height="18.88"/>
			<rect id="XMLID_299_" x="583.45" y="154.48" class="st3" width="10.4" height="18.88"/>
			<rect id="XMLID_298_" x="564.96" y="154.48" class="st3" width="10.4" height="18.88"/>
		</g>
		<g id="XMLID_293_">
			<rect id="XMLID_296_" x="601.94" y="190.25" class="st3" width="10.4" height="18.88"/>
			<rect id="XMLID_295_" x="583.45" y="190.25" class="st3" width="10.4" height="18.88"/>
			<rect id="XMLID_294_" x="564.96" y="190.25" class="st3" width="10.4" height="18.88"/>
		</g>
		<g id="XMLID_289_">
			<rect id="XMLID_292_" x="601.94" y="226.02" class="st3" width="10.4" height="18.88"/>
			<rect id="XMLID_291_" x="583.45" y="226.02" class="st3" width="10.4" height="18.88"/>
			<rect id="XMLID_290_" x="564.96" y="226.02" class="st3" width="10.4" height="18.88"/>
		</g>
		<g id="XMLID_285_">
			<rect id="XMLID_288_" x="601.94" y="261.8" class="st3" width="10.4" height="18.88"/>
			<rect id="XMLID_287_" x="583.45" y="261.8" class="st3" width="10.4" height="18.88"/>
			<rect id="XMLID_286_" x="564.96" y="261.8" class="st3" width="10.4" height="18.88"/>
		</g>
		<g id="XMLID_281_">
			<rect id="XMLID_284_" x="601.94" y="297.57" class="st3" width="10.4" height="18.88"/>
			
				<rect id="XMLID_283_" x="583.44" y="297.57" transform="matrix(-1 -1.224647e-16 1.224647e-16 -1 1177.286 614.0194)" class="st3" width="10.4" height="18.88"/>
			
				<rect id="XMLID_282_" x="564.95" y="297.57" transform="matrix(-1 -1.224647e-16 1.224647e-16 -1 1140.3055 614.0194)" class="st3" width="10.4" height="18.88"/>
		</g>
	</g>
	
		<rect id="XMLID_279_" x="507.47" y="140.08" transform="matrix(-1 -1.224647e-16 1.224647e-16 -1 1124.6884 283.1603)" class="st3" width="109.74" height="3"/>
	<g id="XMLID_275_">
		<rect id="XMLID_278_" x="523.05" y="113.01" class="st3" width="5.2" height="12.63"/>
		<rect id="XMLID_277_" x="530.31" y="113.01" class="st3" width="8.89" height="12.63"/>
		<rect id="XMLID_276_" x="541.26" y="113.01" class="st3" width="5.2" height="12.63"/>
	</g>
	<g id="XMLID_273_">
		<rect id="XMLID_274_" x="565.24" y="115.93" class="st3" width="4.91" height="12.63"/>
	</g>
	<g id="XMLID_271_">
		<rect id="XMLID_272_" x="578.46" y="115.93" class="st3" width="4.91" height="12.63"/>
	</g>
	<g id="XMLID_269_">
		<rect id="XMLID_270_" x="591.68" y="115.93" class="st3" width="4.91" height="12.63"/>
	</g>
	<g id="XMLID_267_">
		<rect id="XMLID_268_" x="604.9" y="115.93" class="st3" width="4.91" height="12.63"/>
	</g>
	<g id="XMLID_259_">
		<g id="XMLID_263_">
			<g id="XMLID_264_">
				
					<rect id="XMLID_266_" x="536.34" y="154.49" transform="matrix(-1 -1.224647e-16 1.224647e-16 -1 1083.0878 327.8548)" class="st3" width="10.4" height="18.88"/>
				
					<rect id="XMLID_265_" x="517.85" y="154.49" transform="matrix(-1 -1.224647e-16 1.224647e-16 -1 1046.1073 327.8548)" class="st3" width="10.4" height="18.88"/>
			</g>
		</g>
		<g id="XMLID_260_">
			<rect id="XMLID_262_" x="517.91" y="170.68" class="st5" width="10.41" height="2.7"/>
			<rect id="XMLID_261_" x="536.4" y="170.68" class="st5" width="10.41" height="2.7"/>
		</g>
	</g>
	<g id="XMLID_251_">
		<g id="XMLID_255_">
			<g id="XMLID_256_">
				
					<rect id="XMLID_258_" x="536.34" y="190.25" transform="matrix(-1 -1.224647e-16 1.224647e-16 -1 1083.0878 399.3902)" class="st3" width="10.4" height="18.88"/>
				
					<rect id="XMLID_257_" x="517.85" y="190.25" transform="matrix(-1 -1.224647e-16 1.224647e-16 -1 1046.1073 399.3902)" class="st3" width="10.4" height="18.88"/>
			</g>
		</g>
		<g id="XMLID_252_">
			<rect id="XMLID_254_" x="517.91" y="206.44" class="st5" width="10.41" height="2.7"/>
			<rect id="XMLID_253_" x="536.4" y="206.44" class="st5" width="10.41" height="2.7"/>
		</g>
	</g>
	<g id="XMLID_243_">
		<g id="XMLID_247_">
			<g id="XMLID_248_">
				
					<rect id="XMLID_250_" x="536.34" y="226.02" transform="matrix(-1 -1.224647e-16 1.224647e-16 -1 1083.0878 470.9256)" class="st3" width="10.4" height="18.88"/>
				
					<rect id="XMLID_249_" x="517.85" y="226.02" transform="matrix(-1 -1.224647e-16 1.224647e-16 -1 1046.1073 470.9256)" class="st3" width="10.4" height="18.88"/>
			</g>
		</g>
		<g id="XMLID_244_">
			<rect id="XMLID_246_" x="517.91" y="242.21" class="st5" width="10.41" height="2.7"/>
			<rect id="XMLID_245_" x="536.4" y="242.21" class="st5" width="10.41" height="2.7"/>
		</g>
	</g>
	<g id="XMLID_235_">
		<g id="XMLID_239_">
			<g id="XMLID_240_">
				
					<rect id="XMLID_242_" x="536.34" y="261.79" transform="matrix(-1 -1.224647e-16 1.224647e-16 -1 1083.0878 542.461)" class="st3" width="10.4" height="18.88"/>
				
					<rect id="XMLID_241_" x="517.85" y="261.79" transform="matrix(-1 -1.224647e-16 1.224647e-16 -1 1046.1073 542.461)" class="st3" width="10.4" height="18.88"/>
			</g>
		</g>
		<g id="XMLID_236_">
			<rect id="XMLID_238_" x="517.91" y="277.98" class="st5" width="10.41" height="2.7"/>
			<rect id="XMLID_237_" x="536.4" y="277.98" class="st5" width="10.41" height="2.7"/>
		</g>
	</g>
	<g id="XMLID_227_">
		<g id="XMLID_231_">
			<g id="XMLID_232_">
				
					<rect id="XMLID_234_" x="536.34" y="297.56" transform="matrix(-1 -1.224647e-16 1.224647e-16 -1 1083.0878 613.9966)" class="st3" width="10.4" height="18.88"/>
				
					<rect id="XMLID_233_" x="517.85" y="297.56" transform="matrix(-1 -1.224647e-16 1.224647e-16 -1 1046.1073 613.9966)" class="st3" width="10.4" height="18.88"/>
			</g>
		</g>
		<g id="XMLID_228_">
			<rect id="XMLID_230_" x="517.91" y="313.75" class="st5" width="10.41" height="2.7"/>
			<rect id="XMLID_229_" x="536.4" y="313.75" class="st5" width="10.41" height="2.7"/>
		</g>
	</g>
</g>
<g id="XMLID_203_">
	<rect id="XMLID_225_" x="299.8" y="301" class="st3" width="131.07" height="35.85"/>
	<g id="XMLID_222_">
		<polygon id="XMLID_224_" class="st6" points="404.29,301 398.14,307.16 391.19,314.1 368.44,336.86 313.02,336.86 348.87,301 		
			"/>
		<polygon id="XMLID_223_" class="st6" points="430.87,301 430.87,317.46 411.48,336.86 383.77,336.86 419.62,301 		"/>
	</g>
	<rect id="XMLID_221_" x="299.81" y="301" class="st3" width="131.06" height="13.1"/>
	<rect id="XMLID_220_" x="294.32" y="301" class="st7" width="142.03" height="6.15"/>
	<g id="XMLID_215_">
		<g id="XMLID_217_">
			<rect id="XMLID_219_" x="299.8" y="307.15" class="st7" width="4.6" height="29.7"/>
			<rect id="XMLID_218_" x="299.8" y="307.15" class="st8" width="4.6" height="3.8"/>
		</g>
		<rect id="XMLID_216_" x="304.4" y="307.15" class="st3" width="3.05" height="29.7"/>
	</g>
	<g id="XMLID_210_">
		<g id="XMLID_212_">
			<rect id="XMLID_214_" x="320.5" y="307.15" class="st7" width="4.6" height="29.7"/>
			<rect id="XMLID_213_" x="320.5" y="307.15" class="st8" width="4.6" height="3.8"/>
		</g>
		<rect id="XMLID_211_" x="325.1" y="307.15" class="st3" width="3.05" height="29.7"/>
	</g>
	<g id="XMLID_205_">
		<g id="XMLID_207_">
			
				<rect id="XMLID_209_" x="426.27" y="307.15" transform="matrix(-1 -1.224647e-16 1.224647e-16 -1 857.1382 644.0127)" class="st7" width="4.6" height="29.7"/>
			
				<rect id="XMLID_208_" x="426.27" y="307.15" transform="matrix(-1 -1.224647e-16 1.224647e-16 -1 857.1382 618.1115)" class="st8" width="4.6" height="3.8"/>
		</g>
		
			<rect id="XMLID_206_" x="423.22" y="307.15" transform="matrix(-1 -1.224647e-16 1.224647e-16 -1 849.4914 644.0119)" class="st3" width="3.05" height="29.7"/>
	</g>
	<rect id="XMLID_204_" x="294.32" y="299.43" class="st5" width="142.03" height="1.57"/>
</g>
<g id="XMLID_193_">
	<rect id="XMLID_202_" x="625.75" y="294.09" class="st9" width="6.82" height="42.77"/>
	<polygon id="XMLID_201_" class="st10" points="632.57,307.11 625.75,304.59 625.75,291.6 632.57,291.6 	"/>
	<path id="XMLID_200_" class="st11" d="M649.73,281.36c0,11.36-9.21,20.58-20.58,20.58c-8.19,0-15.28-4.8-18.59-11.74
		c-1.28-2.69-2-5.68-2-8.85c0-11.37,9.22-20.58,20.58-20.58c4.81,0,9.24,1.65,12.74,4.42C646.67,268.96,649.73,274.8,649.73,281.36z
		"/>
	<path id="XMLID_199_" class="st7" d="M639,277.89c1.46,0.2,2.91,0.45,4.35,0.72c0.22-0.98,0.37-1.98,0.45-3
		c-3.69-1.48-7.43-2.77-11.05-3.91c-6.05-1.91-13.27-3.52-19.95-2.8c-2.27,2.98-3.76,6.58-4.13,10.52c2.39-0.53,4.8-0.95,7.25-1.28
		C623.59,277.13,631.32,276.83,639,277.89z"/>
	<path id="XMLID_198_" class="st7" d="M628.83,287.24c2.75,0.6,5.47,1.33,8.18,2.12c2.36-2.11,4.24-4.76,5.42-7.76
		c-5.63-1.02-11.29-1.46-17.03-1.18c-5.63,0.28-11.28,0.9-16.79,2.18c0.07,1.13,0.22,2.23,0.46,3.3c0.27-0.03,0.55-0.06,0.82-0.08
		C616.26,285.39,622.6,285.87,628.83,287.24z"/>
	<path id="XMLID_197_" class="st7" d="M628,290.24c-5.94-1.29-11.95-1.69-17.98-1.31c0.17,0.43,0.35,0.86,0.55,1.27
		c3.5,2.76,7.93,4.41,12.73,4.41c3.86,0,7.45-1.08,10.54-2.92C631.9,291.16,629.96,290.67,628,290.24z"/>
	<path id="XMLID_196_" class="st7" d="M631.05,267.95c4.16,1.15,8.49,2.54,12.74,4.21c-0.22-2.47-0.87-4.83-1.89-6.97
		c-3.5-2.77-7.93-4.42-12.74-4.42c-5.1,0-9.76,1.87-13.35,4.94C620.93,265.65,626.19,266.61,631.05,267.95z"/>
	<path id="XMLID_195_" class="st5" d="M616.67,268.74c-1.3-0.02-2.59,0.01-3.87,0.15c-2.09,2.74-3.51,6.01-4.01,9.57
		C610.69,274.48,613.42,271.23,616.67,268.74z"/>
	<path id="XMLID_194_" class="st5" d="M632.42,263.03c1.84-0.31,3.64-0.42,5.41-0.34c-2.64-1.23-5.57-1.92-8.67-1.92
		c-5.1,0-9.76,1.87-13.35,4.94c1.76-0.02,3.53,0.08,5.29,0.27C624.6,264.24,628.47,263.24,632.42,263.03z"/>
</g>
<g id="XMLID_181_">
	<rect id="XMLID_192_" x="649.6" y="316.49" class="st9" width="5.35" height="20.37"/>
	<polygon id="XMLID_191_" class="st10" points="654.94,326.7 649.6,324.72 649.6,314.54 654.94,314.54 	"/>
	<circle id="XMLID_190_" class="st7" cx="652.27" cy="306.51" r="16.14"/>
	<path id="XMLID_189_" class="st11" d="M668.41,306.51c0,8.91-7.22,16.14-16.14,16.14c-6.42,0-11.98-3.77-14.57-9.2
		c-1.01-2.11-1.56-4.45-1.56-6.94c0-8.92,7.23-16.14,16.14-16.14c3.78,0,7.25,1.29,9.99,3.46
		C666,296.79,668.41,301.37,668.41,306.51z"/>
	<path id="XMLID_188_" class="st7" d="M652.59,306.02c-3.59-1.97-7.1-4.26-10.19-6.95c-0.9-0.78-1.88-1.65-2.9-2.4
		c-1.34,1.74-2.33,3.76-2.87,5.96c1.46,0.53,2.91,1.09,4.36,1.65c4.68,1.8,9.39,3.53,13.92,5.68c1.42,0.67,2.84,1.39,4.24,2.15
		c0.72-0.72,1.36-1.51,1.93-2.35C658.13,308.79,655.3,307.52,652.59,306.02z"/>
	<path id="XMLID_187_" class="st7" d="M661.79,298.73c0.63,0.92,1.29,1.79,1.99,2.61c0.01-0.2,0.03-0.39,0.03-0.59
		c0-2.47-0.56-4.83-1.56-6.93c-1.53-1.21-3.29-2.13-5.19-2.72C658.68,294.32,660.89,297.43,661.79,298.73z"/>
	<path id="XMLID_186_" class="st7" d="M643.43,296.73c4.11,3.61,8.89,6.65,13.85,8.94c1.64,0.76,3.31,1.38,5,1.92
		c0.45-0.97,0.81-1.99,1.07-3.05c-0.38-0.37-0.75-0.74-1.1-1.14c-1.9-2.16-3.48-4.67-4.94-7.13c-0.87-1.47-2.11-3.55-3.06-5.77
		c-0.65-0.08-1.32-0.14-1.99-0.14c-4.28,0-8.17,1.68-11.06,4.4C642.02,295.45,642.77,296.15,643.43,296.73z"/>
	<path id="XMLID_185_" class="st7" d="M648.18,309.7c-3.93-1.6-8.02-2.91-11.99-4.44c-0.03,0.41-0.06,0.83-0.06,1.25
		c0,2.48,0.56,4.83,1.56,6.94c2.75,2.16,6.22,3.46,9.98,3.46c3.56,0,6.84-1.17,9.51-3.12C654.25,312.22,651.17,310.91,648.18,309.7z
		"/>
	<path id="XMLID_184_" class="st5" d="M641.11,297.97c-0.52-0.44-1.06-0.88-1.62-1.29c-1.34,1.73-2.32,3.75-2.87,5.94
		C638.03,300.91,639.52,299.33,641.11,297.97z"/>
	<path id="XMLID_183_" class="st5" d="M662.41,294.19c-0.05-0.12-0.1-0.24-0.15-0.36c-1.53-1.21-3.29-2.13-5.19-2.72
		c0.32,0.63,0.66,1.26,1.01,1.87C659.59,293.23,661.04,293.63,662.41,294.19z"/>
	<path id="XMLID_182_" class="st5" d="M655.31,292.71c-0.37-0.71-0.73-1.44-1.05-2.2c-0.65-0.08-1.32-0.14-1.99-0.14
		c-4.28,0-8.17,1.68-11.06,4.4c0.68,0.57,1.3,1.14,1.88,1.66C646.57,293.99,650.55,292.55,655.31,292.71z"/>
</g>
<g id="XMLID_605_">
	
		<rect id="XMLID_614_" x="226.72" y="302.64" transform="matrix(-1 -1.224647e-16 1.224647e-16 -1 458.8944 639.5024)" class="st9" width="5.46" height="34.21"/>
	<polygon id="XMLID_613_" class="st10" points="226.72,313.06 232.18,311.04 232.18,300.65 226.72,300.65 	"/>
	<path id="XMLID_612_" class="st11" d="M212.98,292.46c0,9.09,7.37,16.47,16.47,16.47c6.56,0,12.22-3.84,14.87-9.39
		c1.03-2.15,1.6-4.54,1.6-7.08c0-9.1-7.38-16.47-16.47-16.47c-3.85,0-7.39,1.32-10.2,3.53
		C215.44,282.54,212.98,287.21,212.98,292.46z"/>
	<path id="XMLID_611_" class="st7" d="M221.57,289.69c-1.17,0.16-2.32,0.36-3.48,0.58c-0.18-0.78-0.3-1.58-0.36-2.4
		c2.95-1.19,5.94-2.22,8.84-3.13c4.84-1.52,10.62-2.82,15.96-2.24c1.82,2.38,3.01,5.27,3.31,8.42c-1.91-0.43-3.84-0.76-5.8-1.02
		C233.9,289.08,227.71,288.83,221.57,289.69z"/>
	<path id="XMLID_610_" class="st7" d="M229.71,297.16c-2.2,0.48-4.38,1.06-6.54,1.69c-1.89-1.69-3.39-3.81-4.34-6.21
		c4.5-0.82,9.03-1.17,13.63-0.94c4.51,0.22,9.03,0.72,13.43,1.74c-0.05,0.9-0.18,1.78-0.37,2.64c-0.22-0.02-0.44-0.05-0.66-0.07
		C239.76,295.68,234.69,296.07,229.71,297.16z"/>
	<path id="XMLID_609_" class="st7" d="M230.37,299.57c4.75-1.03,9.56-1.35,14.39-1.05c-0.14,0.34-0.28,0.68-0.44,1.02
		c-2.8,2.21-6.34,3.53-10.19,3.53c-3.09,0-5.96-0.86-8.43-2.34C227.25,300.3,228.8,299.91,230.37,299.57z"/>
	<path id="XMLID_608_" class="st7" d="M227.93,281.73c-3.33,0.92-6.79,2.03-10.19,3.37c0.18-1.98,0.7-3.86,1.51-5.58
		c2.8-2.21,6.34-3.53,10.2-3.53c4.08,0,7.81,1.49,10.68,3.95C236.03,279.89,231.82,280.66,227.93,281.73z"/>
	<path id="XMLID_607_" class="st5" d="M239.44,282.37c1.04-0.02,2.07,0.01,3.09,0.12c1.67,2.19,2.8,4.8,3.21,7.66
		C244.22,286.95,242.03,284.35,239.44,282.37z"/>
	<path id="XMLID_606_" class="st5" d="M226.84,277.8c-1.47-0.24-2.91-0.33-4.32-0.27c2.11-0.98,4.46-1.53,6.94-1.53
		c4.08,0,7.81,1.49,10.68,3.95c-1.41-0.02-2.82,0.06-4.24,0.22C233.09,278.76,229.99,277.97,226.84,277.8z"/>
</g>
<g id="XMLID_593_">
	
		<rect id="XMLID_604_" x="193.85" y="320.56" transform="matrix(-1 -1.224647e-16 1.224647e-16 -1 391.971 657.4232)" class="st9" width="4.28" height="16.29"/>
	<polygon id="XMLID_603_" class="st10" points="193.85,328.73 198.12,327.15 198.12,319 193.85,319 	"/>
	<circle id="XMLID_602_" class="st7" cx="195.99" cy="312.58" r="12.91"/>
	<path id="XMLID_601_" class="st11" d="M183.08,312.58c0,7.13,5.78,12.91,12.91,12.91c5.14,0,9.58-3.01,11.66-7.36
		c0.8-1.69,1.25-3.56,1.25-5.55c0-7.13-5.78-12.91-12.91-12.91c-3.02,0-5.8,1.03-7.99,2.77C185,304.8,183.08,308.47,183.08,312.58z"
		/>
	<path id="XMLID_600_" class="st7" d="M195.73,312.19c2.87-1.58,5.68-3.41,8.16-5.56c0.72-0.62,1.5-1.32,2.32-1.92
		c1.07,1.39,1.86,3.01,2.3,4.77c-1.17,0.43-2.33,0.88-3.49,1.32c-3.74,1.44-7.51,2.83-11.13,4.55c-1.14,0.54-2.27,1.11-3.39,1.72
		c-0.57-0.58-1.09-1.2-1.55-1.88C191.29,314.4,193.56,313.39,195.73,312.19z"/>
	<path id="XMLID_599_" class="st7" d="M188.37,306.36c-0.51,0.74-1.03,1.43-1.59,2.09c-0.01-0.16-0.02-0.31-0.02-0.47
		c0-1.98,0.45-3.86,1.25-5.54c1.22-0.97,2.63-1.71,4.15-2.18C190.85,302.83,189.09,305.31,188.37,306.36z"/>
	<path id="XMLID_598_" class="st7" d="M203.06,304.76c-3.29,2.89-7.11,5.32-11.08,7.15c-1.32,0.61-2.65,1.1-4,1.54
		c-0.36-0.78-0.65-1.59-0.86-2.44c0.3-0.3,0.6-0.6,0.88-0.91c1.52-1.72,2.78-3.73,3.95-5.7c0.7-1.18,1.69-2.84,2.45-4.61
		c0.52-0.06,1.05-0.11,1.59-0.11c3.43,0,6.53,1.34,8.84,3.52C204.18,303.73,203.59,304.29,203.06,304.76z"/>
	<path id="XMLID_597_" class="st7" d="M199.25,315.13c3.14-1.28,6.41-2.33,9.59-3.55c0.03,0.33,0.05,0.66,0.05,1
		c0,1.99-0.45,3.86-1.25,5.55c-2.2,1.73-4.97,2.76-7.99,2.76c-2.85,0-5.47-0.93-7.61-2.49C194.4,317.15,196.87,316.1,199.25,315.13z
		"/>
	<path id="XMLID_596_" class="st5" d="M204.92,305.75c0.42-0.36,0.85-0.71,1.3-1.03c1.07,1.39,1.86,3,2.29,4.75
		C207.38,308.1,206.19,306.84,204.92,305.75z"/>
	<path id="XMLID_595_" class="st5" d="M187.87,302.72c0.04-0.09,0.08-0.19,0.12-0.29c1.22-0.97,2.63-1.71,4.15-2.18
		c-0.26,0.51-0.53,1.01-0.81,1.5C190.13,301.95,188.97,302.28,187.87,302.72z"/>
	<path id="XMLID_594_" class="st5" d="M193.55,301.54c0.29-0.57,0.58-1.15,0.84-1.76c0.52-0.06,1.05-0.11,1.59-0.11
		c3.43,0,6.53,1.34,8.84,3.52c-0.54,0.46-1.04,0.91-1.5,1.33C200.55,302.56,197.36,301.41,193.55,301.54z"/>
</g>
<g id="XMLID_158_">
	<g id="XMLID_177_">
		<rect id="XMLID_180_" x="582.88" y="324.27" class="st5" width="4.36" height="12.59"/>
		<path id="XMLID_179_" class="st5" d="M587.61,321.73c0,1.41-1.14,2.54-2.54,2.54c-1.41,0-2.54-1.14-2.54-2.54s1.14-2.54,2.54-2.54
			C586.47,319.18,587.61,320.32,587.61,321.73z"/>
		<rect id="XMLID_178_" x="581.74" y="324.27" class="st5" width="6.65" height="2.8"/>
	</g>
	<rect id="XMLID_176_" x="585.06" y="327.86" class="st5" width="16.95" height="2.14"/>
	<rect id="XMLID_175_" x="585.06" y="332.59" class="st5" width="16.95" height="2.14"/>
	<g id="XMLID_171_">
		<rect id="XMLID_174_" x="599.96" y="324.27" class="st5" width="4.36" height="12.59"/>
		<path id="XMLID_173_" class="st5" d="M604.69,321.73c0,1.41-1.14,2.54-2.54,2.54s-2.54-1.14-2.54-2.54s1.14-2.54,2.54-2.54
			S604.69,320.32,604.69,321.73z"/>
		<rect id="XMLID_172_" x="598.82" y="324.27" class="st5" width="6.65" height="2.8"/>
	</g>
	<rect id="XMLID_170_" x="602.15" y="327.86" class="st5" width="16.95" height="2.14"/>
	<rect id="XMLID_169_" x="602.15" y="332.59" class="st5" width="16.95" height="2.14"/>
	<g id="XMLID_165_">
		<rect id="XMLID_168_" x="617.04" y="324.27" class="st5" width="4.36" height="12.59"/>
		<path id="XMLID_167_" class="st5" d="M621.77,321.73c0,1.41-1.14,2.54-2.54,2.54s-2.54-1.14-2.54-2.54s1.14-2.54,2.54-2.54
			S621.77,320.32,621.77,321.73z"/>
		<rect id="XMLID_166_" x="615.9" y="324.27" class="st5" width="6.65" height="2.8"/>
	</g>
	<rect id="XMLID_164_" x="619.23" y="327.86" class="st5" width="16.95" height="2.14"/>
	<rect id="XMLID_163_" x="619.23" y="332.59" class="st5" width="16.95" height="2.14"/>
	<g id="XMLID_159_">
		<rect id="XMLID_162_" x="634.13" y="324.27" class="st5" width="4.36" height="12.59"/>
		<path id="XMLID_161_" class="st5" d="M638.85,321.73c0,1.41-1.14,2.54-2.54,2.54c-1.41,0-2.54-1.14-2.54-2.54s1.14-2.54,2.54-2.54
			C637.71,319.18,638.85,320.32,638.85,321.73z"/>
		<rect id="XMLID_160_" x="632.98" y="324.27" class="st5" width="6.65" height="2.8"/>
	</g>
</g>
<g id="XMLID_615_">
	<g id="XMLID_634_">
		
			<rect id="XMLID_637_" x="174.83" y="324.27" transform="matrix(-1 -1.224647e-16 1.224647e-16 -1 354.0251 661.1285)" class="st5" width="4.36" height="12.59"/>
		<path id="XMLID_636_" class="st5" d="M174.47,321.73c0,1.41,1.14,2.54,2.54,2.54s2.54-1.14,2.54-2.54s-1.14-2.54-2.54-2.54
			S174.47,320.32,174.47,321.73z"/>
		
			<rect id="XMLID_635_" x="173.69" y="324.27" transform="matrix(-1 -1.224647e-16 1.224647e-16 -1 354.0252 651.3374)" class="st5" width="6.65" height="2.8"/>
	</g>
	
		<rect id="XMLID_633_" x="160.06" y="327.86" transform="matrix(-1 -1.224647e-16 1.224647e-16 -1 337.0764 657.8676)" class="st5" width="16.95" height="2.14"/>
	
		<rect id="XMLID_632_" x="160.06" y="332.59" transform="matrix(-1 -1.224647e-16 1.224647e-16 -1 337.0764 667.3128)" class="st5" width="16.95" height="2.14"/>
	<g id="XMLID_628_">
		
			<rect id="XMLID_631_" x="157.75" y="324.27" transform="matrix(-1 -1.224647e-16 1.224647e-16 -1 319.8636 661.1285)" class="st5" width="4.36" height="12.59"/>
		<path id="XMLID_630_" class="st5" d="M157.39,321.73c0,1.41,1.14,2.54,2.54,2.54c1.41,0,2.54-1.14,2.54-2.54s-1.14-2.54-2.54-2.54
			C158.53,319.18,157.39,320.32,157.39,321.73z"/>
		
			<rect id="XMLID_629_" x="156.6" y="324.27" transform="matrix(-1 -1.224647e-16 1.224647e-16 -1 319.8636 651.3374)" class="st5" width="6.65" height="2.8"/>
	</g>
	
		<rect id="XMLID_627_" x="142.98" y="327.86" transform="matrix(-1 -1.224647e-16 1.224647e-16 -1 302.9148 657.8676)" class="st5" width="16.95" height="2.14"/>
	
		<rect id="XMLID_626_" x="142.98" y="332.59" transform="matrix(-1 -1.224647e-16 1.224647e-16 -1 302.9148 667.3128)" class="st5" width="16.95" height="2.14"/>
	<g id="XMLID_622_">
		
			<rect id="XMLID_625_" x="140.67" y="324.27" transform="matrix(-1 -1.224647e-16 1.224647e-16 -1 285.702 661.1285)" class="st5" width="4.36" height="12.59"/>
		<path id="XMLID_624_" class="st5" d="M140.31,321.73c0,1.41,1.14,2.54,2.54,2.54s2.54-1.14,2.54-2.54s-1.14-2.54-2.54-2.54
			S140.31,320.32,140.31,321.73z"/>
		
			<rect id="XMLID_623_" x="139.52" y="324.27" transform="matrix(-1 -1.224647e-16 1.224647e-16 -1 285.702 651.3374)" class="st5" width="6.65" height="2.8"/>
	</g>
	
		<rect id="XMLID_621_" x="125.9" y="327.86" transform="matrix(-1 -1.224647e-16 1.224647e-16 -1 268.7532 657.8676)" class="st5" width="16.95" height="2.14"/>
	
		<rect id="XMLID_620_" x="125.9" y="332.59" transform="matrix(-1 -1.224647e-16 1.224647e-16 -1 268.7532 667.3128)" class="st5" width="16.95" height="2.14"/>
	<g id="XMLID_616_">
		
			<rect id="XMLID_619_" x="123.59" y="324.27" transform="matrix(-1 -1.224647e-16 1.224647e-16 -1 251.5404 661.1285)" class="st5" width="4.36" height="12.59"/>
		<path id="XMLID_618_" class="st5" d="M123.23,321.73c0,1.41,1.14,2.54,2.54,2.54c1.41,0,2.54-1.14,2.54-2.54s-1.14-2.54-2.54-2.54
			C124.36,319.18,123.23,320.32,123.23,321.73z"/>
		
			<rect id="XMLID_617_" x="122.44" y="324.27" transform="matrix(-1 -1.224647e-16 1.224647e-16 -1 251.5404 651.3374)" class="st5" width="6.65" height="2.8"/>
	</g>
</g>
<g id="XMLID_152_">
	<path id="XMLID_157_" class="st5" d="M461.92,60.12h-23.17c-0.44,0-0.79-0.36-0.79-0.8c0-0.44,0.36-0.8,0.79-0.8h22.19
		c-0.6-1.87-2.36-3.2-4.4-3.2c-0.14,0-0.27,0.01-0.4,0.02c-0.36,0.02-0.7-0.18-0.82-0.52c-1.03-2.89-3.79-4.83-6.86-4.83
		c-3.4,0-6.39,2.4-7.12,5.71c-0.09,0.43-0.52,0.7-0.95,0.61c-0.43-0.09-0.7-0.52-0.61-0.95c0.89-4.03,4.53-6.96,8.67-6.96
		c3.55,0,6.75,2.12,8.14,5.34c3.13,0.03,5.75,2.38,6.11,5.49c0.03,0.23-0.05,0.45-0.2,0.62C462.37,60.02,462.15,60.12,461.92,60.12z
		"/>
	<path id="XMLID_156_" class="st5" d="M480.67,60.12h-12.61c-0.44,0-0.79-0.36-0.79-0.8c0-0.44,0.36-0.8,0.79-0.8h12.61
		c0.44,0,0.8,0.36,0.8,0.8C481.47,59.77,481.11,60.12,480.67,60.12z"/>
	<path id="XMLID_155_" class="st5" d="M473.1,65.85h-14.44c-0.44,0-0.8-0.36-0.8-0.8s0.36-0.8,0.8-0.8h14.44
		c0.44,0,0.79,0.36,0.79,0.8S473.54,65.85,473.1,65.85z"/>
	<path id="XMLID_154_" class="st5" d="M432.32,60.12h-3.68c-0.44,0-0.8-0.36-0.8-0.8c0-0.44,0.36-0.8,0.8-0.8h3.68
		c0.44,0,0.8,0.36,0.8,0.8C433.12,59.77,432.76,60.12,432.32,60.12z"/>
	<path id="XMLID_153_" class="st5" d="M452.18,65.85h-3.68c-0.44,0-0.79-0.36-0.79-0.8s0.36-0.8,0.79-0.8h3.68
		c0.44,0,0.8,0.36,0.8,0.8S452.62,65.85,452.18,65.85z"/>
</g>
<g id="XMLID_146_">
	<path id="XMLID_149_" class="st5" d="M395.44,77.68h-59.7c-0.23,0-0.44-0.1-0.59-0.27c-0.15-0.17-0.22-0.39-0.2-0.62
		c0.67-5.86,5.63-10.29,11.54-10.29c2.03,0,4,0.52,5.74,1.52c2.08-7.13,8.76-12.2,16.28-12.2c6.95,0,13.21,4.27,15.76,10.69
		c0.13,0,0.27-0.01,0.4-0.01c5.91,0,10.88,4.42,11.54,10.29c0.03,0.23-0.05,0.45-0.2,0.62C395.88,77.58,395.66,77.68,395.44,77.68z
		 M336.67,76.09h57.83c-0.94-4.61-5.02-7.99-9.82-7.99c-0.3,0-0.59,0.01-0.87,0.04c-0.38,0.03-0.7-0.18-0.82-0.53
		c-2.17-6.1-7.99-10.19-14.48-10.19c-7.16,0-13.47,5.06-15.01,12.04c-0.06,0.26-0.24,0.47-0.49,0.57c-0.25,0.1-0.53,0.06-0.75-0.09
		c-1.7-1.21-3.7-1.84-5.78-1.84C341.69,68.1,337.62,71.48,336.67,76.09z"/>
	<path id="XMLID_148_" class="st5" d="M343.52,82.45h-16.28c-0.44,0-0.79-0.36-0.79-0.8c0-0.44,0.36-0.8,0.79-0.8h16.28
		c0.44,0,0.8,0.36,0.8,0.8C344.31,82.09,343.96,82.45,343.52,82.45z"/>
	<path id="XMLID_147_" class="st5" d="M327.24,77.68h-10.53c-0.44,0-0.79-0.36-0.79-0.8c0-0.44,0.36-0.8,0.79-0.8h10.53
		c0.44,0,0.79,0.36,0.79,0.8C328.03,77.32,327.68,77.68,327.24,77.68z"/>
</g>
<g id="XMLID_666_">
	<path id="XMLID_669_" class="st5" d="M767.82,273.31c-0.15-0.17-0.22-0.39-0.2-0.62c0.67-5.86,5.63-10.29,11.54-10.29
		c0.14,0,0.27,0,0.4,0.01c2.55-6.42,8.81-10.69,15.76-10.69c7.52,0,14.2,5.07,16.28,12.2c1.74-1,3.71-1.52,5.74-1.52
		c5.91,0,10.88,4.42,11.54,10.29c0.03,0.23-0.05,0.45-0.2,0.62c-0.15,0.17-0.37,0.27-0.59,0.27h-59.7
		C768.19,273.58,767.97,273.48,767.82,273.31z M817.36,264c-2.08,0-4.08,0.64-5.78,1.84c-0.22,0.16-0.5,0.19-0.75,0.09
		c-0.25-0.1-0.43-0.31-0.49-0.57c-1.54-6.98-7.85-12.04-15.01-12.04c-6.48,0-12.3,4.1-14.48,10.19c-0.12,0.34-0.44,0.55-0.82,0.53
		c-0.28-0.03-0.57-0.04-0.87-0.04c-4.8,0-8.88,3.38-9.82,7.99h57.83C826.24,267.37,822.16,264,817.36,264z"/>
	<path id="XMLID_668_" class="st5" d="M820.34,278.35h16.28c0.44,0,0.79-0.36,0.79-0.8c0-0.44-0.36-0.8-0.79-0.8h-16.28
		c-0.44,0-0.79,0.36-0.79,0.8C819.54,277.99,819.9,278.35,820.34,278.35z"/>
	<path id="XMLID_667_" class="st5" d="M836.61,273.58h10.53c0.44,0,0.79-0.36,0.79-0.8c0-0.44-0.36-0.8-0.79-0.8h-10.53
		c-0.44,0-0.79,0.36-0.79,0.8C835.82,273.22,836.17,273.58,836.61,273.58z"/>
</g>
<g id="XMLID_139_">
	<path id="XMLID_143_" class="st5" d="M80.72,239.25c-0.04-0.33-0.06-0.67-0.06-1.01c0-4.81,3.92-8.73,8.73-8.73
		c0.42,0,0.84,0.03,1.25,0.09c2.51-4.51,7.21-7.29,12.4-7.29c5.17,0,10,2.89,12.47,7.41c0.61-0.13,1.23-0.2,1.87-0.2
		c4.81,0,8.73,3.92,8.73,8.73c0,0.34-0.02,0.68-0.06,1.01c-0.05,0.4-0.39,0.7-0.79,0.7H81.51
		C81.11,239.96,80.77,239.65,80.72,239.25z M124.52,238.24c0-3.94-3.2-7.14-7.14-7.14c-0.7,0-1.39,0.1-2.05,0.3
		c-0.38,0.11-0.77-0.06-0.95-0.41c-2.1-4.31-6.55-7.09-11.34-7.09c-4.79,0-9.1,2.66-11.26,6.94c-0.16,0.32-0.51,0.5-0.87,0.42
		c-0.5-0.11-1.01-0.16-1.52-0.16c-3.94,0-7.14,3.2-7.14,7.14c0,0.04,0,0.08,0,0.12h42.27C124.52,238.32,124.52,238.28,124.52,238.24
		z"/>
	<path id="XMLID_142_" class="st5" d="M61.14,239.15h14.28c0.44,0,0.79-0.36,0.79-0.8c0-0.44-0.36-0.8-0.79-0.8H61.14
		c-0.44,0-0.79,0.36-0.79,0.8C60.34,238.79,60.7,239.15,61.14,239.15z"/>
	<path id="XMLID_141_" class="st5" d="M49.22,239.15h5.75c0.44,0,0.79-0.36,0.79-0.8c0-0.44-0.36-0.8-0.79-0.8h-5.75
		c-0.44,0-0.79,0.36-0.79,0.8C48.42,238.79,48.78,239.15,49.22,239.15z"/>
	<path id="XMLID_140_" class="st5" d="M73.59,246.98h25.45c0.44,0,0.79-0.36,0.79-0.8c0-0.44-0.36-0.8-0.79-0.8H73.59
		c-0.44,0-0.79,0.36-0.79,0.8C72.79,246.63,73.15,246.98,73.59,246.98z"/>
</g>
<g id="XMLID_119_">
	<path id="XMLID_138_" class="st12" d="M781.74,64.63c0.19,7.77-1.27,14.28-3.63,19.92c-6.25,15-18.75,24.06-23.02,35.31
		c-0.92,2.44-1.45,4.99-1.45,7.71v0.74h-26.17v-0.73c0-2.74-0.53-5.29-1.43-7.73c-4.23-11.29-16.68-20.26-22.95-35.31
		c-2.26-5.38-3.72-11.55-3.72-18.88c0-7.87,2.21-15.22,6.03-21.48c7.63-12.42,21.66-20.51,37.49-19.62
		c13.75,0.78,25.8,8.49,32.68,19.62C779.32,50.19,781.55,57.2,781.74,64.63z"/>
	<path id="XMLID_137_" class="st13" d="M772.27,64.63c0.15,7.77-0.98,14.28-2.79,19.92c-4.81,15-14.44,24.06-17.72,35.31
		c-0.71,2.44-1.12,4.99-1.12,7.71v0.74h-20.15v-0.73c0-2.74-0.41-5.29-1.1-7.73c-3.26-11.29-12.84-20.26-17.67-35.31
		c-1.74-5.38-2.86-11.55-2.86-18.88c0-7.87,1.7-15.22,4.65-21.48c5.87-12.42,16.67-20.51,28.86-19.62
		c10.58,0.78,19.86,8.49,25.16,19.62C770.4,50.19,772.12,57.2,772.27,64.63z"/>
	<path id="XMLID_136_" class="st12" d="M760.92,64.63c0.1,7.77-0.63,14.28-1.79,19.92c-3.09,15-9.27,24.06-11.38,35.31
		c-0.45,2.44-0.72,4.99-0.72,7.71v0.74H734.1v-0.73c0-2.74-0.26-5.29-0.71-7.73c-2.09-11.29-8.25-20.26-11.34-35.31
		c-1.12-5.38-1.84-11.55-1.84-18.88c0-7.87,1.09-15.22,2.98-21.48c3.77-12.42,10.7-20.51,18.53-19.62
		c6.79,0.78,12.75,8.49,16.15,19.62C759.72,50.19,760.82,57.2,760.92,64.63z"/>
	<path id="XMLID_135_" class="st13" d="M748.86,64.63c0.04,7.77-0.26,14.28-0.73,19.92c-1.26,15-3.78,24.06-4.64,35.31
		c-0.19,2.44-0.29,4.99-0.29,7.71v0.74h-5.27v-0.73c0-2.74-0.11-5.29-0.29-7.73c-0.85-11.29-3.36-20.26-4.62-35.31
		c-0.46-5.38-0.75-11.55-0.75-18.88c0-7.87,0.45-15.22,1.22-21.48c1.54-12.42,4.36-20.51,7.55-19.62c2.77,0.78,5.19,8.49,6.58,19.62
		C748.37,50.19,748.82,57.2,748.86,64.63z"/>
	<path id="XMLID_134_" class="st13" d="M755.09,119.87c-0.92,2.44-1.45,4.99-1.45,7.71v0.74h-26.17v-0.73
		c0-2.74-0.53-5.29-1.43-7.73H755.09z"/>
	<path id="XMLID_133_" class="st12" d="M755.09,119.87c-0.37,0.99-0.67,1.98-0.92,3.01h-27.23c-0.23-1.03-0.53-2.02-0.9-3.01H755.09
		z"/>
	<path id="XMLID_132_" class="st12" d="M753.73,125.56c-0.05,0.67-0.09,1.33-0.09,2.02v0.74h-26.17v-0.73
		c0-0.69-0.04-1.36-0.09-2.03H753.73z"/>
	<g id="XMLID_122_">
		<path id="XMLID_131_" class="st14" d="M750.62,163.48c-0.09,0-0.17-0.01-0.26-0.04c-0.41-0.14-0.63-0.6-0.49-1.01l25.72-74.24
			c0.14-0.42,0.59-0.64,1.01-0.49c0.41,0.14,0.63,0.6,0.49,1.01l-25.72,74.24C751.26,163.28,750.95,163.48,750.62,163.48z"/>
		<path id="XMLID_130_" class="st14" d="M740.57,167.02c-0.44,0-0.79-0.36-0.79-0.8V88.45c0-0.44,0.36-0.8,0.79-0.8
			c0.44,0,0.8,0.36,0.8,0.8v77.78C741.36,166.67,741.01,167.02,740.57,167.02z"/>
		<path id="XMLID_129_" class="st14" d="M744.64,167.02c-0.05,0-0.09,0-0.14-0.01c-0.43-0.08-0.72-0.49-0.64-0.92l13.85-77.78
			c0.08-0.43,0.49-0.72,0.92-0.64c0.43,0.08,0.72,0.49,0.64,0.92l-13.85,77.78C745.35,166.75,745.02,167.02,744.64,167.02z"/>
		<path id="XMLID_128_" class="st14" d="M730.51,163.48c-0.33,0-0.64-0.21-0.75-0.54l-25.72-74.24c-0.14-0.41,0.08-0.87,0.49-1.01
			c0.42-0.15,0.87,0.08,1.01,0.49l25.72,74.24c0.14,0.42-0.08,0.87-0.49,1.01C730.69,163.47,730.6,163.48,730.51,163.48z"/>
		<path id="XMLID_127_" class="st14" d="M736.49,167.02c-0.38,0-0.71-0.27-0.78-0.66l-13.85-77.78c-0.08-0.43,0.21-0.85,0.64-0.92
			c0.42-0.08,0.85,0.21,0.92,0.64l13.85,77.78c0.08,0.43-0.21,0.85-0.64,0.92C736.59,167.02,736.54,167.02,736.49,167.02z"/>
		<path id="XMLID_126_" class="st14" d="M713.72,92.41c-3.09,0-6.18-1.1-9.38-3.3c-0.36-0.25-0.45-0.74-0.2-1.11
			c0.25-0.36,0.74-0.46,1.11-0.2c5.78,3.98,11.17,3.98,16.96,0c0.36-0.25,0.86-0.16,1.11,0.2c0.25,0.36,0.16,0.86-0.2,1.11
			C719.9,91.31,716.81,92.41,713.72,92.41z"/>
		<path id="XMLID_125_" class="st14" d="M731.58,92.41c-3.09,0-6.18-1.1-9.38-3.3c-0.36-0.25-0.45-0.74-0.2-1.11
			c0.25-0.36,0.74-0.46,1.11-0.2c5.78,3.98,11.17,3.98,16.96,0c0.36-0.25,0.86-0.16,1.11,0.2c0.25,0.36,0.16,0.86-0.2,1.11
			C737.76,91.31,734.67,92.41,731.58,92.41z"/>
		<path id="XMLID_124_" class="st14" d="M749.43,92.41c-3.09,0-6.18-1.1-9.38-3.3c-0.36-0.25-0.45-0.74-0.2-1.11
			c0.25-0.36,0.74-0.46,1.11-0.2c5.79,3.98,11.17,3.98,16.95,0c0.36-0.25,0.86-0.16,1.11,0.2c0.25,0.36,0.16,0.86-0.2,1.11
			C755.62,91.31,752.53,92.41,749.43,92.41z"/>
		<path id="XMLID_123_" class="st14" d="M767.29,92.41c-3.09,0-6.18-1.1-9.38-3.3c-0.36-0.25-0.45-0.74-0.2-1.11
			c0.25-0.36,0.74-0.46,1.11-0.2c5.78,3.98,11.17,3.98,16.95,0c0.36-0.25,0.86-0.16,1.11,0.2c0.25,0.36,0.16,0.86-0.2,1.11
			C773.47,91.31,770.38,92.41,767.29,92.41z"/>
	</g>
	<path id="XMLID_121_" class="st13" d="M748.62,181.85h-16.1c-1.53,0-2.78-1.24-2.78-2.78v-16.6h21.66v16.6
		C751.4,180.61,750.15,181.85,748.62,181.85z"/>
	<path id="XMLID_120_" class="st12" d="M752.22,169.98h-23.3c-0.52,0-0.95-0.42-0.95-0.95v-5.62c0-0.52,0.42-0.95,0.95-0.95h23.3
		c0.52,0,0.95,0.42,0.95,0.95v5.62C753.16,169.56,752.74,169.98,752.22,169.98z"/>
</g>
<rect id="XMLID_118_" y="336.86" class="st15" width="900" height="39.9"/>
<g id="XMLID_696_">
	<path id="XMLID_703_" class="st12" d="M803.44,113.54c-2.82,0-5.11,2.28-5.11,5.1c0-2.82-2.29-5.1-5.11-5.1
		c2.82,0,5.11-2.29,5.11-5.11C798.33,111.25,800.62,113.54,803.44,113.54z"/>
	<path id="XMLID_699_" class="st5" d="M648.9,84.43c-2.82,0-5.11,2.28-5.11,5.1c0-2.82-2.29-5.1-5.11-5.1
		c2.82,0,5.11-2.29,5.11-5.11C643.79,82.14,646.08,84.43,648.9,84.43z"/>
	<path id="XMLID_704_" class="st12" d="M168.37,225.11c-2.82,0-5.11,2.28-5.11,5.1c0-2.82-2.29-5.1-5.11-5.1
		c2.82,0,5.11-2.29,5.11-5.11C163.26,222.82,165.55,225.11,168.37,225.11z"/>
	<path id="XMLID_701_" class="st5" d="M210.03,188.38c-2.82,0-5.11,2.28-5.11,5.1c0-2.82-2.29-5.1-5.11-5.1
		c2.82,0,5.11-2.29,5.11-5.11C204.91,186.09,207.21,188.38,210.03,188.38z"/>
	<path id="XMLID_706_" class="st12" d="M756.67,245.43c-2.82,0-5.11,2.28-5.11,5.1c0-2.82-2.29-5.1-5.11-5.1
		c2.82,0,5.11-2.29,5.11-5.11C751.56,243.14,753.85,245.43,756.67,245.43z"/>
	<path id="XMLID_708_" class="st12" d="M256.14,79.32c-2.82,0-5.11,2.28-5.11,5.1c0-2.82-2.29-5.1-5.11-5.1
		c2.82,0,5.11-2.29,5.11-5.11C251.03,77.03,253.32,79.32,256.14,79.32z"/>
	<path id="XMLID_697_" class="st16" d="M867.12,140.09c-6.53,0-11.84,5.28-11.84,11.82c0-6.53-5.31-11.82-11.84-11.82
		c6.53,0,11.84-5.31,11.84-11.84C855.28,134.78,860.58,140.09,867.12,140.09z"/>
	<path id="XMLID_698_" class="st5" d="M811.41,181.32c-6.53,0-11.84,5.28-11.84,11.82c0-6.53-5.31-11.82-11.84-11.82
		c6.53,0,11.84-5.31,11.84-11.84C799.57,176.01,804.88,181.32,811.41,181.32z"/>
	<path id="XMLID_705_" class="st5" d="M91.28,170.69c-4.87,0-8.83,3.94-8.83,8.81c0-4.87-3.96-8.81-8.83-8.81
		c4.87,0,8.83-3.96,8.83-8.83C82.46,166.73,86.41,170.69,91.28,170.69z"/>
	<path id="XMLID_702_" class="st16" d="M173.95,128.6c-6.53,0-11.84,5.28-11.84,11.82c0-6.53-5.31-11.82-11.84-11.82
		c6.53,0,11.84-5.31,11.84-11.84C162.11,123.29,167.42,128.6,173.95,128.6z"/>
</g>
</svg>
